<svg width="14" height="14" viewBox="0 0 14 14" fill="none" xmlns="http://www.w3.org/2000/svg">
<path d="M1.44375 10.4125H6.60625L10.9813 14V10.4125H12.5563C13.3438 10.4125 14 9.75625 14 8.925V1.4875C14 0.65625 13.3438 0 12.5563 0H1.44375C0.65625 0 0 0.65625 0 1.4875V8.96875C0 9.75625 0.65625 10.4125 1.44375 10.4125ZM0.875 1.4875C0.875 1.1375 1.1375 0.875 1.44375 0.875H12.5563C12.8625 0.875 13.125 1.1375 13.125 1.4875V8.96875C13.125 9.31875 12.8625 9.58125 12.5563 9.58125H10.1063V12.2062L6.9125 9.58125H1.44375C1.1375 9.58125 0.875 9.31875 0.875 8.96875V1.4875V1.4875Z" fill="#A9B0B0"/>
<path d="M11.8125 2.5376H2.14377V3.4126H11.8125V2.5376Z" fill="#A9B0B0"/>
<path d="M10.0625 4.7251H2.14377V5.6001H10.0625V4.7251Z" fill="#A9B0B0"/>
<path d="M8.31252 6.86865H2.14377V7.74365H8.31252V6.86865Z" fill="#A9B0B0"/>
</svg>
