<svg width="39" height="38" viewBox="0 0 39 38" fill="none" xmlns="http://www.w3.org/2000/svg">
<path d="M24.4825 28.991C24.5964 29.1184 24.6567 29.2792 24.6567 29.4334C24.6567 29.5608 24.6903 32.6442 21.9353 33.9781C21.1577 34.3401 20.2126 34.4339 19.3412 34.4541L17.1224 37.1956C18.4027 37.209 20.112 37.1956 20.7287 37.1152C21.8682 36.9744 23.0078 36.5789 24.02 35.9757C24.7305 35.5668 25.3807 35.0238 25.9639 34.4272C26.6744 33.6698 27.2307 32.8788 27.4989 32.1951C27.6262 31.8599 27.7536 31.4846 27.8474 31.069C28.1022 29.9898 28.2094 28.2336 28.2295 26.8125H22.5922L24.4825 28.991Z" fill="white"/>
<path d="M24.1405 23.0386L22.9005 25.2707L31.3732 25.2573C34.1282 25.2573 35.5358 24.2921 36.6285 23.0587L24.1405 23.0386Z" fill="white"/>
<path d="M15.3327 20.411C15.7281 20.3775 16.0767 20.6657 16.1102 21.0612C16.1236 21.2355 16.5392 25.2573 20.2595 25.2573H20.7153L23.0413 21.3025H28.263V9.3173C28.263 5.55015 26.4129 3.64646 26.3325 3.57273L26.2722 3.5124C25.3672 2.37287 24.1339 1.54838 22.7262 1.10598C21.5733 0.737305 20.4941 0.737305 19.2607 0.737305H13.2614C14.0054 1.51487 14.3875 2.56055 14.3875 3.85426C14.3875 4.24974 14.0725 4.56479 13.677 4.56479C13.2815 4.56479 12.9598 4.24974 12.9598 3.85426C12.9598 2.8756 12.6715 2.11144 12.1219 1.60871C11.0896 0.656867 9.4004 0.750711 9.38029 0.750711C9.36018 0.750711 9.34678 0.750711 9.34678 0.750711H3.52176C3.47484 0.750711 3.03244 0.737305 2.76431 1.00543C2.55652 1.19312 2.46267 1.51487 2.46267 1.95727V17.1398C2.46267 17.2203 2.3018 20.478 4.48701 22.6632C4.52053 22.6967 7.02079 25.2573 10.0774 25.2573H16.5526C15.2991 24.0374 14.7629 22.3281 14.6691 21.1885C14.6355 20.8065 14.9372 20.4579 15.3327 20.411ZM23.4099 15.4104L18.8518 13.3191C20.4002 10.296 24.3417 12.1661 23.4099 15.4104Z" fill="white"/>
</svg>
