<svg width="21" height="20" viewBox="0 0 21 20" fill="none" xmlns="http://www.w3.org/2000/svg">
<path d="M10.5493 16.5859C10.4867 16.5859 10.4242 16.5859 10.3617 16.5231L0.545354 11.876C0.295256 11.7504 0.232732 11.4992 0.295256 11.248C0.420305 10.9968 0.670403 10.934 0.9205 10.9968L10.4867 15.5811L20.053 10.9968C20.3031 10.8712 20.5531 10.9968 20.6782 11.248C20.8032 11.4992 20.6782 11.7504 20.4281 11.876L10.6743 16.5231C10.6743 16.5231 10.6118 16.5859 10.5493 16.5859Z" fill="#4C4F50"/>
<path fill-rule="evenodd" clip-rule="evenodd" d="M0.423405 12.121C0.236478 12.0271 0.109363 11.8787 0.0462516 11.7012C-0.01491 11.5292 -0.0104353 11.3468 0.0306904 11.1815L0.0379514 11.1524L0.0513401 11.1255C0.144803 10.9377 0.292563 10.8101 0.469275 10.7467C0.640528 10.6852 0.822162 10.6897 0.986664 10.731L1.01324 10.7377L10.4867 15.2776L19.9335 10.7505C20.1285 10.6534 20.3365 10.6503 20.5199 10.7293C20.6987 10.8062 20.8361 10.9526 20.9221 11.1255C21.02 11.3221 21.0235 11.532 20.9445 11.717C20.8679 11.8965 20.7222 12.0345 20.5501 12.121L20.545 12.1235L10.8241 16.7549C10.8135 16.7634 10.8009 16.7728 10.7865 16.7824C10.7495 16.8072 10.6625 16.8598 10.5493 16.8598C10.5473 16.8598 10.5452 16.8598 10.543 16.8598C10.4795 16.86 10.3419 16.8603 10.2105 16.7544L0.423405 12.121ZM10.3617 16.5231C10.4242 16.5859 10.4867 16.5859 10.5493 16.5859C10.6118 16.5859 10.6743 16.5231 10.6743 16.5231L20.4281 11.876C20.6782 11.7504 20.8033 11.4992 20.6782 11.248C20.5532 10.9968 20.3031 10.8712 20.053 10.9968L10.4867 15.5811L0.920518 10.9968C0.670421 10.934 0.420323 10.9968 0.295275 11.248C0.23275 11.4992 0.295275 11.7504 0.545372 11.876L10.3617 16.5231Z" fill="#4C4F50"/>
<path d="M10.5493 19.726C10.4867 19.726 10.4242 19.726 10.3617 19.6632L0.545354 15.0161C0.295256 14.8905 0.232732 14.6393 0.295256 14.3881C0.420305 14.1369 0.670403 14.0741 0.9205 14.1369L10.4867 18.7213L20.053 14.1369C20.3031 14.0113 20.5531 14.1369 20.6782 14.3881C20.8032 14.6393 20.6782 14.8905 20.4281 15.0161L10.6743 19.6632C10.6743 19.726 10.6118 19.726 10.5493 19.726Z" fill="#4C4F50"/>
<path fill-rule="evenodd" clip-rule="evenodd" d="M0.423405 15.2611C0.236478 15.1672 0.109363 15.0188 0.0462516 14.8413C-0.01491 14.6693 -0.0104353 14.4869 0.0306904 14.3217L0.0379514 14.2925L0.0513401 14.2656C0.144803 14.0779 0.292563 13.9502 0.469275 13.8868C0.640528 13.8254 0.822162 13.8299 0.986664 13.8712L1.01324 13.8778L10.4867 18.4177L19.9335 13.8907C20.1285 13.7936 20.3365 13.7905 20.5199 13.8694C20.6987 13.9464 20.8361 14.0927 20.9221 14.2656C21.02 14.4622 21.0235 14.6721 20.9445 14.8571C20.8679 15.0366 20.7222 15.1747 20.5501 15.2611L20.545 15.2637L10.8773 19.8697C10.8278 19.9326 10.7661 19.9631 10.7215 19.9781C10.6526 20.0011 10.5776 20.0003 10.554 20C10.5521 20 10.5505 20 10.5493 20C10.5473 20 10.5452 20 10.543 20C10.4795 20.0001 10.3419 20.0004 10.2105 19.8945L0.423405 15.2611ZM10.3617 19.6632C10.4242 19.726 10.4867 19.726 10.5493 19.726C10.6118 19.726 10.6743 19.726 10.6743 19.6632L20.4281 15.0161C20.6782 14.8905 20.8033 14.6393 20.6782 14.3881C20.5532 14.1369 20.3031 14.0113 20.053 14.1369L10.4867 18.7213L0.920518 14.1369C0.670421 14.0741 0.420323 14.1369 0.295275 14.3881C0.23275 14.6393 0.295275 14.8905 0.545372 15.0161L10.3617 19.6632Z" fill="#4C4F50"/>
<path d="M10.5493 13.3833C10.4867 13.3833 10.4242 13.3833 10.3617 13.3205L0.545354 8.67333C0.295256 8.54774 0.232732 8.29654 0.295256 8.04534C0.357781 7.79415 0.670403 7.73135 0.9205 7.79415L10.4867 12.3785L20.053 7.79415C20.3031 7.66855 20.5531 7.79415 20.6782 8.04534C20.8032 8.29654 20.6782 8.54774 20.4281 8.67333L10.6743 13.3205C10.6743 13.3833 10.6118 13.3833 10.5493 13.3833Z" fill="#4C4F50"/>
<path fill-rule="evenodd" clip-rule="evenodd" d="M0.423405 8.91834C0.236478 8.82447 0.109363 8.67606 0.0462516 8.49857C-0.01491 8.32656 -0.0104353 8.14413 0.0306904 7.97891C0.0904666 7.73875 0.271464 7.60234 0.451313 7.54213C0.625842 7.4837 0.820263 7.48662 0.986664 7.5284L1.01324 7.53507L10.4867 12.075L19.9335 7.5479C20.1285 7.4508 20.3365 7.44771 20.5199 7.52667C20.6987 7.60361 20.8361 7.74992 20.9221 7.92284C21.02 8.11947 21.0235 8.32933 20.9445 8.51434C20.8679 8.69387 20.7222 8.83188 20.5501 8.91834L20.545 8.92088L10.8773 13.5269C10.8278 13.5898 10.7661 13.6203 10.7215 13.6353C10.6526 13.6583 10.5776 13.6575 10.554 13.6572C10.5521 13.6572 10.5505 13.6572 10.5493 13.6572C10.5473 13.6572 10.5452 13.6572 10.543 13.6572C10.4795 13.6573 10.3419 13.6576 10.2105 13.5517L0.423405 8.91834ZM10.3617 13.3205C10.4242 13.3833 10.4867 13.3833 10.5493 13.3833C10.6118 13.3833 10.6743 13.3833 10.6743 13.3205L20.4281 8.67333C20.6782 8.54774 20.8033 8.29654 20.6782 8.04534C20.5532 7.79415 20.3031 7.66855 20.053 7.79415L10.4867 12.3785L0.920518 7.79415C0.670421 7.73135 0.357799 7.79415 0.295275 8.04534C0.23275 8.29654 0.295275 8.54774 0.545372 8.67333L10.3617 13.3205Z" fill="#4C4F50"/>
<path d="M20.2406 4.71696L10.7369 0.321025C10.6118 0.258226 10.4868 0.258226 10.3617 0.321025L0.858008 4.71696C0.670434 4.77976 0.60791 4.96816 0.60791 5.15656C0.60791 5.34495 0.732959 5.53335 0.858008 5.59615L10.3617 9.99209C10.4242 9.99209 10.4868 10.0549 10.5493 10.0549C10.6118 10.0549 10.6743 10.0549 10.7369 9.99209L20.2406 5.59615C20.4281 5.53335 20.4907 5.34495 20.4907 5.15656C20.4907 4.96816 20.4281 4.77976 20.2406 4.71696ZM10.5493 9.0501L2.17102 5.15656L10.5493 1.26301L18.9275 5.15656L10.5493 9.0501Z" fill="#4C4F50"/>
<path fill-rule="evenodd" clip-rule="evenodd" d="M0.85803 5.59615C0.732981 5.53335 0.607932 5.34495 0.607932 5.15656C0.607932 4.96816 0.670457 4.77976 0.85803 4.71696L10.3617 0.321025C10.4868 0.258226 10.6118 0.258226 10.7369 0.321025L20.2406 4.71696C20.4282 4.77976 20.4907 4.96816 20.4907 5.15656C20.4907 5.34495 20.4282 5.53335 20.2406 5.59615L10.7369 9.99209C10.6744 10.0549 10.6118 10.0549 10.5493 10.0549C10.518 10.0549 10.4868 10.0392 10.4555 10.0235C10.4243 10.0078 10.393 9.99209 10.3617 9.99209L0.85803 5.59615ZM10.8869 10.2243C10.7559 10.3292 10.6189 10.329 10.5556 10.3288C10.5534 10.3288 10.5513 10.3288 10.5493 10.3288C10.489 10.3288 10.4392 10.3138 10.4067 10.3016C10.3772 10.2905 10.3501 10.2768 10.3361 10.2698L10.3336 10.2685C10.3318 10.2676 10.3301 10.2668 10.3286 10.266H10.302L0.736 5.84128C0.614939 5.78049 0.517834 5.67421 0.452226 5.56439C0.385022 5.45189 0.335205 5.30953 0.335205 5.15656C0.335205 4.93382 0.41006 4.58796 0.755858 4.46264L10.2441 0.0738593C10.4432 -0.0246198 10.6554 -0.0246197 10.8545 0.0738593L20.3428 4.46264C20.6886 4.58796 20.7634 4.93382 20.7634 5.15656C20.7634 5.3793 20.6886 5.72516 20.3428 5.85047L10.8869 10.2243ZM10.5493 8.74828L2.82052 5.15656L10.5493 1.56484L18.2781 5.15656L10.5493 8.74828ZM10.5493 1.26301L2.17104 5.15656L10.5493 9.0501L18.9276 5.15656L10.5493 1.26301Z" fill="#4C4F50"/>
</svg>
