<svg width="15" height="20" viewBox="0 0 15 20" fill="none" xmlns="http://www.w3.org/2000/svg">
<path fill-rule="evenodd" clip-rule="evenodd" d="M1.40625 0.5C0.6296 0.5 0 1.17157 0 2V18C0 18.8284 0.6296 19.5 1.40625 19.5H13.5938C14.3704 19.5 15 18.8284 15 18V2C15 1.17157 14.3704 0.5 13.5938 0.5H1.40625ZM0.9375 2C0.9375 1.72386 1.14737 1.5 1.40625 1.5H8.90625V9L10.3125 8L11.7187 9V1.5H13.5938C13.8526 1.5 14.0625 1.72386 14.0625 2V18C14.0625 18.2761 13.8526 18.5 13.5938 18.5H1.40625C1.14737 18.5 0.9375 18.2761 0.9375 18V2Z" fill="#4C4F50"/>
</svg>
