<svg width="21" height="21" viewBox="0 0 21 21" fill="none" xmlns="http://www.w3.org/2000/svg">
<path d="M3.1409 4.83147H6.79307C7.08525 4.83147 7.30438 4.60548 7.30438 4.30416C7.30438 4.00284 7.08525 3.77686 6.79307 3.77686H3.1409C2.84872 3.77686 2.62959 4.00284 2.62959 4.30416C2.62959 4.60548 2.84872 4.83147 3.1409 4.83147Z" fill="#A9B0B0"/>
<path d="M9.49564 7.5434H14.1339C14.353 7.5434 14.5356 7.35508 14.5356 7.12909V4.15357C14.5356 3.96525 14.353 3.73926 14.1339 3.73926H9.49564C9.27651 3.73926 9.0939 3.92758 9.0939 4.15357V7.12909C9.05738 7.35508 9.27651 7.5434 9.49564 7.5434ZM9.89738 4.56788H13.7322V6.67711H9.89738V4.56788Z" fill="#A9B0B0"/>
<path d="M3.1409 7.54338H6.79307C7.08525 7.54338 7.30438 7.31739 7.30438 7.01608C7.30438 6.71476 7.08525 6.48877 6.79307 6.48877H3.1409C2.84872 6.48877 2.62959 6.71476 2.62959 7.01608C2.62959 7.31739 2.84872 7.54338 3.1409 7.54338Z" fill="#A9B0B0"/>
<path d="M20.4522 6.97834H17.3113V1.02731C17.3113 0.801318 17.0557 0.5 16.8 0.5H0.511304C0.255652 0.5 0 0.763653 0 1.02731V18.0518C0 19.4077 1.05913 20.5 2.37391 20.5H18.6261C19.9409 20.5 21 19.4077 21 18.0518V7.50565C20.9635 7.27966 20.7443 6.97834 20.4522 6.97834ZM2.37391 19.4077C1.64348 19.4077 1.05913 18.8051 1.05913 18.0518V1.59228H16.2522V18.0895C16.2522 18.6168 16.4348 19.0311 16.727 19.4454H2.37391V19.4077ZM19.9043 18.0895C19.9043 18.8428 19.32 19.4454 18.5896 19.4454C17.8591 19.4454 17.2748 18.8428 17.2748 18.0895V8.07062H19.9043V18.0895Z" fill="#A9B0B0"/>
<path d="M14.1705 9.69043H3.1409C2.84872 9.69043 2.62959 9.91642 2.62959 10.2177C2.62959 10.5191 2.84872 10.745 3.1409 10.745H14.1339C14.4261 10.745 14.6452 10.5191 14.6452 10.2177C14.6818 9.91642 14.4261 9.69043 14.1705 9.69043Z" fill="#A9B0B0"/>
<path d="M14.1705 12.6655H3.1409C2.84872 12.6655 2.62959 12.8915 2.62959 13.1928C2.62959 13.4942 2.84872 13.7201 3.1409 13.7201H14.1339C14.4261 13.7201 14.6452 13.4942 14.6452 13.1928C14.6452 12.8915 14.4261 12.6655 14.1705 12.6655Z" fill="#A9B0B0"/>
<path d="M14.1705 15.6411H3.1409C2.84872 15.6411 2.62959 15.8671 2.62959 16.1684C2.62959 16.4697 2.84872 16.6957 3.1409 16.6957H14.1339C14.4261 16.6957 14.6452 16.4697 14.6452 16.1684C14.6818 15.8671 14.4261 15.6411 14.1705 15.6411Z" fill="#A9B0B0"/>
</svg>
