<svg width="30" height="30" viewBox="0 0 30 30" fill="none" xmlns="http://www.w3.org/2000/svg">
<circle cx="15" cy="15" r="15" fill="white"/>
<path d="M15 3C8.38667 3 3 8.38667 3 15C3 21.6133 8.38667 27 15 27C21.6133 27 27 21.6133 27 15C27 8.38667 21.6133 3 15 3ZM15 25.6667C9.10667 25.6667 4.33333 20.8933 4.33333 15C4.33333 9.10667 9.10667 4.33333 15 4.33333C20.8933 4.33333 25.6667 9.10667 25.6667 15C25.6667 20.8933 20.8933 25.6667 15 25.6667Z" fill="#54B162"/>
<path d="M19.7467 14.28C20.5862 14.28 21.2667 13.5995 21.2667 12.76C21.2667 11.9205 20.5862 11.24 19.7467 11.24C18.9072 11.24 18.2267 11.9205 18.2267 12.76C18.2267 13.5995 18.9072 14.28 19.7467 14.28Z" fill="#54B162"/>
<path d="M10.2533 14.28C11.0928 14.28 11.7733 13.5995 11.7733 12.76C11.7733 11.9205 11.0928 11.24 10.2533 11.24C9.41386 11.24 8.73334 11.9205 8.73334 12.76C8.73334 13.5995 9.41386 14.28 10.2533 14.28Z" fill="#54B162"/>
<path d="M19.2933 17.4C16.8933 19.5333 13.1067 19.5333 10.7067 17.4C10.44 17.16 10.0133 17.1867 9.77334 17.4533C9.53334 17.72 9.56001 18.1467 9.82668 18.3867C11.2667 19.6933 13.1333 20.3333 15 20.3333C16.8667 20.3333 18.7333 19.6933 20.1733 18.3867C20.44 18.1467 20.4667 17.72 20.2267 17.4533C19.9867 17.1867 19.56 17.16 19.2933 17.4Z" fill="#54B162"/>
</svg>
