<svg width="17" height="15" viewBox="0 0 17 15" fill="none" xmlns="http://www.w3.org/2000/svg">
<path d="M9.27273 7.85682L6.43939 10.8184V1.26067C6.43939 0.722205 6.05303 0.318359 5.53788 0.318359C5.02273 0.318359 4.63637 0.722205 4.63637 1.26067V11.0876L1.54546 7.85682C1.15909 7.45297 0.64394 7.45297 0.257577 7.85682C0.128789 7.99144 0 8.26067 0 8.5299C0 8.79913 0.128789 9.06836 0.257577 9.20298L4.12121 13.2414L5.28031 14.453L5.40909 14.5876L10.4318 9.33759C10.8182 8.93374 10.8182 8.39528 10.5606 7.99144C10.303 7.58759 9.65909 7.45297 9.27273 7.85682Z" fill="#3A8DDE"/>
<path d="M16.2273 3.01067L13.5227 0.58759C13.3939 0.452974 13.1364 0.318359 12.8788 0.318359C12.6212 0.318359 12.3636 0.318359 12.2348 0.58759L9.53029 3.01067C9.4015 3.14528 9.14393 3.54913 9.53029 3.95297C9.78787 4.22221 10.1742 4.22221 10.4318 3.95297L12.2348 2.20297V8.93374C12.2348 9.33759 12.4924 9.60682 12.8788 9.60682C13.2651 9.60682 13.5227 9.33759 13.5227 8.93374V2.20297L15.3257 3.95297C15.5833 4.22221 15.9697 4.22221 16.2273 3.95297C16.6136 3.54913 16.3561 3.14528 16.2273 3.01067Z" fill="#3A8DDE"/>
</svg>
