<svg width="22" height="26" viewBox="0 0 22 26" fill="none" xmlns="http://www.w3.org/2000/svg">
<path d="M21.1131 4.18889L17.3904 0.173333C17.3106 0.0866667 17.1511 0 17.0181 0H2.39315C2.15383 0 1.9411 0.202222 1.9411 0.462222V8.78222C1.9411 8.89778 2.04746 9.01333 2.15383 9.01333H2.8186C2.92496 9.01333 3.03133 8.89778 3.03133 8.78222V1.35778C3.03133 1.27111 3.1111 1.18444 3.19087 1.18444H16.1141C16.1938 1.18444 16.2736 1.27111 16.2736 1.35778V4.91111C16.2736 5.17111 16.4597 5.37333 16.6991 5.37333H19.9963C20.0761 5.37333 20.1559 5.46 20.1559 5.54667V24.6711C20.1559 24.7578 20.0761 24.8444 19.9963 24.8444H3.21746C3.13769 24.8444 3.05792 24.7578 3.05792 24.6711V19.4133C3.05792 19.2978 2.95156 19.1822 2.84519 19.1822H2.18042C2.07406 19.1822 1.96769 19.2978 1.96769 19.4133V25.5378C1.9411 25.7978 2.15383 26 2.39315 26H20.8472C21.0866 26 21.2727 25.7978 21.2727 25.5378L21.2461 4.59333C21.2461 4.47778 21.1929 4.27556 21.1131 4.18889Z" fill="#4C4F50"/>
<path d="M10.53 12.8557H9.89185V13.8957H10.53C10.6896 13.8957 10.7959 13.8379 10.9023 13.7513C10.9821 13.6646 11.0353 13.549 11.0353 13.3757C11.0353 13.2313 10.9821 13.0868 10.9023 13.0002C10.8225 12.9135 10.6896 12.8557 10.53 12.8557Z" fill="#4C4F50"/>
<path d="M14.3325 10.3135H0.425455C0.186136 10.3135 0 10.5157 0 10.7757V17.4201C0 17.6801 0.186136 17.8824 0.425455 17.8824H14.3325C14.5718 17.8824 14.758 17.6801 14.758 17.4201V10.7757C14.7845 10.5157 14.5718 10.3135 14.3325 10.3135ZM6.40841 16.0624C6.40841 16.1201 6.38182 16.149 6.35523 16.1779C6.32864 16.2068 6.30205 16.2068 6.24886 16.2068H3.29727C3.24409 16.2068 3.2175 16.1779 3.19091 16.149C3.16432 16.1201 3.13773 16.0913 3.13773 16.0335V15.4268C3.13773 15.369 3.13773 15.3401 3.16432 15.3113C3.19091 15.2824 3.19091 15.2535 3.2175 15.2246L4.99909 12.9135H3.32386C3.29727 12.9135 3.24409 12.8846 3.2175 12.8557C3.19091 12.8268 3.16432 12.7979 3.16432 12.7401V12.1335C3.16432 12.0757 3.16432 12.0468 3.19091 12.0179C3.2175 11.989 3.24409 11.9601 3.29727 11.9601H6.1425C6.19568 11.9601 6.22227 11.989 6.24886 12.0179C6.27545 12.0468 6.30205 12.0757 6.30205 12.1335V12.7401C6.30205 12.8268 6.27545 12.8846 6.22227 12.9424L4.52045 15.2535H6.22227C6.27545 15.2535 6.30204 15.2824 6.32864 15.3113C6.35523 15.3401 6.38182 15.369 6.38182 15.4268V16.0624H6.40841ZM8.05704 16.0624C8.05704 16.0913 8.05705 16.149 8.03045 16.1779C8.00386 16.2068 7.97727 16.2357 7.92409 16.2357H7.12636C7.09977 16.2357 7.04659 16.2068 7.02 16.1779C6.99341 16.149 6.96682 16.1201 6.96682 16.0624V12.1335C6.96682 12.0757 6.99341 12.0468 7.02 12.0179C7.04659 11.989 7.07318 11.989 7.12636 11.989H7.92409C7.97727 11.989 8.00386 11.989 8.03045 12.0179C8.05705 12.0468 8.05704 12.0757 8.05704 12.1335V16.0624ZM11.7 14.4157C11.4341 14.6468 11.0352 14.7624 10.5566 14.7624H9.91841V16.0624C9.91841 16.0913 9.91841 16.149 9.89182 16.1779C9.86523 16.2068 9.83864 16.2357 9.78545 16.2357H8.98773C8.96114 16.2357 8.90795 16.2068 8.88136 16.1779C8.85477 16.149 8.82818 16.1201 8.82818 16.0624V12.1335C8.82818 12.0757 8.82818 12.0468 8.85477 12.0179C8.88136 11.989 8.90795 11.9601 8.96114 11.9601H10.53C11.0086 11.9601 11.3809 12.0757 11.6734 12.3068C11.9393 12.5379 12.0989 12.8846 12.0989 13.3468C12.0989 13.8379 11.9659 14.1846 11.7 14.4157Z" fill="#4C4F50"/>
</svg>
