<svg width="32" height="23" viewBox="0 0 32 23" stroke="currentColor" fill="none" xmlns="http://www.w3.org/2000/svg">
  <path d="M25.3913 5.18929V6.77049C26.1403 6.93694 26.8893 7.35304 27.3886 7.93559L28.8034 7.10338L29.8853 9.01747L28.4705 9.84969C28.5537 10.1826 28.6369 10.5987 28.6369 11.0148C28.6369 11.4309 28.5537 11.847 28.4705 12.1799L29.8853 13.0121L28.8034 14.9262L27.3886 14.094C26.8061 14.6765 26.1403 15.0926 25.3913 15.2591V16.8403H23.2275V15.2591C22.4785 15.0926 21.7296 14.6765 21.2302 14.094L19.8155 14.9262L18.7336 13.0121L20.1483 12.1799C20.0651 11.847 19.9819 11.4309 19.9819 11.0148C19.9819 10.5987 20.0651 10.1826 20.1483 9.84969L18.7336 9.01747L19.8155 7.10338L21.2302 7.93559C21.8128 7.35304 22.4785 6.93694 23.2275 6.77049V5.18929H25.3913ZM25.3913 3.94096H23.2275C22.5618 3.94096 21.9792 4.52351 21.9792 5.18929V5.93828C21.6463 6.10472 21.3967 6.27116 21.0638 6.43761L20.398 6.10472C20.2316 6.0215 19.9819 5.93828 19.7322 5.93828C19.649 5.93828 19.4826 5.93828 19.3993 6.0215C19.0665 6.10472 18.8168 6.35439 18.6504 6.60405L17.5685 8.51814C17.402 8.76781 17.3188 9.18392 17.4853 9.43358C17.5685 9.76647 17.8181 10.0161 18.0678 10.1826L18.6504 10.5155C18.6504 10.6819 18.6504 10.8483 18.6504 11.0148C18.6504 11.1812 18.6504 11.3477 18.6504 11.5141L18.0678 11.847C17.8181 12.0134 17.5685 12.2631 17.4853 12.596C17.402 12.9289 17.4853 13.2618 17.5685 13.5114L18.6504 15.4255C18.8168 15.6752 19.0665 15.9249 19.3993 16.0081C19.4826 16.0081 19.649 16.0913 19.7322 16.0913C19.9819 16.0913 20.1483 16.0081 20.398 15.9249L21.0638 15.592C21.3134 15.7584 21.6463 16.0081 21.9792 16.0913V16.8403C21.9792 17.5061 22.5618 18.0886 23.2275 18.0886H25.3913C26.0571 18.0886 26.6396 17.5061 26.6396 16.8403V16.0913C26.9725 15.9249 27.2222 15.7584 27.5551 15.592L28.2208 15.9249C28.3873 16.0081 28.6369 16.0913 28.8034 16.0913C29.2195 16.0913 29.6356 15.8416 29.8853 15.4255L30.9671 13.5114C31.3 12.9289 31.1336 12.1799 30.551 11.847L29.9685 11.5141C29.9685 11.3477 29.9685 11.1812 29.9685 11.0148C29.9685 10.8483 29.9685 10.6819 29.9685 10.5155L30.551 10.1826C31.1336 9.84969 31.3832 9.10069 30.9671 8.51814L29.8853 6.60405C29.6356 6.18794 29.2195 5.93828 28.8034 5.93828C28.5537 5.93828 28.3873 6.0215 28.2208 6.10472L27.5551 6.43761C27.3054 6.27116 26.9725 6.0215 26.6396 5.93828V5.18929C26.6396 4.52351 26.0571 3.94096 25.3913 3.94096Z" fill="currentColor"/>
  <path d="M9.57929 8.10204C10.7444 8.10204 11.6598 7.1866 11.6598 6.0215C11.6598 4.8564 10.7444 3.94096 9.57929 3.94096C8.41419 3.94096 7.49875 4.8564 7.49875 6.0215C7.49875 7.1866 8.41419 8.10204 9.57929 8.10204ZM9.57929 9.1007C8.16452 9.1007 5.41821 9.76647 5.41821 11.1812V12.1799H13.7404V11.1812C13.7404 9.76647 10.9108 9.1007 9.57929 9.1007Z" fill="currentColor"/>
  <path d="M24.3094 12.8456C25.3205 12.8456 26.1403 12.0259 26.1403 11.0148C26.1403 10.0036 25.3205 9.18388 24.3094 9.18388C23.2982 9.18388 22.4785 10.0036 22.4785 11.0148C22.4785 12.0259 23.2982 12.8456 24.3094 12.8456Z" stroke-width="1.3" stroke-miterlimit="10" stroke-linecap="round" stroke-linejoin="round"/>
  <path d="M27.8879 17.8389V21.1678C27.8879 21.6671 27.4718 22.0832 26.8893 22.0832H2.17249C1.58994 22.0832 1.17383 21.6671 1.17383 21.1678V1.69397C1.17383 1.19464 1.58994 0.778534 2.17249 0.778534H26.5564C27.2221 0.778534 27.8047 1.27786 27.8047 1.94363V4.19061" stroke-width="1.3" stroke-miterlimit="10" stroke-linecap="round" stroke-linejoin="round"/>
  <path d="M4.58582 14.7598H14.5724" stroke-width="1.3" stroke-miterlimit="10" stroke-linecap="round" stroke-linejoin="round"/>
  <path d="M4.58582 18.0886H14.5724" stroke-width="1.3" stroke-miterlimit="10" stroke-linecap="round" stroke-linejoin="round"/>
</svg>
