<svg version="1.1" xmlns="http://www.w3.org/2000/svg" xmlns:xlink="http://www.w3.org/1999/xlink" width="40px" height="35.6px"
     viewBox="0 0 40 35.6" fill="currentColor">
<path opacity="0.4" d="M24.4,20H11.3l-5.7,4.3c-0.3,0.2-0.7,0.2-0.9-0.1c-0.1-0.1-0.1-0.3-0.1-0.4V20C2,20,0,18,0,15.6V4.4
	C0,2,2,0,4.4,0h20c2.5,0,4.4,2,4.4,4.4v11.1C28.9,18,26.9,20,24.4,20C24.5,20,24.4,20,24.4,20z"/>
  <path d="M40,15.6v11.1c0,2.5-2,4.4-4.4,4.4h-2.2v3.8c0,0.4-0.3,0.7-0.7,0.7c-0.1,0-0.3,0-0.4-0.1l-5.8-4.3h-8.7
	c-2.5,0-4.4-2-4.4-4.4v-4.4h11.1c3.7,0,6.7-3,6.7-6.7v-4.4h4.4C38,11.1,40,13.1,40,15.6z"/>
  <path d="M20.1,7.8l-3.4-0.5l-1.5-3.1c-0.2-0.4-0.6-0.5-1-0.3c-0.1,0.1-0.3,0.2-0.3,0.3l-1.5,3.1L8.8,7.8C8.2,7.9,7.9,8.7,8.4,9.1
	l2.5,2.4l-0.6,3.4c-0.1,0.5,0.3,0.9,0.7,0.9c0.1,0,0.2,0,0.3-0.1l3.1-1.6l3.1,1.6c0.1,0.1,0.2,0.1,0.3,0.1c0.4,0,0.8-0.4,0.7-0.9
	L18,11.5l2.5-2.4C20.9,8.7,20.7,7.9,20.1,7.8z"/>
</svg>
