<svg width="35" height="45" viewBox="0 0 35 45" fill="none" xmlns="http://www.w3.org/2000/svg">
<path d="M24.39 0H1.17C0.519998 0 0 0.52 0 1.54V44C0 44.28 0.519998 44.8 1.17 44.8H33.23C33.87 44.8 34.4 44.28 34.4 44V10.38C34.4 9.82 34.33 9.64 34.2 9.51L24.89 0.2C24.75 0.07 24.57 0 24.39 0Z" fill="#EFF0F0"/>
<path d="M24.8 0.119995V9.6H34.28L24.8 0.119995Z" fill="#D3D6D7"/>
<path d="M33.23 44.8H1.17C0.519998 44.8 0 44.28 0 43.63V31.2H34.4V43.63C34.4 44.28 33.88 44.8 33.23 44.8Z" fill="#71B3EA"/>
<path d="M13.6601 41.58C13.3601 41.87 13.0201 42.09 12.6401 42.24C12.2601 42.39 11.8501 42.46 11.4101 42.46C10.9301 42.46 10.4901 42.37 10.0801 42.2C9.67006 42.03 9.32007 41.77 9.02007 41.42C8.72007 41.08 8.48006 40.65 8.31006 40.13C8.14006 39.61 8.06006 39.01 8.06006 38.34C8.06006 37.66 8.15006 37.07 8.31006 36.55C8.48006 36.03 8.72007 35.61 9.02007 35.27C9.33007 34.93 9.68006 34.67 10.0901 34.49C10.5001 34.31 10.9401 34.22 11.4101 34.22C11.8501 34.22 12.2601 34.29 12.6401 34.44C13.0201 34.58 13.3601 34.81 13.6601 35.1L12.7501 35.91C12.5701 35.7 12.3601 35.55 12.1401 35.45C11.9201 35.36 11.6901 35.31 11.4401 35.31C11.1701 35.31 10.9201 35.36 10.6701 35.46C10.4201 35.57 10.2001 35.74 10.0101 35.98C9.82006 36.23 9.67006 36.54 9.56006 36.93C9.45006 37.32 9.39007 37.79 9.38007 38.35C9.39007 38.9 9.44006 39.36 9.55006 39.75C9.66006 40.14 9.80007 40.45 9.99007 40.7C10.1801 40.95 10.3901 41.12 10.6301 41.24C10.8601 41.36 11.1101 41.41 11.3801 41.41C11.6401 41.41 11.8901 41.36 12.1201 41.27C12.3501 41.18 12.5601 41.02 12.7501 40.81L13.6601 41.58Z" fill="white"/>
<path d="M20.1099 40.19C20.1099 40.48 20.0499 40.77 19.9299 41.04C19.8099 41.31 19.6399 41.56 19.4199 41.76C19.1999 41.97 18.9299 42.13 18.6099 42.26C18.2899 42.39 17.9299 42.44 17.5199 42.44C17.3499 42.44 17.1699 42.43 16.9799 42.41C16.7899 42.39 16.5999 42.36 16.4199 42.32C16.2299 42.28 16.0499 42.21 15.8799 42.14C15.7099 42.06 15.5599 41.97 15.4399 41.86L15.6699 40.92C15.7799 40.98 15.9099 41.04 16.0599 41.09C16.2199 41.14 16.3799 41.2 16.5399 41.24C16.7099 41.29 16.8799 41.33 17.0399 41.35C17.2099 41.38 17.3599 41.39 17.5099 41.39C17.9599 41.39 18.2999 41.29 18.5299 41.08C18.7699 40.87 18.8899 40.56 18.8899 40.15C18.8899 39.9 18.8099 39.69 18.6399 39.52C18.4699 39.34 18.2599 39.18 18.0099 39.04C17.7599 38.89 17.4899 38.75 17.1899 38.61C16.8999 38.46 16.6299 38.3 16.3699 38.11C16.1199 37.91 15.9099 37.69 15.7399 37.43C15.5699 37.17 15.4899 36.84 15.4899 36.45C15.4899 36.09 15.5599 35.77 15.6899 35.5C15.8199 35.23 15.9999 34.99 16.2199 34.8C16.4399 34.6 16.6999 34.46 16.9899 34.35C17.2899 34.25 17.5999 34.2 17.9299 34.2C18.2699 34.2 18.6099 34.23 18.9499 34.29C19.2899 34.35 19.5699 34.45 19.7799 34.59C19.7399 34.68 19.6899 34.79 19.6299 34.9C19.5699 35.01 19.5199 35.12 19.4699 35.22C19.4199 35.32 19.3799 35.4 19.3399 35.47C19.3099 35.54 19.2799 35.57 19.2799 35.58C19.2299 35.56 19.1899 35.53 19.1299 35.49C19.0699 35.45 18.9999 35.42 18.8899 35.38C18.7899 35.34 18.6599 35.32 18.4899 35.3C18.3199 35.28 18.1099 35.29 17.8399 35.31C17.6899 35.33 17.5599 35.36 17.4199 35.43C17.2899 35.5 17.1699 35.59 17.0699 35.69C16.9699 35.79 16.8899 35.9 16.8299 36.03C16.7699 36.16 16.7399 36.28 16.7399 36.4C16.7399 36.69 16.8299 36.93 16.9899 37.11C17.1599 37.29 17.3699 37.44 17.6099 37.58C17.8599 37.72 18.1299 37.85 18.4199 37.97C18.7099 38.09 18.9899 38.25 19.2399 38.43C19.4899 38.61 19.6999 38.84 19.8699 39.11C20.0199 39.41 20.1099 39.76 20.1099 40.19Z" fill="white"/>
<path d="M26.03 40.19C26.03 40.48 25.97 40.77 25.85 41.04C25.73 41.31 25.56 41.56 25.34 41.76C25.12 41.97 24.85 42.13 24.53 42.26C24.21 42.39 23.85 42.44 23.44 42.44C23.27 42.44 23.09 42.43 22.9 42.41C22.72 42.39 22.53 42.36 22.34 42.32C22.15 42.28 21.97 42.21 21.8 42.14C21.63 42.06 21.48 41.97 21.36 41.86L21.59 40.92C21.69 40.98 21.82 41.04 21.98 41.09C22.14 41.14 22.3 41.2 22.47 41.24C22.64 41.29 22.81 41.33 22.97 41.35C23.14 41.38 23.29 41.39 23.44 41.39C23.88 41.39 24.23 41.29 24.46 41.08C24.7 40.87 24.82 40.56 24.82 40.15C24.82 39.9 24.73 39.69 24.57 39.52C24.4 39.34 24.19 39.18 23.94 39.04C23.69 38.89 23.42 38.75 23.13 38.61C22.84 38.46 22.56 38.3 22.31 38.11C22.05 37.91 21.84 37.69 21.67 37.43C21.5 37.17 21.42 36.84 21.42 36.45C21.42 36.09 21.49 35.77 21.62 35.5C21.75 35.23 21.93 34.99 22.15 34.8C22.37 34.6 22.63 34.46 22.93 34.35C23.23 34.25 23.54 34.2 23.86 34.2C24.2 34.2 24.54 34.23 24.88 34.29C25.22 34.35 25.5 34.45 25.71 34.59C25.66 34.68 25.61 34.79 25.55 34.9C25.49 35.01 25.44 35.12 25.39 35.22C25.34 35.32 25.3 35.4 25.26 35.47C25.22 35.54 25.2 35.57 25.19 35.58C25.15 35.56 25.1 35.53 25.04 35.49C24.99 35.45 24.91 35.42 24.81 35.38C24.71 35.34 24.57 35.32 24.4 35.3C24.23 35.28 24.02 35.29 23.75 35.31C23.61 35.33 23.47 35.36 23.34 35.43C23.21 35.5 23.09 35.59 22.99 35.69C22.89 35.79 22.81 35.9 22.75 36.03C22.69 36.16 22.66 36.28 22.66 36.4C22.66 36.69 22.74 36.93 22.91 37.11C23.08 37.29 23.29 37.44 23.53 37.58C23.78 37.72 24.05 37.85 24.34 37.97C24.63 38.09 24.9 38.25 25.16 38.43C25.41 38.61 25.62 38.84 25.79 39.11C25.95 39.41 26.03 39.76 26.03 40.19Z" fill="white"/>
<path d="M10.4 15.2V12C10.4 11.56 10.76 11.2 11.2 11.2C11.64 11.2 12 10.84 12 10.4C12 9.95997 11.64 9.59998 11.2 9.59998C9.88003 9.59998 8.80003 10.67 8.80003 12V15.2C8.80003 16.08 8.08003 16.8 7.20003 16.8C6.76003 16.8 6.40002 17.16 6.40002 17.6C6.40002 18.04 6.76003 18.4 7.20003 18.4C8.08003 18.4 8.80003 19.12 8.80003 20V23.2C8.80003 24.52 9.87003 25.6 11.2 25.6C11.64 25.6 12 25.24 12 24.8C12 24.36 11.64 24 11.2 24C10.76 24 10.4 23.64 10.4 23.2V20C10.4 19.04 9.97003 18.19 9.30003 17.6C9.96003 17.01 10.4 16.16 10.4 15.2Z" fill="#71B3EA"/>
<path d="M26.4 16.8C25.52 16.8 24.8 16.08 24.8 15.2V12C24.8 10.68 23.72 9.59998 22.4 9.59998C21.96 9.59998 21.6 9.95997 21.6 10.4C21.6 10.84 21.96 11.2 22.4 11.2C22.84 11.2 23.2 11.56 23.2 12V15.2C23.2 16.16 23.63 17.01 24.31 17.6C23.64 18.19 23.2 19.04 23.2 20V23.2C23.2 23.64 22.84 24 22.4 24C21.96 24 21.6 24.36 21.6 24.8C21.6 25.24 21.96 25.6 22.4 25.6C23.73 25.6 24.8 24.52 24.8 23.2V20C24.8 19.12 25.52 18.4 26.4 18.4C26.85 18.4 27.2 18.04 27.2 17.6C27.2 17.16 26.84 16.8 26.4 16.8Z" fill="#71B3EA"/>
</svg>
