<svg width="35" height="45" viewBox="0 0 35 45" fill="none" xmlns="http://www.w3.org/2000/svg">
<path d="M24.39 0H1.17C0.519998 0 0 0.520001 0 1.54V44C0 44.28 0.519998 44.8 1.17 44.8H33.23C33.87 44.8 34.4 44.28 34.4 44V10.38C34.4 9.82 34.33 9.64 34.2 9.51L24.89 0.199997C24.75 0.079997 24.57 0 24.39 0Z" fill="#EFF0F0"/>
<path d="M24.8 0.119995V9.59999H34.28L24.8 0.119995Z" fill="#D3D6D7"/>
<path d="M33.23 44.8H1.17C0.519998 44.8 0 44.28 0 43.63V31.2H34.4V43.63C34.4 44.28 33.88 44.8 33.23 44.8Z" fill="#D3D6D7"/>
<path d="M12 37.6C12 38.92 10.93 40 9.59996 40C8.26996 40 7.19995 38.93 7.19995 37.6C7.19995 36.27 8.26996 35.2 9.59996 35.2C10.93 35.2 12 36.28 12 37.6Z" fill="white"/>
<path d="M20 37.6C20 38.92 18.93 40 17.6 40C16.27 40 15.2 38.93 15.2 37.6C15.2 36.27 16.27 35.2 17.6 35.2C18.93 35.2 20 36.28 20 37.6Z" fill="white"/>
<path d="M28 37.6C28 38.92 26.93 40 25.6 40C24.27 40 23.2 38.93 23.2 37.6C23.2 36.27 24.27 35.2 25.6 35.2C26.93 35.2 28 36.28 28 37.6Z" fill="white"/>
</svg>
