<svg width="35" height="45" viewBox="0 0 35 45" fill="none" xmlns="http://www.w3.org/2000/svg">
<path d="M24.38 0H1.17C0.519998 0 0 0.519993 0 1.53999V44C0 44.28 0.519998 44.8 1.17 44.8H33.23C33.87 44.8 34.4 44.28 34.4 44V10.39C34.4 9.83 34.33 9.64999 34.2 9.51999L24.89 0.209991C24.75 0.0799915 24.57 0 24.38 0Z" fill="#EFF0F0"/>
<path d="M24.79 0.130005V9.61002H34.27L24.79 0.130005Z" fill="#D3D6D7"/>
<path d="M33.22 44.81H1.17C0.519998 44.81 0 44.29 0 43.64V31.21H34.4V43.64C34.39 44.28 33.87 44.81 33.22 44.81Z" fill="#CC5E48"/>
<path d="M8.76 34.34V42.4H7.45V38.77H3.96V42.4H2.63V34.34H3.96V37.87H7.45V34.34H8.76Z" fill="white"/>
<path d="M16.48 34.34V35.23H14.07V42.39H12.75V35.23H10.34V34.34H16.48Z" fill="white"/>
<path d="M24.16 34.34H25.5V42.4H24.16V36.86L22.35 41.35H21.19L19.37 36.86V42.4H18.04V34.34H19.37L21.76 39.85L24.16 34.34Z" fill="white"/>
<path d="M28.85 34.34V41.41H32.56V42.4H27.52V34.34H28.85Z" fill="white"/>
<path d="M13.36 13.04C13.05 12.73 12.54 12.73 12.23 13.04L7.43001 17.84C7.12001 18.15 7.12001 18.66 7.43001 18.97L12.23 23.77C12.39 23.93 12.59 24 12.8 24C13 24 13.21 23.92 13.37 23.77C13.68 23.46 13.68 22.95 13.37 22.64L9.14001 18.41L13.37 14.18C13.67 13.86 13.67 13.35 13.36 13.04Z" fill="#CC5E48"/>
<path d="M27.76 17.84L22.96 13.04C22.65 12.73 22.14 12.73 21.83 13.04C21.52 13.35 21.52 13.86 21.83 14.17L26.06 18.4L21.83 22.63C21.52 22.94 21.52 23.45 21.83 23.76C21.99 23.92 22.19 23.99 22.39 23.99C22.6 23.99 22.8 23.91 22.96 23.76L27.76 18.96C28.07 18.66 28.07 18.15 27.76 17.84Z" fill="#CC5E48"/>
</svg>
