<svg width="35" height="45" viewBox="0 0 35 45" fill="none" xmlns="http://www.w3.org/2000/svg">
<path d="M24.39 0H1.17C0.52 0 0 0.520009 0 1.54001V44C0 44.28 0.52 44.8 1.17 44.8H33.23C33.87 44.8 34.4 44.28 34.4 44V10.38C34.4 9.82 34.33 9.64001 34.2 9.51001L24.89 0.200012C24.75 0.0700122 24.57 0 24.39 0Z" fill="#EFF0F0"/>
<path d="M24.8 0.119995V9.60001H34.28L24.8 0.119995Z" fill="#D3D6D7"/>
<path d="M13.6 11.54C13.6 13.56 11.96 15.2 9.94003 15.2C7.92003 15.2 6.28003 13.56 6.28003 11.54C6.28003 9.52001 7.92003 7.89001 9.94003 7.89001C11.96 7.89001 13.6 9.53001 13.6 11.54Z" fill="#F9CC67"/>
<path d="M0 31.2H34.4V22.4L26.4 14.8L18 24L13.61 19.61L0 31.2Z" fill="#62BCB5"/>
<path d="M33.23 44.8H1.17C0.52 44.8 0 44.28 0 43.63V31.2H34.4V43.63C34.4 44.28 33.88 44.8 33.23 44.8Z" fill="#00A19A"/>
<path d="M11.94 34.12V40.4C11.94 40.78 11.87 41.1 11.73 41.36C11.59 41.62 11.4 41.82 11.17 41.98C10.93 42.14 10.67 42.25 10.37 42.31C10.06 42.37 9.76001 42.4 9.44001 42.4C9.27001 42.4 9.09001 42.39 8.87001 42.35C8.65001 42.31 8.43001 42.26 8.21001 42.2C7.98001 42.13 7.76001 42.05 7.55001 41.96C7.34001 41.87 7.16001 41.78 7.01001 41.67L7.57001 40.78C7.64001 40.83 7.75001 40.89 7.88001 40.94C8.01001 41 8.16001 41.05 8.32001 41.09C8.48001 41.14 8.65001 41.18 8.82001 41.22C9.00001 41.25 9.16001 41.27 9.31001 41.27C9.70001 41.27 10.01 41.2 10.23 41.04C10.46 40.89 10.58 40.64 10.6 40.28V34.11H11.94V34.12Z" fill="white"/>
<path d="M15.2099 42.34H13.8999V34.28H16.2199C16.5599 34.28 16.8999 34.33 17.2399 34.44C17.5799 34.55 17.8799 34.71 18.1399 34.93C18.4099 35.15 18.6199 35.41 18.7799 35.72C18.9399 36.03 19.0299 36.38 19.0299 36.76C19.0299 37.17 18.9599 37.54 18.8199 37.87C18.6799 38.2 18.4899 38.48 18.2399 38.71C17.9899 38.93 17.6899 39.11 17.3499 39.23C16.9999 39.35 16.6099 39.41 16.1899 39.41H15.2199V42.34H15.2099ZM15.2099 35.28V38.47H16.4099C16.5699 38.47 16.7299 38.44 16.8899 38.39C17.0499 38.34 17.1899 38.25 17.3199 38.12C17.4499 38 17.5499 37.82 17.6399 37.6C17.7199 37.38 17.7599 37.1 17.7599 36.77C17.7599 36.64 17.7399 36.49 17.6999 36.32C17.6699 36.15 17.5899 35.98 17.4799 35.83C17.3699 35.67 17.2099 35.54 16.9999 35.44C16.7999 35.33 16.5299 35.28 16.1899 35.28H15.2099Z" fill="white"/>
<path d="M26.4001 38.19V41.31C26.2301 41.53 26.0401 41.7 25.8401 41.83C25.6301 41.97 25.4101 42.08 25.1801 42.17C24.9501 42.26 24.7101 42.32 24.4701 42.35C24.2301 42.39 23.9901 42.4 23.7401 42.4C23.2601 42.4 22.8201 42.31 22.4101 42.14C22.0001 41.96 21.6501 41.71 21.3501 41.36C21.0501 41.02 20.8101 40.59 20.6401 40.07C20.4701 39.56 20.3901 38.95 20.3901 38.28C20.3901 37.6 20.4701 37.01 20.6401 36.49C20.8101 35.97 21.0501 35.55 21.3501 35.2C21.6501 34.86 22.0101 34.6 22.4201 34.42C22.8301 34.24 23.2701 34.15 23.7401 34.15C24.1801 34.15 24.5901 34.22 24.9701 34.37C25.3501 34.52 25.6801 34.74 25.9801 35.03L25.0701 35.84C24.9001 35.63 24.6901 35.48 24.4701 35.38C24.2401 35.29 24.0101 35.24 23.7701 35.24C23.5001 35.24 23.2401 35.29 23.0001 35.4C22.7501 35.5 22.5301 35.67 22.3401 35.92C22.1401 36.17 22.0001 36.48 21.8901 36.87C21.7801 37.26 21.7201 37.73 21.7101 38.29C21.7201 38.84 21.7701 39.31 21.8801 39.71C21.9801 40.11 22.1301 40.44 22.3201 40.69C22.5101 40.95 22.7201 41.13 22.9601 41.26C23.1901 41.38 23.4401 41.45 23.7101 41.45C23.7901 41.45 23.9001 41.44 24.0301 41.43C24.1701 41.42 24.3001 41.4 24.4401 41.38C24.5701 41.36 24.7001 41.32 24.8301 41.28C24.9501 41.24 25.0401 41.17 25.1001 41.09V39.1H23.7301V38.2H26.4001V38.19Z" fill="white"/>
</svg>
