<svg width="35" height="45" viewBox="0 0 35 45" fill="none" xmlns="http://www.w3.org/2000/svg">
<path d="M24.38 0H1.17C0.519998 0 0 0.520009 0 1.54001V44C0 44.28 0.519998 44.8 1.17 44.8H33.23C33.87 44.8 34.4 44.28 34.4 44V10.38C34.4 9.82 34.33 9.64001 34.2 9.51001L24.89 0.200012C24.75 0.0700122 24.57 0 24.38 0Z" fill="#EFF0F0"/>
<path d="M33.22 44.8H1.17C0.519998 44.8 0 44.28 0 43.63V31.2H34.4V43.63C34.39 44.27 33.87 44.8 33.22 44.8Z" fill="#BA2F43"/>
<path d="M12.71 34.34H14.05V42.4H12.71V36.86L10.9 41.35H9.73996L7.91996 36.86V42.4H6.57996V34.34H7.91996L10.32 39.85L12.71 34.34Z" fill="white"/>
<path d="M17.36 42.39H16.05V34.33H18.37C18.71 34.33 19.0501 34.39 19.3901 34.49C19.7301 34.6 20.03 34.76 20.29 34.98C20.56 35.2 20.77 35.46 20.93 35.77C21.09 36.08 21.18 36.43 21.18 36.81C21.18 37.22 21.11 37.59 20.97 37.92C20.83 38.25 20.6401 38.53 20.3901 38.76C20.1401 38.98 19.8401 39.16 19.4901 39.28C19.1401 39.4 18.76 39.47 18.33 39.47H17.36V42.39ZM17.36 35.33V38.52H18.5601C18.7201 38.52 18.88 38.49 19.04 38.44C19.2 38.39 19.34 38.3 19.47 38.17C19.6 38.05 19.71 37.87 19.79 37.65C19.87 37.43 19.91 37.15 19.91 36.82C19.91 36.69 19.8901 36.54 19.8501 36.37C19.8101 36.2 19.74 36.03 19.62 35.88C19.51 35.72 19.35 35.59 19.15 35.48C18.94 35.37 18.67 35.32 18.34 35.32H17.36V35.33Z" fill="white"/>
<path d="M25.58 40.52H22.09V39.48L25.58 34.34H26.92V39.48H27.76V40.52H26.92V42.4H25.58V40.52ZM25.58 39.48V35.87L23.26 39.48H25.58Z" fill="white"/>
<path d="M14.39 22.39C14.26 22.39 14.13 22.36 14.01 22.29C13.75 22.15 13.6 21.88 13.6 21.59V10.39C13.6 10.1 13.76 9.82998 14.01 9.68998C14.27 9.54998 14.58 9.55998 14.83 9.71998L23.63 15.32C23.86 15.47 24 15.72 24 16C24 16.28 23.86 16.53 23.63 16.68L14.83 22.28C14.69 22.35 14.54 22.39 14.39 22.39ZM15.19 11.85V20.14L21.7 16L15.19 11.85Z" fill="#A9B0B0"/>
<path d="M17.6 28C10.98 28 5.59998 22.62 5.59998 16C5.59998 9.38 10.98 4 17.6 4C24.22 4 29.6 9.38 29.6 16C29.6 22.62 24.21 28 17.6 28ZM17.6 5.60001C11.86 5.60001 7.19998 10.26 7.19998 16C7.19998 21.73 11.87 26.4 17.6 26.4C23.33 26.4 28 21.74 28 16C27.99 10.26 23.33 5.60001 17.6 5.60001Z" fill="#A9B0B0"/>
<path d="M24.79 0.119995V9.59999H34.27L24.79 0.119995Z" fill="#D3D6D7"/>
</svg>
