<svg width="35" height="45" viewBox="0 0 35 45" fill="none" xmlns="http://www.w3.org/2000/svg">
<path d="M24.39 0H1.17C0.52 0 0 0.519993 0 1.53999V44C0 44.28 0.52 44.8 1.17 44.8H33.23C33.87 44.8 34.4 44.28 34.4 44V10.39C34.4 9.83 34.33 9.64999 34.2 9.51999L24.89 0.209991C24.75 0.0799915 24.57 0 24.39 0Z" fill="#EFF0F0"/>
<path d="M24.8 0.130005V9.61002H34.28L24.8 0.130005Z" fill="#D3D6D7"/>
<path d="M33.23 44.81H1.17C0.52 44.81 0 44.29 0 43.64V31.21H34.4V43.64C34.4 44.28 33.88 44.81 33.23 44.81Z" fill="#EC6C4E"/>
<path d="M8.86005 42.4H7.55005V34.34H9.87005C10.21 34.34 10.55 34.4 10.89 34.5C11.23 34.61 11.53 34.77 11.79 34.99C12.06 35.21 12.27 35.47 12.43 35.78C12.59 36.09 12.68 36.44 12.68 36.82C12.68 37.23 12.61 37.6 12.47 37.93C12.33 38.26 12.14 38.54 11.89 38.77C11.64 38.99 11.34 39.17 10.99 39.29C10.64 39.41 10.26 39.48 9.83005 39.48H8.86005V42.4ZM8.86005 35.34V38.53H10.06C10.22 38.53 10.38 38.5 10.54 38.45C10.7 38.4 10.84 38.31 10.97 38.18C11.1 38.06 11.2 37.88 11.29 37.66C11.37 37.44 11.41 37.16 11.41 36.83C11.41 36.7 11.39 36.55 11.36 36.38C11.32 36.21 11.25 36.04 11.13 35.89C11.02 35.73 10.86 35.6 10.66 35.49C10.45 35.38 10.18 35.33 9.85005 35.33H8.86005V35.34Z" fill="white"/>
<path d="M15.48 42.4H14.17V34.34H16.49C16.83 34.34 17.17 34.4 17.51 34.5C17.85 34.61 18.15 34.77 18.41 34.99C18.68 35.21 18.9 35.47 19.06 35.78C19.22 36.09 19.31 36.44 19.31 36.82C19.31 37.23 19.24 37.6 19.1 37.93C18.96 38.26 18.77 38.54 18.52 38.77C18.27 38.99 17.97 39.17 17.62 39.29C17.27 39.41 16.89 39.48 16.46 39.48H15.48V42.4ZM15.48 35.34V38.53H16.69C16.85 38.53 17.01 38.5 17.16 38.45C17.32 38.4 17.46 38.31 17.59 38.18C17.72 38.06 17.83 37.88 17.91 37.66C17.99 37.44 18.03 37.16 18.03 36.83C18.03 36.7 18.01 36.55 17.98 36.38C17.94 36.21 17.87 36.04 17.76 35.89C17.64 35.73 17.49 35.6 17.28 35.49C17.07 35.38 16.8 35.33 16.47 35.33H15.48V35.34Z" fill="white"/>
<path d="M26.48 34.34V35.23H24.07V42.39H22.75V35.23H20.34V34.34H26.48Z" fill="white"/>
<path d="M26.4 24H7.19995V11.2H26.4V24ZM8.79995 22.4H24.7999V12.8H8.79995V22.4Z" fill="#A9B0B0"/>
<path d="M11.2 28C11.06 28 10.92 27.96 10.79 27.89C10.41 27.66 10.29 27.17 10.51 26.79L12.91 22.79C13.14 22.41 13.63 22.29 14.01 22.51C14.39 22.74 14.51 23.23 14.28 23.61L11.88 27.61C11.73 27.87 11.47 28 11.2 28Z" fill="#A9B0B0"/>
<path d="M22.4 28C22.13 28 21.86 27.86 21.71 27.61L19.31 23.61C19.08 23.23 19.21 22.74 19.59 22.51C19.97 22.28 20.46 22.4 20.69 22.78L23.09 26.78C23.32 27.16 23.19 27.65 22.82 27.88C22.68 27.97 22.54 28 22.4 28Z" fill="#A9B0B0"/>
<path d="M16.8 12.81C16.36 12.81 16 12.45 16 12.01V9.61C16 9.16 16.36 8.81 16.8 8.81C17.24 8.81 17.6 9.17 17.6 9.61V12.01C17.6 12.45 17.24 12.81 16.8 12.81Z" fill="#A9B0B0"/>
<path d="M24.8 12.81H8.80005V22.41H24.8V12.81Z" fill="#D3D6D7"/>
</svg>
