<svg width="35" height="45" viewBox="0 0 35 45" fill="none" xmlns="http://www.w3.org/2000/svg">
<path d="M24.39 0H1.17C0.52 0 0 0.520001 0 1.54V44C0 44.28 0.52 44.8 1.17 44.8H33.23C33.87 44.8 34.4 44.28 34.4 44V10.38C34.4 9.82 34.33 9.64 34.2 9.51L24.89 0.199997C24.75 0.079997 24.57 0 24.39 0Z" fill="#EFF0F0"/>
<path d="M24.8 0.119995V9.59999H34.28L24.8 0.119995Z" fill="#D3D6D7"/>
<path d="M33.23 44.8H1.17C0.52 44.8 0 44.28 0 43.63V31.2H34.4V43.63C34.4 44.28 33.88 44.8 33.23 44.8Z" fill="#F8AF3C"/>
<path d="M10.3 38.49L12.34 42.4H10.82L9.54003 39.36H9.44003L8.06003 42.4H6.54003L8.59003 38.49L6.41003 34.35H7.91003L9.33003 37.63H9.44003L10.98 34.35H12.48L10.3 38.49Z" fill="white"/>
<path d="M20.4 34.34H21.74V42.4H20.4V36.86L18.6 41.35H17.44L15.62 36.86V42.4H14.29V34.34H15.62L18.02 39.85L20.4 34.34Z" fill="white"/>
<path d="M25.09 34.34V41.41H28.8V42.4H23.76V34.34H25.09Z" fill="white"/>
<path d="M7.19996 19.2C6.99996 19.2 6.78996 19.12 6.62996 18.97C6.31996 18.66 6.31996 18.15 6.62996 17.84L11.43 13.04C11.74 12.73 12.25 12.73 12.56 13.04C12.87 13.35 12.87 13.86 12.56 14.17L7.75996 18.97C7.60996 19.12 7.40996 19.2 7.19996 19.2Z" fill="#F8AF3C"/>
<path d="M12 24C11.8 24 11.59 23.92 11.43 23.77L6.62996 18.97C6.31996 18.66 6.31996 18.15 6.62996 17.84C6.93996 17.53 7.44996 17.53 7.75996 17.84L12.56 22.64C12.87 22.95 12.87 23.46 12.56 23.77C12.41 23.92 12.2 24 12 24Z" fill="#F8AF3C"/>
<path d="M21.6 24C21.39 24 21.19 23.92 21.03 23.77C20.72 23.46 20.72 22.95 21.03 22.64L25.83 17.84C26.14 17.53 26.65 17.53 26.96 17.84C27.27 18.15 27.27 18.66 26.96 18.97L22.16 23.77C22.01 23.92 21.8 24 21.6 24Z" fill="#F8AF3C"/>
<path d="M26.4 19.2C26.2 19.2 25.99 19.12 25.84 18.97L21.04 14.17C20.73 13.86 20.73 13.35 21.04 13.04C21.35 12.73 21.86 12.73 22.17 13.04L26.97 17.84C27.28 18.15 27.28 18.66 26.97 18.97C26.81 19.12 26.6 19.2 26.4 19.2Z" fill="#F8AF3C"/>
<path d="M14.4 25.6C14.31 25.6 14.22 25.58 14.13 25.55C13.72 25.4 13.5 24.94 13.64 24.53L18.44 10.93C18.59 10.51 19.04 10.29 19.46 10.44C19.88 10.59 20.1 11.04 19.95 11.46L15.15 25.06C15.04 25.4 14.73 25.6 14.4 25.6Z" fill="#F8AF3C"/>
</svg>
