<svg width="35" height="45" viewBox="0 0 35 45" fill="none" xmlns="http://www.w3.org/2000/svg">
<path d="M24.39 0H1.17C0.52 0 0 0.52 0 1.54V44C0 44.28 0.52 44.8 1.17 44.8H33.23C33.87 44.8 34.4 44.28 34.4 44V10.38C34.4 9.82 34.33 9.64 34.2 9.51L24.89 0.2C24.75 0.07 24.57 0 24.39 0Z" fill="#EFF0F0"/>
<path d="M24.8 0.119995V9.6H34.28L24.8 0.119995Z" fill="#D3D6D7"/>
<path d="M33.23 44.8H1.17C0.52 44.8 0 44.28 0 43.63V31.2H34.4V43.63C34.4 44.28 33.88 44.8 33.23 44.8Z" fill="#1D3E55"/>
<path d="M15.01 34.34V35.4L11.17 41.17L10.96 41.35H15.01V42.41H9.65002V41.35L13.49 35.58L13.72 35.4H9.65002V34.34H15.01Z" fill="white"/>
<path d="M18.22 34.34H16.88V42.4H18.22V34.34Z" fill="white"/>
<path d="M21.53 42.4H20.22V34.34H22.54C22.88 34.34 23.22 34.4 23.56 34.5C23.9 34.61 24.2 34.77 24.46 34.99C24.73 35.21 24.94 35.47 25.1 35.78C25.26 36.09 25.35 36.44 25.35 36.82C25.35 37.23 25.28 37.6 25.14 37.93C25 38.26 24.81 38.54 24.56 38.77C24.31 38.99 24.01 39.17 23.67 39.29C23.32 39.41 22.93 39.48 22.51 39.48H21.54V42.4H21.53ZM21.53 35.34V38.53H22.73C22.89 38.53 23.05 38.5 23.21 38.45C23.37 38.4 23.51 38.31 23.64 38.18C23.77 38.06 23.88 37.88 23.96 37.66C24.04 37.44 24.08 37.16 24.08 36.83C24.08 36.7 24.06 36.55 24.03 36.38C23.99 36.21 23.92 36.04 23.81 35.89C23.7 35.73 23.54 35.6 23.33 35.49C23.13 35.38 22.86 35.33 22.52 35.33H21.53V35.34Z" fill="white"/>
<path d="M17.6 19.2V17.6H19.2V16H17.6V14.4H19.2V12.8H17.6V11.2H19.2V9.59999H17.6V7.99999H19.2V6.39999H17.6V4.79999H16V6.39999H14.4V7.99999H16V9.59999H14.4V11.2H16V12.8H14.4V14.4H16V16H14.4V17.6H16V19.2H12.8V23.2C12.8 25.41 14.59 27.2 16.8 27.2C19 27.2 20.8 25.41 20.8 23.2V19.2H17.6ZM19.2 23.2C19.2 24.52 18.13 25.6 16.8 25.6C15.47 25.6 14.4 24.52 14.4 23.2V20.8H19.2V23.2Z" fill="#A9B0B0"/>
<path d="M16 24H17.6C18.04 24 18.4 23.64 18.4 23.2C18.4 22.76 18.05 22.4 17.6 22.4H16C15.56 22.4 15.2 22.76 15.2 23.2C15.2 23.64 15.56 24 16 24Z" fill="#A9B0B0"/>
</svg>
