<?xml version="1.0" encoding="UTF-8"?>
<svg enable-background="new 0 0 600 600" version="1.1" viewBox="0 0 600 600" xml:space="preserve" xmlns="http://www.w3.org/2000/svg">
<style type="text/css">
	.st0{fill:#B7C4CF;}
</style>

  <path class="st0" d="m558 101.6c-8.4-8.4-18.3-12.2-29-12.2h-41.2v-31.3c0-14.5-5.3-26.7-15.3-36.6-9.9-9.9-22.1-15.3-36.6-15.3h-20.6c-14.5 0-26.7 5.3-36.6 15.3-9.9 9.9-15.3 22.1-15.3 36.6v31.3h-124.4v-31.3c0-14.5-5.3-26.7-15.3-36.6s-22.1-15.3-36.6-15.3h-20.6c-14.5 0-26.7 5.3-36.6 15.3s-15.3 22.1-15.3 36.6v31.3h-41.2c-11.4 0-20.6 3.8-29 12.2s-12.2 17.6-12.2 29v415.2c0 11.4 3.8 20.6 12.2 29s17.6 12.2 29 12.2h456.4c11.4 0 20.6-3.8 29-12.2s12.2-18.3 12.2-29v-415.2c-0.8-10.6-4.6-20.6-13-29zm-153.4-42.7h41.2v73.3h-41.2v-73.3zm-248.8-0.8h41.2v73.3h-41.2v-73.3zm10 487.7h-93.2v-93.1h93.1v93.1zm0-113.7h-93.2v-103.8h93.1v103.8zm0-124.4h-93.2v-93.1h93.1v93.1zm124.4 238.1h-103.8v-93.1h103.8v93.1zm0-113.7h-103.8v-103.8h103.8v103.8zm0-124.4h-103.8v-93.1h103.8v93.1zm124.3 238.1h-103.7v-93.1h103.8v93.1zm0-113.7h-103.7v-103.8h103.8v103.8zm0-124.4h-103.7v-93.1h103.8v93.1zm114.5 238.1h-93.1v-93.1h93.1v93.1zm0-113.7h-93.1v-103.8h93.1v103.8zm0-124.4h-93.1v-93.1h93.1v93.1z"/>

</svg>
