<?xml version="1.0" encoding="utf-8"?>
<!-- Generator: Adobe Illustrator 22.1.0, SVG Export Plug-In . SVG Version: 6.00 Build 0)  -->
<svg version="1.1" id="Layer_1" xmlns="http://www.w3.org/2000/svg" xmlns:xlink="http://www.w3.org/1999/xlink" x="0px" y="0px"
	 viewBox="0 0 600 600" style="enable-background:new 0 0 600 600;" xml:space="preserve">
<style type="text/css">
	.st0{fill:#B7C4CF;}
</style>
<g>
	<path class="st0" d="M271.1,283.7h89.7v0h18.5v0h80.5v0h36.3V112.8c-0.7-9.2-4-17.8-11.2-25.1c-7.3-7.3-15.8-10.6-25.1-10.6h-35.6
		V50.1c0-12.5-4.6-23.1-13.2-31.7c-8.6-8.6-19.1-13.2-31.7-13.2h-17.8c-12.5,0-23.1,4.6-31.7,13.2c-8.6,8.6-13.2,19.1-13.2,31.7
		v27.1H209V50.1c0-12.5-4.6-23.1-13.2-31.7c-8.6-8.6-19.1-13.2-31.7-13.2h-17.8c-12.5,0-23.1,4.6-31.7,13.2
		c-8.6,8.6-13.2,19.1-13.2,31.7v27.1H65.8c-9.9,0-17.8,3.3-25.1,10.6s-10.6,15.2-10.6,25.1v359c0,9.9,3.3,17.8,10.6,25.1
		c7.3,7.3,15.2,10.6,25.1,10.6h205.5v-35.6h-0.3v-80.5h0.3v-17.8h-0.3V283.7z M459.8,185.4v80.5h-80.5v-80.5H459.8z M352.2,50.8
		h35.6v63.4h-35.6V50.8z M271.1,185.4h89.7v80.5h-89.7V185.4z M137.1,50.1h35.6v63.4h-35.6V50.1z M145.7,471.8H65.2v-80.5h80.5
		V471.8z M145.7,373.5H65.2v-89.7h80.5V373.5z M145.7,265.9H65.2v-80.5h80.5V265.9z M253.3,471.8h-89.7v-80.5h89.7V471.8z
		 M253.3,373.5h-89.7v-89.7h89.7V373.5z M253.3,265.9h-89.7v-80.5h89.7V265.9z"/>
	<path class="st0" d="M433.7,301c-79.4,0-144,64.6-144,144s64.6,144,144,144c79.4,0,144-64.6,144-144S513.1,301,433.7,301z
		 M433.7,560c-63.4,0-115.1-51.6-115.1-115.1c0-63.4,51.6-115.1,115.1-115.1c63.4,0,115,51.6,115,115.1
		C548.8,508.4,497.2,560,433.7,560z"/>
	<polygon class="st0" points="446.1,362.2 417.1,362.2 417.1,451.2 475.5,507.3 495.6,486.5 446.1,438.8 	"/>
</g>
</svg>
