<?xml version="1.0" encoding="UTF-8"?>
<svg enable-background="new 0 0 600 600" version="1.1" viewBox="0 0 600 600" xml:space="preserve" xmlns="http://www.w3.org/2000/svg">
<style type="text/css">
	.st0{fill:#B7C4CF;}
</style>

  <path class="st0" d="m271.1 283.7h225v-170.9c-0.7-9.2-4-17.8-11.2-25.1-7.3-7.3-15.8-10.6-25.1-10.6h-35.6v-27c0-12.5-4.6-23.1-13.2-31.7s-19.1-13.2-31.7-13.2h-17.8c-12.5 0-23.1 4.6-31.7 13.2s-13.2 19.1-13.2 31.7v27.1h-107.6v-27.1c0-12.5-4.6-23.1-13.2-31.7s-19.1-13.2-31.7-13.2h-17.8c-12.5 0-23.1 4.6-31.7 13.2s-13.2 19.1-13.2 31.7v27.1h-35.6c-9.9 0-17.8 3.3-25.1 10.6s-10.6 15.2-10.6 25.1v359c0 9.9 3.3 17.8 10.6 25.1s15.2 10.6 25.1 10.6h205.5v-35.6h-0.3v-80.5h0.3v-17.8h-0.3v-90zm188.7-98.3v80.5h-80.5v-80.5h80.5zm-107.6-134.6h35.6v63.4h-35.6v-63.4zm-81.1 134.6h89.7v80.5h-89.7v-80.5zm-134-135.3h35.6v63.4h-35.6v-63.4zm8.6 421.7h-80.5v-80.5h80.5v80.5zm0-98.3h-80.5v-89.7h80.5v89.7zm0-107.6h-80.5v-80.5h80.5v80.5zm107.6 205.9h-89.7v-80.5h89.7v80.5zm0-98.3h-89.7v-89.7h89.7v89.7zm0-107.6h-89.7v-80.5h89.7v80.5z"/>
  <path class="st0" d="m433.7 301c-79.4 0-144 64.6-144 144s64.6 144 144 144 144-64.6 144-144-64.6-144-144-144zm0 259c-63.4 0-115.1-51.6-115.1-115.1 0-63.4 51.6-115.1 115.1-115.1 63.4 0 115 51.6 115 115.1 0.1 63.5-51.5 115.1-115 115.1z"/>
  <polygon class="st0" points="446.1 362.2 417.1 362.2 417.1 451.2 475.5 507.3 495.6 486.5 446.1 438.8"/>

</svg>
