<?xml version="1.0" encoding="UTF-8"?>
<svg enable-background="new 0 0 600 600" version="1.1" viewBox="0 0 600 600" xml:space="preserve" xmlns="http://www.w3.org/2000/svg">
<style type="text/css">
	.st0{fill:#A0B3C4;}
</style>
  <path class="st0" d="m512.8 590.5c19.9 0 39.9-7.7 53.7-23 30.7-30.7 30.7-78.2 0-108.9l-158-158 159.5-159.7c30.7-30.7 30.7-78.2 0-108.9s-78.2-30.7-108.9 0l-159.6 159.6-159.6-159.6c-30.6-30.7-78.2-30.7-108.9 0s-30.7 78.2 0 108.9l159.6 159.6-159.6 159.6c-30.7 30.6-30.7 78.2 0 108.9 15.3 15.3 35.3 23 53.7 23s39.9-7.7 53.7-23l161.1-159.6 159.6 159.6c15.3 13.8 33.7 21.5 53.7 21.5z"/>
</svg>
