<?xml version="1.0" encoding="utf-8"?>
<!-- Generator: Adobe Illustrator 22.1.0, SVG Export Plug-In . SVG Version: 6.00 Build 0)  -->
<svg version="1.1" id="Layer_1" xmlns="http://www.w3.org/2000/svg" xmlns:xlink="http://www.w3.org/1999/xlink" x="0px" y="0px"
	 viewBox="0 0 600 600" style="enable-background:new 0 0 600 600;" xml:space="preserve">
<style type="text/css">
	.st0{fill:#6E8293;}
</style>
<path class="st0" d="M56.3,297.5v-48.3h48.2V201H56.3C29.7,201,8,222.7,8,249.2v48.3H56.3z"/>
<path class="st0" d="M538.7,8H249.2C222.7,8,201,29.7,201,56.3V201h-48.3v48.3H201v96.5c0,26.5,21.7,48.2,48.2,48.2h96.5v48.3H394
	V394h144.7c26.5,0,48.3-21.7,48.3-48.2V56.3C587,29.7,565.3,8,538.7,8z M538.7,345.7H249.2V56.3h289.5V345.7z"/>
<path class="st0" d="M297.5,249.2h48.3v48.3H394v-48.3c0-26.6-21.7-48.3-48.3-48.3h-48.3V249.2z"/>
<rect x="152.8" y="538.7" class="st0" width="96.5" height="48.3"/>
<path class="st0" d="M345.8,490.5v48.2h-48.3V587h48.3c26.5,0,48.3-21.7,48.3-48.3v-48.2H345.8z"/>
<path class="st0" d="M104.5,538.7H56.3v-48.2H8v48.2C8,565.3,29.7,587,56.3,587h48.2V538.7z"/>
<rect x="8" y="345.7" class="st0" width="48.3" height="96.5"/>
</svg>
