<svg width="64" height="53" viewBox="0 0 64 53" fill="none" xmlns="http://www.w3.org/2000/svg">
<path d="M5.19995 52.1H58.6C61.4 52.1 63.7 49.8 63.7 47V5.1C63.7 2.3 61.4 0 58.6 0H5.19995C2.39995 0 0.0999527 2.3 0.0999527 5.1V47C-4.57764e-05 49.8 2.29995 52.1 5.19995 52.1ZM58.6 4C59.2 4 59.7 4.5 59.7 5.1V47C59.7 47.6 59.2 48.1 58.6 48.1H5.19995C4.59995 48.1 4.09995 47.6 4.09995 47V5.1C4.09995 4.5 4.59995 4 5.19995 4H58.6Z" fill="#A9B0B0"/>
<path d="M51.6 43.5001H12.1C11.2 43.5001 10.4 42.8001 10.4 41.9001C10.4 41.5001 10.5 41.2001 10.7 40.9001L16.2 33.5001C16.7 32.7001 17.8 32.6001 18.6 33.1001C18.7 33.1001 18.7 33.2001 18.8 33.3001L24.4 38.6L37.4 21.0001C38 20.2001 39 20.1001 39.8 20.6001C40 20.7001 40.1 20.9001 40.2 21.0001L53.2 40.9001C53.7 41.7001 53.5 42.7001 52.7 43.2001C52.3 43.4001 52 43.5001 51.6 43.5001Z" fill="#A9B0B0"/>
<path d="M19.6 21C16.3415 21 13.7 18.3584 13.7 15.1C13.7 11.8415 16.3415 9.19995 19.6 9.19995C22.8584 9.19995 25.5 11.8415 25.5 15.1C25.5 18.3584 22.8584 21 19.6 21Z" fill="#A9B0B0"/>
</svg>
