<?xml version="1.0" encoding="UTF-8"?>
<svg enable-background="new 0 0 600 600" version="1.1" viewBox="0 0 600 600" xml:space="preserve" xmlns="http://www.w3.org/2000/svg">
<style type="text/css">
	.st0{fill:#5F768A;}
</style>
  <path class="st0" d="m563.9 228.4h-193.2l-59.7-183.8c-1.8-5.5-6.6-8.3-11.5-8.3-4.8 0-9.7 2.8-11.5 8.3l-59.7 183.8h-193.2c-11.7 0-16.5 14.9-7.1 21.8l156.3 113.6-59.7 183.8c-2.7 8.5 4 15.8 11.5 15.8 2.4 0 4.8-0.7 7-2.4l156.3-113.6 156.4 113.6c2.3 1.6 4.7 2.4 7 2.4 7.5 0 14.2-7.4 11.5-15.8l-59.7-183.8 156.4-113.6c9.5-6.9 4.6-21.8-7.1-21.8z"/>
</svg>
