<?xml version="1.0" encoding="utf-8"?>
<!-- Generator: Adobe Illustrator 22.1.0, SVG Export Plug-In . SVG Version: 6.00 Build 0)  -->
<svg version="1.1" id="Layer_1" xmlns="http://www.w3.org/2000/svg" xmlns:xlink="http://www.w3.org/1999/xlink" x="0px" y="0px"
	 viewBox="0 0 600 600" style="enable-background:new 0 0 600 600;" xml:space="preserve">
<style type="text/css">
	.st0{fill:#5F768A;}
</style>
<path class="st0" d="M563.9,228.4H370.7L311,44.6c-1.8-5.5-6.6-8.3-11.5-8.3c-4.8,0-9.7,2.8-11.5,8.3l-59.7,183.8H35.1
	c-11.7,0-16.5,14.9-7.1,21.8l156.3,113.6l-59.7,183.8c-2.7,8.5,4,15.8,11.5,15.8c2.4,0,4.8-0.7,7-2.4l156.3-113.6L455.8,561
	c2.3,1.6,4.7,2.4,7,2.4c7.5,0,14.2-7.4,11.5-15.8l-59.7-183.8L571,250.2C580.5,243.3,575.6,228.4,563.9,228.4z"/>
</svg>
