<svg width="35" height="45" viewBox="0 0 35 45" fill="none" xmlns="http://www.w3.org/2000/svg">
<path d="M24.38 0H1.17C0.519998 0 0 0.520009 0 1.54001V44C0 44.28 0.519998 44.8 1.17 44.8H33.23C33.87 44.8 34.4 44.28 34.4 44V10.38C34.4 9.82 34.33 9.64001 34.2 9.51001L24.89 0.200012C24.75 0.0700122 24.57 0 24.38 0Z" fill="#EFF0F0"/>
<path d="M24.79 0.119995V9.59998H34.27L24.79 0.119995Z" fill="#D3D6D7"/>
<path d="M33.22 44.8H1.17C0.519998 44.8 0 44.28 0 43.63V31.2H34.4V43.63C34.39 44.27 33.87 44.8 33.22 44.8Z" fill="#C63882"/>
<path d="M7.88 42.4L10.7 34.35H12L14.8 42.4H13.44L12.86 40.73H9.83L9.24001 42.4H7.88ZM10.15 39.84H12.56L11.37 36.36L10.15 39.84Z" fill="white"/>
<path d="M18.66 42.44L16.15 34.33H17.65L19.52 41.29L21.5 34.33H22.98L20.36 42.44H18.66Z" fill="white"/>
<path d="M25.99 34.34H24.65V42.4H25.99V34.34Z" fill="white"/>
<path d="M13.6 22.4V11.2L22.4 16.8L13.6 22.4Z" fill="#A9B0B0"/>
</svg>
