<svg width="35" height="45" viewBox="0 0 35 45" fill="none" xmlns="http://www.w3.org/2000/svg">
<path d="M24.39 0H1.17C0.52 0 0 0.520009 0 1.54001V44C0 44.28 0.52 44.8 1.17 44.8H33.23C33.87 44.8 34.4 44.28 34.4 44V10.38C34.4 9.82 34.33 9.64001 34.2 9.51001L24.89 0.200012C24.75 0.0700122 24.57 0 24.39 0Z" fill="#EFF0F0"/>
<path d="M24.8 0.119995V9.59998H34.28L24.8 0.119995Z" fill="#D3D6D7"/>
<path d="M33.23 44.8H1.17C0.52 44.8 0 44.28 0 43.63V31.2H34.4V43.63C34.4 44.27 33.88 44.8 33.23 44.8Z" fill="#DF5E9C"/>
<path d="M12.06 41.58C11.76 41.87 11.42 42.09 11.05 42.24C10.67 42.39 10.26 42.46 9.82997 42.46C9.34997 42.46 8.89997 42.37 8.49997 42.2C8.09997 42.03 7.73997 41.77 7.43997 41.42C7.13997 41.08 6.89997 40.65 6.72997 40.13C6.55997 39.61 6.46997 39.01 6.46997 38.34C6.46997 37.66 6.55997 37.07 6.72997 36.55C6.89997 36.03 7.13997 35.61 7.43997 35.27C7.73997 34.93 8.09997 34.67 8.50997 34.49C8.91997 34.31 9.35997 34.22 9.82997 34.22C10.27 34.22 10.67 34.29 11.05 34.44C11.43 34.59 11.77 34.81 12.06 35.1L11.15 35.91C10.97 35.7 10.76 35.55 10.54 35.45C10.32 35.36 10.09 35.31 9.84997 35.31C9.57997 35.31 9.31997 35.36 9.07997 35.46C8.83997 35.57 8.61997 35.74 8.41997 35.98C8.22997 36.23 8.07997 36.54 7.96997 36.93C7.85997 37.32 7.79997 37.79 7.78997 38.35C7.79997 38.9 7.85997 39.36 7.95997 39.75C8.06997 40.14 8.20997 40.45 8.39997 40.7C8.58997 40.95 8.79997 41.12 9.02997 41.24C9.26997 41.36 9.51997 41.41 9.77997 41.41C10.05 41.41 10.29 41.36 10.52 41.27C10.75 41.18 10.96 41.02 11.15 40.81L12.06 41.58Z" fill="white"/>
<path d="M18.51 40.19C18.51 40.48 18.45 40.77 18.33 41.04C18.21 41.31 18.04 41.56 17.82 41.76C17.6 41.97 17.33 42.13 17.01 42.26C16.69 42.39 16.32 42.44 15.92 42.44C15.74 42.44 15.56 42.43 15.38 42.41C15.2 42.39 15.01 42.36 14.82 42.32C14.63 42.27 14.45 42.21 14.28 42.14C14.11 42.06 13.96 41.97 13.84 41.86L14.07 40.92C14.17 40.98 14.3 41.04 14.46 41.09C14.62 41.14 14.78 41.2 14.95 41.24C15.11 41.29 15.28 41.33 15.45 41.35C15.62 41.38 15.77 41.39 15.92 41.39C16.37 41.39 16.71 41.29 16.94 41.08C17.17 40.87 17.29 40.56 17.29 40.15C17.29 39.9 17.21 39.69 17.04 39.52C16.87 39.34 16.66 39.18 16.41 39.04C16.16 38.89 15.89 38.75 15.6 38.61C15.31 38.46 15.03 38.3 14.78 38.11C14.52 37.91 14.31 37.69 14.14 37.43C13.97 37.17 13.89 36.84 13.89 36.45C13.89 36.09 13.96 35.77 14.09 35.5C14.22 35.23 14.4 34.99 14.62 34.8C14.84 34.6 15.1 34.46 15.4 34.35C15.69 34.25 16.01 34.2 16.33 34.2C16.67 34.2 17.01 34.23 17.35 34.29C17.69 34.35 17.97 34.45 18.18 34.59C18.14 34.68 18.09 34.79 18.03 34.9C17.97 35.01 17.92 35.12 17.87 35.22C17.82 35.32 17.78 35.4 17.74 35.47C17.7 35.54 17.68 35.57 17.67 35.58C17.63 35.56 17.58 35.53 17.52 35.49C17.46 35.45 17.39 35.42 17.29 35.38C17.19 35.34 17.05 35.32 16.88 35.3C16.71 35.28 16.5 35.29 16.24 35.31C16.09 35.33 15.95 35.36 15.82 35.43C15.69 35.5 15.57 35.59 15.47 35.69C15.37 35.79 15.29 35.9 15.23 36.03C15.17 36.16 15.14 36.28 15.14 36.4C15.14 36.69 15.22 36.93 15.39 37.11C15.56 37.29 15.77 37.44 16.01 37.58C16.26 37.72 16.53 37.85 16.82 37.97C17.11 38.09 17.38 38.25 17.64 38.43C17.89 38.61 18.1 38.84 18.27 39.11C18.42 39.41 18.51 39.76 18.51 40.19Z" fill="white"/>
<path d="M22.03 42.44L19.53 34.33H21.03L22.9 41.29L24.88 34.33H26.37L23.75 42.44H22.03Z" fill="white"/>
<path d="M13.6 12.8V9.59998H4V27.2H30.4V12.8H13.6ZM5.6 11.2H12V12.8H5.6V11.2ZM5.6 14.4H12V16H5.6V14.4ZM5.6 17.6H12V19.2H5.6V17.6ZM5.6 20.8H12V22.4H5.6V20.8ZM12 25.6H5.6V24H12V25.6ZM28.8 25.6H13.6V24H28.8V25.6ZM28.8 22.4H13.6V20.8H28.8V22.4ZM28.8 19.2H13.6V17.6H28.8V19.2ZM13.6 16V14.4H28.8V16H13.6Z" fill="#A9B0B0"/>
</svg>
