<svg width="35" height="45" viewBox="0 0 35 45" fill="none" xmlns="http://www.w3.org/2000/svg">
<path d="M24.38 0H1.17C0.519998 0 0 0.52 0 1.54V44C0 44.28 0.519998 44.8 1.17 44.8H33.23C33.87 44.8 34.4 44.28 34.4 44V10.38C34.4 9.82 34.33 9.64 34.2 9.51L24.89 0.2C24.75 0.07 24.57 0 24.38 0Z" fill="#EFF0F0"/>
<path d="M24.8 0.119995V9.6H34.28L24.8 0.119995Z" fill="#D3D6D7"/>
<path d="M9.6 10.4H4.8C4.36 10.4 4 10.04 4 9.59999C4 9.15999 4.36 8.79999 4.8 8.79999H9.6C10.04 8.79999 10.4 9.15999 10.4 9.59999C10.39 10.04 10.04 10.4 9.6 10.4Z" fill="#3A8DDE"/>
<path d="M12 14.4H4.8C4.36 14.4 4 14.05 4 13.6C4 13.16 4.36 12.8 4.8 12.8H12C12.44 12.8 12.8 13.16 12.8 13.6C12.8 14.04 12.44 14.4 12 14.4Z" fill="#3A8DDE"/>
<path d="M15.2 14.4C14.99 14.4 14.79 14.32 14.63 14.17C14.49 14.02 14.4 13.81 14.4 13.6C14.4 13.39 14.49 13.18 14.63 13.03C14.93 12.73 15.47 12.73 15.77 13.03C15.91 13.18 16 13.39 16 13.6C16 13.81 15.91 14.01 15.77 14.17C15.61 14.31 15.4 14.4 15.2 14.4Z" fill="#3A8DDE"/>
<path d="M24.8 14.4H18.4C17.96 14.4 17.6 14.05 17.6 13.6C17.6 13.16 17.95 12.8 18.4 12.8H24.8C25.24 12.8 25.6 13.16 25.6 13.6C25.6 14.04 25.24 14.4 24.8 14.4Z" fill="#3A8DDE"/>
<path d="M4.8 26.4C4.59 26.4 4.38 26.32 4.23 26.17C4.09 26.02 4 25.81 4 25.6C4 25.39 4.09 25.18 4.23 25.03C4.53 24.73 5.07 24.73 5.37 25.03C5.51 25.18 5.6 25.38 5.6 25.6C5.6 25.81 5.51 26.01 5.37 26.17C5.21 26.31 5 26.4 4.8 26.4Z" fill="#3A8DDE"/>
<path d="M14.3899 26.4H7.98994C7.54994 26.4 7.18994 26.05 7.18994 25.6C7.18994 25.16 7.54994 24.8 7.98994 24.8H14.3899C14.8299 24.8 15.1899 25.16 15.1899 25.6C15.1999 26.04 14.8399 26.4 14.3899 26.4Z" fill="#3A8DDE"/>
<path d="M29.6 14.4H27.9999C27.5599 14.4 27.2 14.05 27.2 13.6C27.2 13.16 27.5599 12.8 27.9999 12.8H29.6C30.04 12.8 30.4 13.16 30.4 13.6C30.39 14.04 30.04 14.4 29.6 14.4Z" fill="#3A8DDE"/>
<path d="M22.39 18.4H4.78999C4.34999 18.4 3.98999 18.04 3.98999 17.6C3.98999 17.16 4.34999 16.8 4.78999 16.8H22.39C22.83 16.8 23.19 17.16 23.19 17.6C23.2 18.04 22.84 18.4 22.39 18.4Z" fill="#3A8DDE"/>
<path d="M29.6 18.4H24.8C24.36 18.4 24 18.04 24 17.6C24 17.16 24.36 16.8 24.8 16.8H29.6C30.04 16.8 30.4 17.16 30.4 17.6C30.39 18.04 30.04 18.4 29.6 18.4Z" fill="#3A8DDE"/>
<path d="M8 22.4H4.8C4.36 22.4 4 22.04 4 21.6C4 21.16 4.36 20.8 4.8 20.8H8C8.44 20.8 8.8 21.16 8.8 21.6C8.8 22.04 8.44 22.4 8 22.4Z" fill="#3A8DDE"/>
<path d="M19.2 22.4H11.2C10.76 22.4 10.4 22.04 10.4 21.6C10.4 21.16 10.76 20.8 11.2 20.8H19.2C19.64 20.8 20 21.16 20 21.6C20 22.04 19.64 22.4 19.2 22.4Z" fill="#3A8DDE"/>
<path d="M29.6 22.4H22.4C21.96 22.4 21.6 22.04 21.6 21.6C21.6 21.16 21.96 20.8 22.4 20.8H29.6C30.04 20.8 30.4 21.16 30.4 21.6C30.39 22.04 30.04 22.4 29.6 22.4Z" fill="#3A8DDE"/>
<path d="M33.23 44.8H1.17C0.519998 44.8 0 44.28 0 43.63V31.2H34.4V43.63C34.39 44.28 33.87 44.8 33.23 44.8Z" fill="#3A8DDE"/>
<path d="M13.6 38.15C13.6 38.81 13.53 39.38 13.39 39.85C13.25 40.32 13.07 40.71 12.85 41.03C12.63 41.35 12.39 41.6 12.11 41.78C11.84 41.96 11.58 42.1 11.32 42.19C11.07 42.28 10.83 42.34 10.62 42.36C10.41 42.38 10.25 42.4 10.15 42.4H7.09998V34.34H9.52998C10.21 34.34 10.8 34.45 11.32 34.66C11.83 34.87 12.26 35.16 12.6 35.52C12.94 35.87 13.19 36.28 13.36 36.74C13.51 37.2 13.6 37.66 13.6 38.15ZM9.69998 41.44C10.59 41.44 11.23 41.15 11.63 40.59C12.02 40.02 12.22 39.2 12.22 38.12C12.22 37.78 12.18 37.45 12.1 37.12C12.02 36.79 11.86 36.5 11.64 36.23C11.41 35.96 11.1 35.75 10.71 35.58C10.32 35.42 9.79998 35.33 9.17998 35.33H8.40998V41.43H9.69998V41.44Z" fill="white"/>
<path d="M21.57 38.33C21.57 39.01 21.49 39.6 21.32 40.12C21.15 40.64 20.91 41.07 20.61 41.41C20.31 41.75 19.95 42.01 19.55 42.19C19.14 42.37 18.7 42.45 18.22 42.45C17.74 42.45 17.29 42.36 16.89 42.19C16.48 42.02 16.13 41.76 15.83 41.41C15.53 41.07 15.29 40.64 15.12 40.12C14.95 39.6 14.86 39 14.86 38.33C14.86 37.65 14.95 37.06 15.12 36.54C15.29 36.02 15.53 35.6 15.83 35.26C16.13 34.92 16.49 34.66 16.89 34.48C17.29 34.3 17.74 34.21 18.22 34.21C18.7 34.21 19.14 34.3 19.55 34.48C19.96 34.66 20.31 34.92 20.61 35.26C20.91 35.6 21.15 36.03 21.32 36.54C21.49 37.06 21.57 37.65 21.57 38.33ZM18.18 41.38C18.45 41.38 18.71 41.33 18.95 41.22C19.19 41.11 19.41 40.94 19.61 40.7C19.8 40.46 19.95 40.14 20.06 39.75C20.17 39.36 20.23 38.89 20.24 38.32C20.23 37.77 20.17 37.31 20.07 36.93C19.96 36.55 19.82 36.23 19.63 35.98C19.45 35.73 19.23 35.55 19 35.44C18.76 35.33 18.51 35.28 18.25 35.28C17.98 35.28 17.72 35.33 17.48 35.43C17.24 35.53 17.02 35.7 16.83 35.95C16.63 36.19 16.48 36.51 16.37 36.9C16.26 37.29 16.2 37.76 16.2 38.32C16.2 38.87 16.26 39.33 16.37 39.72C16.48 40.11 16.62 40.42 16.81 40.67C17 40.92 17.21 41.1 17.44 41.21C17.67 41.33 17.92 41.38 18.18 41.38Z" fill="white"/>
<path d="M28.88 41.58C28.58 41.87 28.24 42.09 27.86 42.24C27.48 42.39 27.07 42.46 26.64 42.46C26.16 42.46 25.71 42.37 25.31 42.2C24.9 42.03 24.55 41.77 24.25 41.42C23.95 41.08 23.71 40.65 23.54 40.13C23.37 39.61 23.28 39.01 23.28 38.34C23.28 37.66 23.37 37.07 23.54 36.55C23.71 36.03 23.95 35.61 24.25 35.27C24.55 34.93 24.91 34.67 25.32 34.49C25.73 34.31 26.17 34.22 26.65 34.22C27.09 34.22 27.49 34.29 27.87 34.44C28.25 34.59 28.59 34.81 28.89 35.1L27.98 35.91C27.8 35.7 27.6 35.55 27.37 35.45C27.15 35.36 26.92 35.31 26.68 35.31C26.41 35.31 26.15 35.36 25.91 35.46C25.66 35.57 25.45 35.74 25.25 35.98C25.05 36.23 24.9 36.54 24.8 36.93C24.69 37.32 24.63 37.79 24.62 38.35C24.63 38.9 24.68 39.36 24.79 39.75C24.9 40.14 25.04 40.45 25.23 40.7C25.42 40.95 25.63 41.12 25.87 41.24C26.11 41.36 26.36 41.41 26.62 41.41C26.89 41.41 27.13 41.36 27.36 41.27C27.59 41.18 27.8 41.02 27.99 40.81L28.88 41.58Z" fill="white"/>
</svg>
