<svg width="35" height="46" viewBox="0 0 35 46" fill="none" xmlns="http://www.w3.org/2000/svg">
<path d="M24.38 0H1.17C0.519998 0 0 0.520001 0 1.54V44C0 44.28 0.519998 44.8 1.17 44.8H33.23C33.87 44.8 34.4 44.28 34.4 44V10.38C34.4 9.82 34.33 9.64 34.2 9.51L24.89 0.200001C24.75 0.0800008 24.57 0 24.38 0Z" fill="#EFF0F0"/>
<path d="M24.8 0.119995V9.59999H34.28L24.8 0.119995Z" fill="#D3D6D7"/>
<path d="M33.23 45.8H1.17C0.519998 45.8 0 45.28 0 44.63V32.2H34.4V44.63C34.39 45.28 33.87 45.8 33.23 45.8Z" fill="#7765B7"/>
<path d="M8.46 35.34V37.88H11.83V38.78H8.46V41.42H12.17V42.41H7.13V34.35H12.17V35.35H8.46V35.34Z" fill="white"/>
<path d="M17.66 38.49L19.71 42.4H18.19L16.91 39.36H16.8L15.42 42.4H13.9L15.94 38.49L13.77 34.35H15.27L16.69 37.63H16.8L18.34 34.35H19.84L17.66 38.49Z" fill="white"/>
<path d="M23.0099 35.34V37.88H26.3799V38.78H23.0099V41.42H26.7199V42.41H21.6799V34.35H26.7199V35.35H23.0099V35.34Z" fill="white"/>
<path d="M21.6 25.6C21.52 25.6 21.44 25.59 21.36 25.56C20.94 25.43 20.7 24.98 20.84 24.56L24.84 11.76C24.97 11.34 25.42 11.1 25.84 11.23C26.26 11.36 26.5 11.81 26.36 12.23L22.36 25.03C22.25 25.38 21.94 25.6 21.6 25.6Z" fill="#7765B7"/>
<path d="M19.2001 15.6C19.2001 16.26 18.66 16.8 18 16.8C17.34 16.8 16.8 16.26 16.8 15.6C16.8 14.94 17.33 14.4 18 14.4C18.66 14.4 19.2001 14.94 19.2001 15.6Z" fill="#7765B7"/>
<path d="M19.2001 21.2C19.2001 21.86 18.66 22.4 18 22.4C17.34 22.4 16.8 21.86 16.8 21.2C16.8 20.54 17.33 20 18 20C18.66 20 19.2001 20.54 19.2001 21.2Z" fill="#7765B7"/>
<path d="M13.6 24H12C8.91002 24 6.40002 21.49 6.40002 18.4C6.40002 15.31 8.91002 12.8 12 12.8H13.6C14.04 12.8 14.4 13.16 14.4 13.6C14.4 14.04 14.04 14.4 13.6 14.4H12C9.79002 14.4 8.00002 16.2 8.00002 18.4C8.00002 20.61 9.79002 22.4 12 22.4H13.6C14.04 22.4 14.4 22.76 14.4 23.2C14.39 23.64 14.04 24 13.6 24Z" fill="#7765B7"/>
</svg>
