<svg width="35" height="45" viewBox="0 0 35 45" fill="none" xmlns="http://www.w3.org/2000/svg">
<path d="M24.39 0H1.17C0.52 0 0 0.520001 0 1.54V44C0 44.28 0.52 44.8 1.17 44.8H33.23C33.87 44.8 34.4 44.28 34.4 44V10.38C34.4 9.82 34.33 9.64 34.2 9.51L24.89 0.200001C24.75 0.0800008 24.57 0 24.39 0Z" fill="#EFF0F0"/>
<path d="M24.8 0.119995V9.59999H34.28L24.8 0.119995Z" fill="#D3D6D7"/>
<path d="M33.23 44.8H1.17C0.52 44.8 0 44.28 0 43.63V31.2H34.4V43.63C34.4 44.28 33.88 44.8 33.23 44.8Z" fill="#9384BD"/>
<path d="M23.34 11.99C22.89 11.35 22.3 10.76 21.49 10.11C18.36 7.60001 17.69 5.09001 17.6 4.72001V4.00001C17.6 3.56001 17.24 3.20001 16.8 3.20001C16.36 3.20001 16 3.56001 16 4.00001V18.73H13.04C9.93 18.73 8 20.3 8 22.83C8 25.6 9.79 27.39 12.57 27.39C15.34 27.39 17.61 25.13 17.61 22.35V13.17L17.85 13.36C18.12 13.63 18.54 13.94 19.06 14.32C20.92 15.69 24.02 17.98 23.24 20.55C23.22 20.63 23.2 20.71 23.2 20.78C23.2 21.12 23.42 21.44 23.77 21.55C23.84 21.57 23.92 21.59 24 21.59C24.34 21.59 24.66 21.37 24.77 21.02C26.07 16.73 24.43 13.52 23.34 11.99ZM16 22.35C16 24.24 14.46 25.79 12.57 25.79C10.68 25.79 9.61 24.71 9.61 22.83C9.61 20.77 11.48 20.33 13.04 20.33H16V22.35ZM20 13.05C19.54 12.71 19.15 12.42 18.9 12.18L17.6 11.11V8.33001C18.26 9.27001 19.19 10.31 20.49 11.36C21.18 11.91 21.67 12.4 22.03 12.92C22.6 13.72 23.18 14.79 23.46 16.1C22.4 14.81 21 13.78 20 13.05Z" fill="#A9B0B0"/>
<path d="M12.72 34.34H14.06V42.4H12.72V36.86L10.91 41.35H9.75999L7.93999 36.86V42.4H6.60999V34.34H7.94999L10.35 39.85L12.72 34.34Z" fill="white"/>
<path d="M17.3701 42.4H16.0601V34.34H18.3801C18.7201 34.34 19.0601 34.4 19.4001 34.5C19.7401 34.61 20.0401 34.77 20.3001 34.99C20.5701 35.21 20.7801 35.47 20.9401 35.78C21.1001 36.09 21.1901 36.44 21.1901 36.82C21.1901 37.23 21.1201 37.6 20.9801 37.93C20.8401 38.26 20.6501 38.54 20.4001 38.77C20.1501 38.99 19.8501 39.17 19.5001 39.29C19.1501 39.41 18.7701 39.48 18.3401 39.48H17.3701V42.4ZM17.3701 35.34V38.53H18.5701C18.7301 38.53 18.8901 38.5 19.0501 38.45C19.2101 38.4 19.3501 38.31 19.4801 38.18C19.6101 38.06 19.7201 37.88 19.8001 37.66C19.8801 37.44 19.9201 37.16 19.9201 36.83C19.9201 36.7 19.9001 36.55 19.8601 36.38C19.8201 36.21 19.7501 36.04 19.6301 35.89C19.5201 35.73 19.3601 35.6 19.1601 35.49C18.9501 35.38 18.6801 35.33 18.3501 35.33H17.3701V35.34Z" fill="white"/>
<path d="M25.69 38.16C25.86 38.18 26.03 38.24 26.21 38.32C26.39 38.41 26.55 38.53 26.71 38.69C26.87 38.85 26.99 39.05 27.1 39.28C27.2 39.51 27.25 39.77 27.25 40.07C27.25 40.43 27.19 40.75 27.09 41.02C26.98 41.29 26.85 41.51 26.69 41.68C26.53 41.86 26.35 42 26.15 42.1C25.95 42.2 25.75 42.28 25.57 42.33C25.38 42.38 25.21 42.42 25.05 42.43C24.89 42.44 24.77 42.45 24.68 42.45C24.07 42.45 23.58 42.41 23.23 42.33C22.87 42.25 22.63 42.16 22.49 42.07L22.78 41.13C22.85 41.17 22.91 41.21 22.97 41.25C23.03 41.29 23.11 41.34 23.22 41.37C23.33 41.41 23.48 41.44 23.68 41.47C23.87 41.5 24.14 41.51 24.49 41.51C24.99 41.51 25.37 41.37 25.61 41.1C25.86 40.83 25.99 40.48 25.99 40.07C25.99 39.68 25.87 39.34 25.65 39.07C25.42 38.8 25.09 38.66 24.65 38.66H23.53H23.54L23.53 37.77H24.28C24.44 37.77 24.6 37.77 24.77 37.76C24.93 37.75 25.09 37.71 25.23 37.64C25.38 37.57 25.5 37.44 25.59 37.27C25.68 37.09 25.73 36.84 25.73 36.52C25.73 36.39 25.72 36.25 25.7 36.1C25.68 35.96 25.62 35.82 25.52 35.69C25.42 35.57 25.28 35.47 25.09 35.39C24.9 35.32 24.64 35.28 24.3 35.28C23.96 35.28 23.7 35.31 23.5 35.37C23.3 35.43 23.15 35.48 23.05 35.52L22.67 34.54C22.85 34.49 23.07 34.43 23.32 34.38C23.58 34.32 23.95 34.29 24.44 34.29C24.78 34.29 25.1 34.33 25.41 34.42C25.72 34.5 25.98 34.63 26.22 34.82C26.45 35 26.63 35.23 26.77 35.52C26.9 35.81 26.97 36.14 26.97 36.53C26.97 36.75 26.93 36.96 26.85 37.15C26.77 37.33 26.67 37.5 26.54 37.63C26.42 37.77 26.28 37.88 26.13 37.97C25.96 38.07 25.82 38.13 25.69 38.16Z" fill="white"/>
</svg>
