<svg width="35" height="45" viewBox="0 0 35 45" fill="none" xmlns="http://www.w3.org/2000/svg">
<path d="M24.39 0H1.17C0.52 0 0 0.520009 0 1.54001V44C0 44.28 0.52 44.8 1.17 44.8H33.23C33.87 44.8 34.4 44.28 34.4 44V10.38C34.4 9.82 34.33 9.64001 34.2 9.51001L24.89 0.200012C24.75 0.0700122 24.57 0 24.39 0Z" fill="#EFF0F0"/>
<path d="M24.8 0.119995V9.59999H34.28L24.8 0.119995Z" fill="#D3D6D7"/>
<path d="M10.41 26.66C10.13 26.66 9.86998 26.57 9.63998 26.4C8.80998 25.78 8.68998 25.08 8.74998 24.61C8.88998 23.31 10.5 21.94 13.54 20.56C14.74 17.92 15.89 14.67 16.57 11.96C15.77 10.22 15 7.97001 15.56 6.65001C15.76 6.19001 16 5.83001 16.47 5.68001C16.65 5.62001 17.11 5.54001 17.28 5.54001C17.69 5.54001 18.04 6.06 18.29 6.38C18.52 6.68 19.06 7.32001 17.99 11.82C19.07 14.05 20.6 16.32 22.06 17.87C23.11 17.68 24.01 17.59 24.75 17.59C26 17.59 26.76 17.88 27.07 18.49C27.33 18.99 27.22 19.57 26.76 20.22C26.31 20.84 25.7 21.17 24.98 21.17C24.01 21.17 22.87 20.56 21.61 19.34C19.34 19.82 16.69 20.66 14.55 21.6C13.88 23.02 13.24 24.16 12.64 25C11.82 26.12 11.11 26.66 10.41 26.66ZM12.54 22.55C10.83 23.51 10.13 24.3 10.09 24.74C10.08 24.81 10.06 25.01 10.43 25.29C10.55 25.27 11.24 24.95 12.54 22.55ZM23.45 19C24.1 19.5 24.26 19.76 24.69 19.76C24.88 19.76 25.41 19.75 25.66 19.4C25.78 19.23 25.82 19.13 25.84 19.07C25.74 19.02 25.61 18.91 24.9 18.91C24.5 18.91 23.99 18.93 23.45 19ZM17.47 13.73C16.9 15.71 16.14 17.85 15.33 19.78C17 19.13 18.82 18.57 20.52 18.17C19.45 16.92 18.37 15.35 17.47 13.73ZM16.99 6.96001C16.91 6.99001 15.93 8.37001 17.07 9.53001C17.82 7.85001 17.02 6.95001 16.99 6.96001Z" fill="#E84954"/>
<path d="M33.23 44.8H1.17C0.52 44.8 0 44.28 0 43.63V31.2H34.4V43.63C34.4 44.27 33.88 44.8 33.23 44.8Z" fill="#E84954"/>
<path d="M8.71001 42.39H7.39001V34.33H9.71001C10.05 34.33 10.39 34.39 10.73 34.49C11.07 34.6 11.37 34.76 11.63 34.98C11.89 35.2 12.11 35.46 12.27 35.77C12.43 36.08 12.52 36.43 12.52 36.81C12.52 37.22 12.45 37.59 12.31 37.92C12.17 38.25 11.98 38.53 11.73 38.76C11.48 38.98 11.18 39.16 10.83 39.28C10.48 39.4 10.09 39.47 9.67001 39.47H8.71001V42.39ZM8.71001 35.33V38.52H9.91001C10.07 38.52 10.23 38.49 10.39 38.44C10.55 38.39 10.69 38.3 10.82 38.17C10.95 38.05 11.05 37.87 11.14 37.65C11.22 37.43 11.26 37.15 11.26 36.82C11.26 36.69 11.24 36.54 11.21 36.37C11.17 36.2 11.1 36.03 10.98 35.88C10.87 35.72 10.71 35.59 10.5 35.48C10.3 35.37 10.03 35.32 9.69001 35.32H8.71001V35.33Z" fill="white"/>
<path d="M20.5701 38.14C20.5701 38.8 20.5001 39.37 20.3601 39.84C20.2201 40.31 20.0401 40.7 19.8201 41.02C19.6001 41.34 19.3601 41.59 19.0801 41.77C18.8101 41.95 18.5401 42.09 18.2901 42.18C18.0401 42.27 17.8001 42.33 17.5901 42.35C17.3801 42.37 17.2201 42.39 17.1201 42.39H14.0701V34.33H16.5001C17.1801 34.33 17.7701 34.44 18.2901 34.65C18.8101 34.86 19.2301 35.15 19.5701 35.51C19.9101 35.86 20.1601 36.27 20.3301 36.73C20.4901 37.19 20.5701 37.66 20.5701 38.14ZM16.6801 41.43C17.5701 41.43 18.2101 41.14 18.6101 40.58C19.0001 40.01 19.2001 39.19 19.2001 38.11C19.2001 37.77 19.1601 37.44 19.0801 37.11C19.0001 36.78 18.8401 36.49 18.6201 36.22C18.3901 35.95 18.0801 35.74 17.6801 35.57C17.2801 35.41 16.7801 35.32 16.1501 35.32H15.3801V41.42H16.6801V41.43Z" fill="white"/>
<path d="M23.81 35.33V37.87H27.18V38.77H23.81V42.4H22.48V34.34H27.52V35.34H23.81V35.33Z" fill="white"/>
</svg>
