<svg width="35" height="45" viewBox="0 0 35 45" fill="none" xmlns="http://www.w3.org/2000/svg">
<path d="M24.39 0H1.17C0.52 0 0 0.520009 0 1.54001V44C0 44.28 0.52 44.8 1.17 44.8H33.23C33.87 44.8 34.4 44.28 34.4 44V10.38C34.4 9.82 34.33 9.64001 34.2 9.51001L24.89 0.200012C24.75 0.0700122 24.57 0 24.39 0Z" fill="#EFF0F0"/>
<path d="M33.23 44.8H1.17C0.52 44.8 0 44.28 0 43.63V31.2H34.4V43.63C34.4 44.28 33.88 44.8 33.23 44.8Z" fill="#54B162"/>
<path d="M24.8 0.119995V9.60001H34.28L24.8 0.119995Z" fill="#D3D6D7"/>
<path d="M8.71001 42.4H7.39001V34.34H9.71001C10.05 34.34 10.39 34.4 10.73 34.5C11.07 34.61 11.37 34.77 11.63 34.99C11.89 35.21 12.11 35.47 12.27 35.78C12.43 36.09 12.52 36.44 12.52 36.82C12.52 37.23 12.45 37.6 12.31 37.93C12.17 38.26 11.98 38.54 11.73 38.77C11.48 38.99 11.18 39.17 10.83 39.29C10.48 39.41 10.09 39.48 9.67001 39.48H8.71001V42.4ZM8.71001 35.33V38.52H9.91001C10.07 38.52 10.23 38.49 10.39 38.44C10.55 38.39 10.69 38.3 10.82 38.17C10.95 38.05 11.05 37.87 11.14 37.65C11.22 37.43 11.26 37.15 11.26 36.82C11.26 36.69 11.24 36.54 11.21 36.37C11.17 36.2 11.1 36.03 10.98 35.88C10.87 35.72 10.71 35.59 10.5 35.48C10.3 35.37 10.03 35.32 9.69001 35.32H8.71001V35.33Z" fill="white"/>
<path d="M19.85 34.34V42.4H18.52L15.36 36.85V42.4H14.02V34.34H15.36L18.52 39.89V34.34H19.85Z" fill="white"/>
<path d="M27.73 38.24V41.36C27.56 41.57 27.37 41.75 27.17 41.88C26.96 42.02 26.74 42.13 26.51 42.22C26.28 42.31 26.05 42.37 25.8 42.4C25.56 42.44 25.31 42.45 25.07 42.45C24.59 42.45 24.14 42.36 23.74 42.19C23.33 42.02 22.98 41.76 22.68 41.41C22.38 41.07 22.14 40.64 21.97 40.12C21.8 39.6 21.71 39 21.71 38.33C21.71 37.65 21.8 37.06 21.97 36.54C22.14 36.02 22.38 35.6 22.68 35.26C22.98 34.92 23.34 34.66 23.75 34.48C24.16 34.3 24.6 34.21 25.07 34.21C25.51 34.21 25.91 34.28 26.3 34.43C26.68 34.58 27.02 34.8 27.32 35.09L26.41 35.9C26.24 35.69 26.03 35.54 25.81 35.44C25.58 35.35 25.35 35.3 25.11 35.3C24.84 35.3 24.58 35.35 24.34 35.45C24.09 35.56 23.88 35.73 23.68 35.97C23.48 36.22 23.34 36.53 23.23 36.92C23.12 37.31 23.06 37.78 23.05 38.34C23.06 38.89 23.11 39.36 23.22 39.76C23.33 40.16 23.47 40.49 23.66 40.74C23.85 41 24.06 41.19 24.3 41.31C24.53 41.44 24.78 41.5 25.05 41.5C25.13 41.5 25.24 41.49 25.37 41.48C25.51 41.47 25.64 41.45 25.78 41.43C25.91 41.41 26.04 41.37 26.17 41.33C26.3 41.28 26.39 41.23 26.44 41.14V39.15H25.07V38.25H27.73V38.24Z" fill="white"/>
<path d="M13.6 11.54C13.6 13.56 11.96 15.2 9.94003 15.2C7.92003 15.2 6.28003 13.56 6.28003 11.54C6.28003 9.52001 7.92003 7.89001 9.94003 7.89001C11.96 7.89001 13.6 9.53001 13.6 11.54Z" fill="#F9CC67"/>
<path d="M0 31.2H34.4V22.4L26.4 14.8L18 24L13.61 19.61L0 31.2Z" fill="#79C682"/>
</svg>
