<svg width="35" height="45" viewBox="0 0 35 45" fill="none" xmlns="http://www.w3.org/2000/svg">
<path d="M24.39 0H1.17C0.519998 0 0 0.520001 0 1.54V44C0 44.28 0.519998 44.8 1.17 44.8H33.23C33.87 44.8 34.4 44.28 34.4 44V10.38C34.4 9.82 34.33 9.64 34.2 9.51L24.89 0.200001C24.75 0.0800008 24.57 0 24.39 0Z" fill="#EFF0F0"/>
<path d="M24.8 0.119995V9.59999H34.28L24.8 0.119995Z" fill="#D3D6D7"/>
<path d="M33.23 44.8H1.17C0.519998 44.8 0 44.28 0 43.63V31.2H34.4V43.63C34.4 44.28 33.88 44.8 33.23 44.8Z" fill="#8B9293"/>
<path d="M12.2899 34.34V35.23H9.87991V42.39H8.55991V35.23H6.1499V34.34H12.2899Z" fill="white"/>
<path d="M17.5499 38.49L19.5999 42.4H18.0799L16.7999 39.36H16.6899L15.3099 42.4H13.7899L15.8399 38.49L13.6599 34.35H15.1599L16.5799 37.63H16.6899L18.2299 34.35H19.7299L17.5499 38.49Z" fill="white"/>
<path d="M27.2201 34.34V35.23H24.8101V42.39H23.4901V35.23H21.0801V34.34H27.2201Z" fill="white"/>
<path d="M9.60001 10.4H4.8C4.36 10.4 4 10.04 4 9.59998C4 9.15998 4.36 8.79999 4.8 8.79999H9.60001C10.04 8.79999 10.4 9.15998 10.4 9.59998C10.4 10.04 10.04 10.4 9.60001 10.4Z" fill="#A9B0B0"/>
<path d="M12 14.4H4.8C4.36 14.4 4 14.05 4 13.6C4 13.16 4.36 12.8 4.8 12.8H12C12.44 12.8 12.8 13.16 12.8 13.6C12.8 14.04 12.44 14.4 12 14.4Z" fill="#A9B0B0"/>
<path d="M15.1999 14.4C14.9899 14.4 14.7799 14.32 14.6299 14.17C14.4899 14.02 14.3999 13.82 14.3999 13.6C14.3999 13.38 14.4899 13.18 14.6399 13.03C14.9299 12.73 15.4699 12.73 15.7699 13.03C15.9099 13.18 15.9999 13.39 15.9999 13.6C15.9999 13.81 15.9099 14.01 15.7699 14.17C15.6199 14.31 15.4099 14.4 15.1999 14.4Z" fill="#A9B0B0"/>
<path d="M24.8001 14.4H18.4001C17.9601 14.4 17.6001 14.05 17.6001 13.6C17.6001 13.16 17.9501 12.8 18.4001 12.8H24.8001C25.2401 12.8 25.6001 13.16 25.6001 13.6C25.6001 14.04 25.2401 14.4 24.8001 14.4Z" fill="#A9B0B0"/>
<path d="M4.8 26.4C4.59 26.4 4.38 26.32 4.23 26.17C4.09 26.02 4 25.81 4 25.6C4 25.39 4.09 25.18 4.23 25.03C4.53 24.73 5.07 24.73 5.37 25.04C5.51 25.19 5.60001 25.39 5.60001 25.6C5.60001 25.81 5.51 26.01 5.37 26.17C5.21 26.31 5.01 26.4 4.8 26.4Z" fill="#A9B0B0"/>
<path d="M14.3999 26.4H7.99995C7.55995 26.4 7.19995 26.05 7.19995 25.6C7.19995 25.16 7.55995 24.8 7.99995 24.8H14.3999C14.8499 24.8 15.2 25.16 15.2 25.6C15.2 26.04 14.8399 26.4 14.3999 26.4Z" fill="#A9B0B0"/>
<path d="M29.6 14.4H28C27.56 14.4 27.2 14.05 27.2 13.6C27.2 13.16 27.56 12.8 28 12.8H29.6C30.04 12.8 30.3999 13.16 30.3999 13.6C30.3999 14.04 30.04 14.4 29.6 14.4Z" fill="#A9B0B0"/>
<path d="M22.4 18.4H4.8C4.36 18.4 4 18.04 4 17.6C4 17.16 4.36 16.8 4.8 16.8H22.4C22.85 16.8 23.2 17.16 23.2 17.6C23.2 18.04 22.84 18.4 22.4 18.4Z" fill="#A9B0B0"/>
<path d="M29.6 18.4H24.8C24.36 18.4 24 18.04 24 17.6C24 17.16 24.36 16.8 24.8 16.8H29.6C30.04 16.8 30.4 17.16 30.4 17.6C30.4 18.04 30.04 18.4 29.6 18.4Z" fill="#A9B0B0"/>
<path d="M8 22.4H4.8C4.36 22.4 4 22.04 4 21.6C4 21.16 4.36 20.8 4.8 20.8H8C8.44 20.8 8.8 21.16 8.8 21.6C8.8 22.04 8.44 22.4 8 22.4Z" fill="#A9B0B0"/>
<path d="M19.1999 22.4H11.1999C10.7599 22.4 10.3999 22.04 10.3999 21.6C10.3999 21.16 10.7599 20.8 11.1999 20.8H19.1999C19.6399 20.8 19.9999 21.16 19.9999 21.6C19.9999 22.04 19.6399 22.4 19.1999 22.4Z" fill="#A9B0B0"/>
<path d="M29.6001 22.4H22.4001C21.9601 22.4 21.6001 22.04 21.6001 21.6C21.6001 21.16 21.9601 20.8 22.4001 20.8H29.6001C30.0401 20.8 30.4001 21.16 30.4001 21.6C30.4001 22.04 30.0401 22.4 29.6001 22.4Z" fill="#A9B0B0"/>
</svg>
