<svg width="35" height="45" viewBox="0 0 35 45" fill="none" xmlns="http://www.w3.org/2000/svg">
<path d="M24.39 0H1.17C0.519998 0 0 0.52 0 1.54V44C0 44.28 0.519998 44.8 1.17 44.8H33.23C33.87 44.8 34.4 44.28 34.4 44V10.38C34.4 9.82 34.33 9.64 34.2 9.51L24.89 0.2C24.75 0.07 24.57 0 24.39 0Z" fill="#EFF0F0"/>
<path d="M24.8 0.119995V9.6H34.28L24.8 0.119995Z" fill="#D3D6D7"/>
<path d="M17.6 33.6H16V44.8H17.6V33.6Z" fill="#A9B0B0"/>
<path d="M19.1999 18.4V16.8H17.5999V15.2H15.9999V16.8H14.3999V18.4H15.9999V20H14.3999V21.6H15.9999V23.2H14.3999V24.8H15.9999V27.2H17.5999V24.8H19.1999V23.2H17.5999V21.6H19.1999V20H17.5999V18.4H19.1999Z" fill="#A9B0B0"/>
<path d="M20.0001 27.2H13.6001V33.6H20.0001V27.2Z" fill="#D3D6D7"/>
<path d="M20.8 34.4H12.8V26.4H20.8V34.4ZM14.4 32.8H19.2V28H14.4V32.8Z" fill="#8B9293"/>
<path d="M20.0001 28.8H13.6001V30.4H20.0001V28.8Z" fill="#8B9293"/>
</svg>
