<svg width="42" height="31" viewBox="0 0 42 31" fill="#3A8DDE" xmlns="http://www.w3.org/2000/svg">
<path d="M35.7455 0H2.20693C0.983392 0 0 0.949097 0 2.12689V28.8731C0 30.0395 0.994827 31 2.20693 31H36.0885C37.3121 31 38.2954 30.0509 38.2954 28.8731V2.44707C38.3069 1.09775 37.1634 0 35.7455 0ZM12.2925 5.20288C13.8705 5.20288 15.1512 6.48359 15.1512 8.0616C15.1512 9.63962 13.8705 10.9203 12.2925 10.9203C10.7145 10.9203 9.43379 9.63962 9.43379 8.0616C9.43379 6.48359 10.7145 5.20288 12.2925 5.20288ZM6.57506 15.2084C6.57506 13.3102 10.3829 12.3497 12.2925 12.3497C14.2021 12.3497 18.01 13.3102 18.01 15.2084V16.6378H6.57506V15.2084ZM19.1534 25.4998H5.43157C4.96274 25.4998 4.57396 25.111 4.57396 24.6422C4.57396 24.1734 4.96274 23.7846 5.43157 23.7846H19.1534C19.6223 23.7846 20.0111 24.1734 20.0111 24.6422C20.0111 25.111 19.6223 25.4998 19.1534 25.4998ZM19.1534 20.9259H5.43157C4.96274 20.9259 4.57396 20.5371 4.57396 20.0682C4.57396 19.5994 4.96274 19.2106 5.43157 19.2106H19.1534C19.6223 19.2106 20.0111 19.5994 20.0111 20.0682C20.0111 20.5371 19.6223 20.9259 19.1534 20.9259Z" fill="#D3D6D7"/>
<path d="M39.3018 14.9568C39.3018 14.3393 39.2103 13.7333 39.0502 13.1615L41.1771 11.938L39.4962 9.03355L37.3693 10.2571C36.5345 9.39947 35.4596 8.78198 34.2704 8.47324V6.01474H30.92V8.47324C29.7193 8.78198 28.6559 9.4109 27.8211 10.2571L25.6942 9.03355L24.0133 11.938L26.1402 13.1615C25.9801 13.7333 25.8886 14.3279 25.8886 14.9568C25.8886 15.5743 25.9801 16.1804 26.1402 16.7521L24.0133 17.9756L25.6942 20.8801L27.8211 19.6566C28.6559 20.5142 29.7308 21.1317 30.92 21.4404V23.8989H34.2704V21.4404C35.4711 21.1317 36.5345 20.5028 37.3693 19.6566L39.4962 20.8801L41.1771 17.9756L39.0502 16.7521C39.2103 16.1804 39.3018 15.5857 39.3018 14.9568ZM32.6009 17.7927C31.0572 17.7927 29.8108 16.5463 29.8108 15.0026C29.8108 13.4589 31.0572 12.2125 32.6009 12.2125C34.1446 12.2125 35.391 13.4589 35.391 15.0026C35.391 16.5348 34.1446 17.7927 32.6009 17.7927Z" />
</svg>
