<svg width="24" height="24" viewBox="0 0 24 24" fill="none" xmlns="http://www.w3.org/2000/svg">
    <path d="M11.5 0.5C5.42537 0.5 0.5 5.42537 0.5 11.5C0.5 17.5746 5.42537 22.5 11.5 22.5C17.5746 22.5 22.5 17.5746 22.5 11.5C22.5 5.42537 17.5746 0.5 11.5 0.5ZM11.5 21.1455C6.16418 21.1455 1.85448 16.7948 1.85448 11.5C1.85448 6.16418 6.20523 1.85448 11.5 1.85448C16.7948 1.85448 21.1455 6.20522 21.1455 11.5C21.1455 16.7948 16.8358 21.1455 11.5 21.1455Z" fill="#3A8DDE"/>
    <path d="M9.9038 16.5569C9.56612 16.5838 9.22988 16.4651 8.98272 16.225L5.85678 13.2336C5.37682 12.7743 5.36295 12.0174 5.81765 11.5385C6.27696 11.0585 7.03382 11.0446 7.51276 11.4993L9.67312 13.5685L14.5803 7.20317C14.9857 6.67712 15.7389 6.58178 16.264 6.98264C16.79 7.38812 16.8853 8.14133 16.4845 8.66635L10.7628 16.0895C10.5274 16.4663 9.96119 16.5538 9.9038 16.5569Z" fill="#3A8DDE"/>
</svg>
