<svg width="21" height="26" viewBox="0 0 21 26" fill="none" xmlns="http://www.w3.org/2000/svg">
  <path d="M19.5235 15.9214V23.4919C19.5235 24.1362 18.9597 24.7 18.3154 24.7H2.20805C1.56376 24.7 1 24.1362 1 23.4919V15.9214V1.908C1 1.26371 1.56376 0.699951 2.20805 0.699951H18.3154C18.9597 0.699951 19.5235 1.26371 19.5235 1.908V15.9214Z" stroke="#8B9293" stroke-width="1.2" stroke-miterlimit="10" stroke-linejoin="round"/>
  <path d="M4.78538 11.604C4.30216 11.1208 4.06055 10.4765 4.06055 9.5906C4.06055 9.42953 4.06055 9.10738 4.06055 8.7047C4.06055 8.30201 4.06055 7.97987 4.06055 7.81879C4.06055 6.93289 4.38269 6.28859 4.78538 5.80537C5.2686 5.24161 5.9129 5 6.7988 5C7.36256 5 7.92632 5.08054 8.329 5.32215C8.73169 5.56376 9.05384 5.80537 9.29545 6.12752C9.53706 6.44966 9.61759 6.85235 9.61759 7.25503C9.61759 7.33557 9.61759 7.33557 9.53706 7.41611C9.45652 7.41611 9.45652 7.49664 9.37598 7.49664H8.89276C8.81223 7.49664 8.73169 7.49664 8.73169 7.41611C8.73169 7.33557 8.73169 7.33557 8.65115 7.25503C8.57061 6.77181 8.329 6.36913 8.00686 6.12752C7.76524 5.96644 7.36256 5.80537 6.7988 5.80537C5.67129 5.80537 5.02699 6.44966 5.02699 7.81879C5.02699 7.97987 5.02699 8.30201 5.02699 8.62416C5.02699 8.94631 5.02699 9.26846 5.02699 9.51007C5.10753 10.7987 5.67129 11.443 6.87934 11.443C7.36256 11.443 7.76525 11.3624 8.08739 11.1208C8.40954 10.8792 8.57061 10.557 8.73169 9.99329C8.73169 9.91275 8.81222 9.83221 8.81222 9.83221C8.89276 9.83221 8.89276 9.75168 8.9733 9.75168H9.45652C9.53706 9.75168 9.53706 9.75168 9.61759 9.83221C9.69813 9.83221 9.69813 9.91275 9.69813 9.99329C9.69813 10.396 9.53706 10.7181 9.37598 11.1208C9.13437 11.443 8.81222 11.7651 8.40954 11.9262C8.00686 12.1678 7.4431 12.2483 6.87934 12.2483C5.9129 12.3289 5.2686 12.0872 4.78538 11.604Z" fill="#8B9293" stroke="#8B9293" stroke-width="0.4"/>
  <path d="M11.5505 11.6039C11.0673 11.1207 10.8257 10.4764 10.8257 9.59051C10.8257 9.42944 10.8257 9.10729 10.8257 8.70461C10.8257 8.30192 10.8257 7.97977 10.8257 7.8187C10.8257 6.93279 11.1478 6.2885 11.5505 5.80528C12.0337 5.32205 12.678 5.08044 13.6445 5.08044C14.2082 5.08044 14.772 5.16098 15.1747 5.40259C15.5774 5.6442 15.8995 5.88581 16.1411 6.20796C16.3827 6.53011 16.3827 6.85226 16.4633 7.25494C16.4633 7.33548 16.4633 7.33548 16.3827 7.41601C16.3022 7.41601 16.3022 7.49655 16.2217 7.49655H15.7384C15.6579 7.49655 15.5774 7.49655 15.5774 7.41601C15.4968 7.41601 15.4968 7.33548 15.4968 7.25494C15.4163 6.77172 15.1747 6.36903 14.8525 6.12742C14.5304 5.88581 14.1277 5.80528 13.6445 5.80528C12.4364 5.80528 11.8727 6.44957 11.7921 7.73816C11.7921 7.89924 11.7921 8.22138 11.7921 8.54353C11.7921 8.86568 11.7921 9.18783 11.7921 9.42944C11.8727 10.718 12.4364 11.3623 13.6445 11.3623C14.1277 11.3623 14.5304 11.2818 14.8525 11.0402C15.1747 10.7986 15.3358 10.4764 15.4968 9.91266C15.4968 9.83212 15.5774 9.75159 15.5774 9.75159C15.6579 9.75159 15.6579 9.67105 15.7384 9.67105H16.2217C16.3022 9.67105 16.3022 9.67105 16.3827 9.75159C16.4633 9.75159 16.4633 9.83212 16.4633 9.91266C16.4633 10.3153 16.3022 10.6375 16.1411 11.0402C15.8995 11.3623 15.5774 11.6845 15.1747 11.8455C14.772 12.0872 14.2082 12.1677 13.6445 12.1677C12.678 12.3288 12.0337 12.0872 11.5505 11.6039Z" fill="#8B9293" stroke="#8B9293" stroke-width="0.4"/>
  <path d="M4.22168 20.2368H11.5505" stroke="#8B9293" stroke-width="1.2" stroke-miterlimit="10" stroke-linecap="round" stroke-linejoin="round"/>
  <path d="M4.22168 16.21H16.3828" stroke="#8B9293" stroke-width="1.2" stroke-miterlimit="10" stroke-linecap="round" stroke-linejoin="round"/>
</svg>
