<svg width="44" height="44" viewBox="0 0 44 44" fill="none" xmlns="http://www.w3.org/2000/svg">
<path d="M14.96 0C6.71147 0 0 6.71147 0 14.96C0 17.9285 0.86826 20.7797 2.52266 23.2555L0.51627 28.2656C0.387203 28.5941 0.457583 28.9696 0.715716 29.216C0.962116 29.4624 1.33762 29.5445 1.66615 29.4155L6.67627 27.4091C9.14027 29.0635 12.0032 29.9317 14.9717 29.9317C15.4528 29.9317 15.8517 29.5328 15.8517 29.0517C15.8517 28.8053 15.7579 28.5941 15.5936 28.4299L28.4299 15.5936C28.5941 15.7579 28.8053 15.8517 29.0517 15.8517C29.5328 15.8517 29.9317 15.4528 29.9317 14.9717C29.92 6.71147 23.2085 0 14.96 0ZM18.5621 20.5333H7.92C7.43893 20.5333 7.04 20.1344 7.04 19.6533C7.04 19.1723 7.43893 18.7733 7.92 18.7733H18.5621C19.0432 18.7733 19.4421 19.1723 19.4421 19.6533C19.4421 20.1344 19.0432 20.5333 18.5621 20.5333ZM22 15.84H7.92C7.43893 15.84 7.04 15.4411 7.04 14.96C7.04 14.4789 7.43893 14.08 7.92 14.08H22C22.4811 14.08 22.88 14.4789 22.88 14.96C22.88 15.4411 22.4811 15.84 22 15.84ZM22 11.1467H7.92C7.43893 11.1467 7.04 10.7477 7.04 10.2667C7.04 9.7856 7.43893 9.38667 7.92 9.38667H22C22.4811 9.38667 22.88 9.7856 22.88 10.2667C22.88 10.7477 22.4811 11.1467 22 11.1467Z" fill="#D3D6D7"/>
<path d="M41.4773 37.3355C43.1317 34.8715 44 32.0085 44 29.04C44 20.7915 37.2885 14.08 29.04 14.08C20.7914 14.08 14.08 20.7915 14.08 29.04C14.08 37.2885 20.7914 44 29.04 44C32.0085 44 34.8597 43.1317 37.3354 41.4773L42.3456 43.4837C42.6741 43.6128 43.0495 43.5424 43.2959 43.2843C43.5423 43.0379 43.6245 42.6624 43.4954 42.3339L41.4773 37.3355ZM36.08 34.6133H22C21.5189 34.6133 21.12 34.2144 21.12 33.7333C21.12 33.2523 21.5189 32.8533 22 32.8533H36.08C36.561 32.8533 36.96 33.2523 36.96 33.7333C36.96 34.2144 36.561 34.6133 36.08 34.6133ZM36.08 29.92H22C21.5189 29.92 21.12 29.5211 21.12 29.04C21.12 28.5589 21.5189 28.16 22 28.16H36.08C36.561 28.16 36.96 28.5589 36.96 29.04C36.96 29.5211 36.561 29.92 36.08 29.92ZM36.08 25.2267H22C21.5189 25.2267 21.12 24.8277 21.12 24.3467C21.12 23.8656 21.5189 23.4667 22 23.4667H36.08C36.561 23.4667 36.96 23.8656 36.96 24.3467C36.96 24.8277 36.561 25.2267 36.08 25.2267Z" fill="#3A8DDE"/>
</svg>
