<svg width="49" height="48" viewBox="0 0 49 48" fill="none" xmlns="http://www.w3.org/2000/svg">
<path d="M39.823 29.9294C40.2522 29.9294 40.6588 29.9633 41.0767 30.0198C41.7204 28.1675 42.0931 26.1911 42.0931 24.1242C42.0931 14.2306 34.0404 6.17789 24.1355 6.17789C21.9896 6.17789 19.9341 6.57318 18.0254 7.27342C18.048 7.57836 18.0706 7.8833 18.0706 8.18824C18.0706 13.6433 13.632 18.0706 8.18821 18.0706C7.88327 18.0706 7.57832 18.048 7.27338 18.0254C6.58444 19.9341 6.17786 21.9784 6.17786 24.1242C6.17786 34.0179 14.2306 42.0706 24.1355 42.0706C26.2023 42.0706 28.1788 41.6979 30.031 41.0541C29.9746 40.6475 29.9407 40.2296 29.9407 39.8005C29.9407 34.3567 34.368 29.9294 39.823 29.9294ZM16.591 17.8786H31.4202C31.8833 17.8786 32.2673 18.2626 32.2673 18.7257C32.2673 19.1887 31.8833 19.5727 31.4202 19.5727H16.591C16.128 19.5727 15.744 19.1887 15.744 18.7257C15.744 18.2626 16.128 17.8786 16.591 17.8786ZM22.6447 30.7878H16.591C16.128 30.7878 15.744 30.4038 15.744 29.9407C15.744 29.4777 16.128 29.0937 16.591 29.0937H22.6447C23.1077 29.0937 23.4917 29.4777 23.4917 29.9407C23.4917 30.4038 23.119 30.7878 22.6447 30.7878ZM16.591 25.2198C16.128 25.2198 15.744 24.8358 15.744 24.3727C15.744 23.9097 16.128 23.5257 16.591 23.5257H31.4202C31.8833 23.5257 32.2673 23.9097 32.2673 24.3727C32.2673 24.8358 31.8833 25.2198 31.4202 25.2198H16.591ZM29.4437 32.7642C29.4437 33.2273 29.0597 33.6113 28.5967 33.6113C28.1336 33.6113 27.7496 33.2273 27.7496 32.7642V30.7652H25.8183C25.3553 30.7652 24.9713 30.3812 24.9713 29.9181C24.9713 29.4551 25.3553 29.0711 25.8183 29.0711H27.7496V27.1172C27.7496 26.6541 28.1336 26.2701 28.5967 26.2701C29.0597 26.2701 29.4437 26.6541 29.4437 27.1172V29.0711H31.4654C31.9284 29.0711 32.3124 29.4551 32.3124 29.9181C32.3124 30.3812 31.9284 30.7652 31.4654 30.7652H29.4437V32.7642Z" fill="#D3D6D7"/>
<path d="M8.18824 0C3.67059 0 0 3.67059 0 8.18824C0 12.7059 3.67059 16.3765 8.18824 16.3765C12.7059 16.3765 16.3765 12.7059 16.3765 8.18824C16.3765 3.67059 12.7059 0 8.18824 0ZM8.17694 3.17365C9.4193 3.17365 10.4358 4.19011 10.4358 5.43247C10.4358 6.68612 9.4193 7.69129 8.17694 7.69129C6.9233 7.69129 5.91812 6.68612 5.91812 5.43247C5.91812 4.17882 6.93459 3.17365 8.17694 3.17365ZM12.6946 12.2089H3.6593V11.0795C3.6593 9.57741 6.66353 8.8207 8.17694 8.8207C9.67906 8.8207 12.6946 9.57741 12.6946 11.0795V12.2089Z" fill="#3A8DDE"/>
<path d="M39.8231 31.6235C35.3055 31.6235 31.6349 35.2941 31.6349 39.8118C31.6349 44.3294 35.3055 48 39.8231 48C44.3408 48 48.0114 44.3294 48.0114 39.8118C48.0114 35.2941 44.3408 31.6235 39.8231 31.6235ZM39.8118 34.7972C41.0655 34.7972 42.0707 35.8136 42.0707 37.056C42.0707 38.3096 41.0655 39.3148 39.8118 39.3148C38.5695 39.3148 37.553 38.3096 37.553 37.056C37.553 35.8023 38.5695 34.7972 39.8118 34.7972ZM44.3295 43.8325H35.2942V42.7031C35.2942 41.2009 38.3097 40.4442 39.8118 40.4442C41.3252 40.4442 44.3295 41.2009 44.3295 42.7031V43.8325Z" fill="#3A8DDE"/>
</svg>
