<svg width="38" height="40" viewBox="0 0 38 40" fill="none" xmlns="http://www.w3.org/2000/svg">
<path d="M37.9504 38.323C37.9752 38.1988 37.9876 38.0745 37.9876 37.9503V15.6273C37.9876 15.3416 37.9255 15.0683 37.8137 14.8199L26.9193 24.0124L37.9504 38.323Z" fill="#D3D6D7"/>
<path d="M0.012425 15.2174C0.012425 15.2547 0 15.3043 0 15.3416V37.9379C0 37.9503 0 37.9627 0 37.9627L10.6335 24.1615L0.012425 15.2174Z" fill="#D3D6D7"/>
<path d="M19.2795 30.4596C19.1056 30.6087 18.8944 30.6832 18.6832 30.6832C18.4721 30.6832 18.2609 30.6087 18.087 30.4596L12.0621 25.3789L1.05591 39.677C1.39131 39.8758 1.81367 40 2.26087 40H35.7267C36.087 40 36.4224 39.913 36.7329 39.7764L25.5031 25.2174L19.2795 30.4596Z" fill="#D3D6D7"/>
<path d="M36.4844 13.5155C36.149 13.3789 35.7763 13.2919 35.3912 13.2919H2.26079C1.81359 13.2919 1.3788 13.4161 1.01855 13.6273L18.6707 28.5217L36.4844 13.5155Z" fill="#3A8DDE"/>
<path d="M18.6831 0C18.1738 0 17.7515 0.409938 17.7515 0.931677V7.08074C17.7515 7.59006 18.1738 8.01242 18.6831 8.01242C19.1925 8.01242 19.6148 7.60248 19.6148 7.08074V0.931677C19.6148 0.409938 19.1925 0 18.6831 0Z" fill="#3A8DDE"/>
<path d="M28.0372 3.87577C27.6769 3.51552 27.0807 3.51552 26.7204 3.87577L22.3726 8.2236C22.0124 8.58384 22.0124 9.18012 22.3726 9.54036C22.5589 9.7267 22.795 9.81366 23.031 9.81366C23.267 9.81366 23.503 9.7267 23.6894 9.54036L28.0372 5.19254C28.3974 4.83229 28.3974 4.23602 28.0372 3.87577Z" fill="#3A8DDE"/>
<path d="M10.6459 3.87577C10.2857 3.51552 9.68939 3.51552 9.32915 3.87577C8.9689 4.23602 8.9689 4.83229 9.32915 5.19254L13.677 9.54036C13.8633 9.7267 14.0993 9.81366 14.3354 9.81366C14.5714 9.81366 14.8074 9.7267 14.9937 9.54036C15.354 9.18012 15.354 8.58384 14.9937 8.2236L10.6459 3.87577Z" fill="#3A8DDE"/>
</svg>
