<svg width="38" height="37" viewBox="0 0 38 37" fill="none" xmlns="http://www.w3.org/2000/svg">
<path d="M0.948743 11.7009C0.822248 11.7009 0.695729 11.6756 0.569233 11.625C0.0885499 11.4099 -0.126473 10.8533 0.0759204 10.3727C2.09985 5.75557 5.75556 2.09985 10.3726 0.0759172C10.8533 -0.126476 11.4099 0.0885666 11.625 0.56925C11.84 1.04993 11.6123 1.60651 11.1316 1.82156C6.94462 3.6431 3.6431 6.95728 1.82157 11.1316C1.66977 11.4985 1.31558 11.7009 0.948743 11.7009Z" fill="#3A8DDE"/>
<path d="M1.91014 21.8205C1.39151 21.8205 0.961426 21.3904 0.961426 20.8718C0.961426 9.89199 9.90467 0.948746 20.8845 0.948746C21.4031 0.948746 21.8332 1.37883 21.8332 1.89746C21.8332 2.4161 21.4031 2.84618 20.8845 2.84618C10.9419 2.84618 2.85886 10.9293 2.85886 20.8718C2.85886 21.4031 2.42878 21.8205 1.91014 21.8205Z" fill="#3A8DDE"/>
<path d="M34.2929 29.815C36.0765 27.1586 37.0126 24.0721 37.0126 20.8718C37.0126 11.9792 29.7771 4.74361 20.8844 4.74361C11.9918 4.74361 4.75623 11.9792 4.75623 20.8718C4.75623 29.7644 11.9918 37 20.8844 37C24.0848 37 27.1586 36.0639 29.8276 34.2803L35.229 36.4434C35.5832 36.5826 35.988 36.5067 36.2536 36.2284C36.5193 35.9627 36.6078 35.5579 36.4687 35.2038L34.2929 29.815ZM20.8844 12.6496C23.2499 12.6496 25.1599 14.5597 25.1599 16.9251C25.1599 19.2906 23.2499 21.2007 20.8844 21.2007C18.519 21.2007 16.6089 19.2906 16.6089 16.9251C16.6089 14.5597 18.519 12.6496 20.8844 12.6496ZM27.0953 29.7391C25.337 30.9662 23.1866 31.6998 20.8718 31.6998C18.5569 31.6998 16.4191 30.9662 14.6482 29.7391C13.7753 29.132 12.9911 28.3856 12.3333 27.5508C12.4092 24.7426 18.0383 23.3385 20.8718 23.3385C23.7053 23.3385 29.3343 24.7552 29.4102 27.5508C28.7524 28.3856 27.9808 29.1193 27.0953 29.7391Z" fill="#D3D6D7"/>
</svg>
