<svg width="28" height="37" viewBox="0 0 28 37" fill="none" xmlns="http://www.w3.org/2000/svg">
<path d="M26.388 7.34999L19.163 0.262488C19.038 0.137488 18.888 0.0874878 18.7255 0.0499878L18.7755 7.42499L26.388 7.34999Z" fill="#D3D6D7"/>
<path d="M17.8504 9.3C17.6004 9.3 17.3629 9.2 17.1879 9.025C17.0129 8.85 16.9129 8.6125 16.9129 8.3625L16.8504 0L2.81289 0.125C2.06289 0.1375 1.35039 0.4375 0.812891 0.975C0.275391 1.5125 -0.0121089 2.225 0.000391078 2.9875V34.2C0.0128911 34.95 0.275391 35.6625 0.812891 36.1875C1.35039 36.7125 2.06289 37 2.81289 37C2.82539 37 3.13789 37 3.15039 37L24.3629 36.8C25.9254 36.7875 27.1879 35.5 27.1754 33.9375V9.225L17.8504 9.3Z" fill="#D3D6D7"/>
<path d="M12.9379 27.15C13.1129 27.325 13.3504 27.4125 13.5879 27.4125H13.6004C13.8504 27.4125 14.0879 27.3125 14.2629 27.125L19.1129 22.125C19.4754 21.75 19.4629 21.1625 19.0879 20.8C18.7129 20.4375 18.1254 20.45 17.7629 20.825L14.3754 24.325V9.71249C14.3754 9.19999 13.9504 8.77499 13.4379 8.77499C12.9254 8.77499 12.5004 9.19999 12.5004 9.71249V24.1125L9.08787 20.8C8.71287 20.4375 8.12537 20.45 7.76287 20.825C7.41287 21.2 7.41287 21.8 7.78787 22.15L12.9379 27.15Z" fill="#3A8DDE"/>
<path d="M20.8504 30.1H6.32544C5.81294 30.1 5.38794 30.525 5.38794 31.0375C5.38794 31.55 5.81294 31.975 6.32544 31.975H20.8504C21.3629 31.975 21.7879 31.55 21.7879 31.0375C21.7879 30.525 21.3754 30.1 20.8504 30.1Z" fill="#3A8DDE"/>
</svg>
