<svg width="34" height="42" viewBox="0 0 34 42" fill="none" xmlns="http://www.w3.org/2000/svg">
<path d="M8.84079 6.33293H28.3589V2.72316C28.3589 1.21592 27.143 0 25.6357 0H2.72315C1.21591 0 0 1.21592 0 2.72316V33.6912C0 35.1731 1.20325 36.3764 2.68516 36.3764H6.06696V9.10675C6.06696 7.57418 7.30822 6.33293 8.84079 6.33293Z" fill="#D3D6D7"/>
<path d="M30.5248 6.33292H28.359V17.2636L24.8758 15.5157L21.3927 17.2636V6.33292H8.85354C7.32097 6.33292 6.07971 7.57417 6.07971 9.10674V39.2262C6.07971 40.7587 7.32097 42 8.85354 42H30.5248C32.0574 42 33.2986 40.7587 33.2986 39.2262V9.10674C33.2986 7.57417 32.0574 6.33292 30.5248 6.33292ZM12.3746 14.7684H17.1497C17.669 14.7684 18.0996 15.199 18.0996 15.7183C18.0996 16.2376 17.669 16.6683 17.1497 16.6683H12.3746C11.8553 16.6683 11.4247 16.2376 11.4247 15.7183C11.4247 15.199 11.8553 14.7684 12.3746 14.7684ZM26.991 33.5645H12.3746C11.8553 33.5645 11.4247 33.1339 11.4247 32.6146C11.4247 32.0953 11.8553 31.6646 12.3746 31.6646H26.991C27.5103 31.6646 27.941 32.0953 27.941 32.6146C27.941 33.1339 27.5103 33.5645 26.991 33.5645ZM26.991 27.9282H12.3746C11.8553 27.9282 11.4247 27.4976 11.4247 26.9783C11.4247 26.459 11.8553 26.0283 12.3746 26.0283H26.991C27.5103 26.0283 27.941 26.459 27.941 26.9783C27.941 27.4976 27.5103 27.9282 26.991 27.9282ZM26.991 22.3046H12.3746C11.8553 22.3046 11.4247 21.8739 11.4247 21.3546C11.4247 20.8353 11.8553 20.4047 12.3746 20.4047H26.991C27.5103 20.4047 27.941 20.8353 27.941 21.3546C27.941 21.8739 27.5103 22.3046 26.991 22.3046Z" fill="#3A8DDE"/>
</svg>
