<svg width="39" height="38" viewBox="0 0 39 38" fill="none" xmlns="http://www.w3.org/2000/svg"><path d="M24.483 28.991a.672.672 0 01.174.442c0 .128.033 3.211-2.722 4.545-.777.362-1.722.456-2.594.476l-2.219 2.742c1.28.013 2.99 0 3.607-.08a8.538 8.538 0 003.291-1.14c.71-.41 1.36-.952 1.944-1.549.71-.757 1.267-1.548 1.535-2.232a8.3 8.3 0 00.348-1.126c.255-1.08.362-2.835.383-4.256h-5.638l1.89 2.178zm-.343-5.952L22.9 25.27l8.473-.014c2.755 0 4.163-.965 5.256-2.198l-12.488-.02z" fill="#fff"/><path d="M15.333 20.411a.715.715 0 01.777.65c.014.174.43 4.196 4.15 4.196h.455l2.326-3.955h5.222V9.317c0-3.767-1.85-5.67-1.93-5.744l-.06-.06c-.906-1.14-2.14-1.965-3.547-2.407-1.153-.369-2.232-.369-3.465-.369h-6c.744.778 1.127 1.824 1.127 3.117 0 .396-.316.71-.711.71a.712.712 0 01-.717-.71c0-.978-.289-1.743-.838-2.245C11.09.657 9.4.75 9.38.75H3.522c-.047 0-.49-.014-.758.254-.207.188-.301.51-.301.952V17.14c0 .08-.161 3.338 2.024 5.523.034.034 2.534 2.594 5.59 2.594h6.476c-1.254-1.22-1.79-2.929-1.884-4.069-.034-.381.268-.73.664-.777zm8.077-5l-4.558-2.092c1.548-3.023 5.49-1.153 4.558 2.091z" fill="#fff"/></svg>