<svg width="42" height="42" viewBox="0 0 42 42" fill="none" xmlns="http://www.w3.org/2000/svg"><path d="M41.115.852C40.475.213 39.625 0 38.453 0c-3.3 0-8.515 2.45-10.538 4.368L16.42 15.873l-8.835-.213c-.213 0-.532.107-.638.213l-2.13 2.13c-.212.214-.212.427-.212.64 0 .213.106.426.213.64l4.045 4.047-2.555 2.664c-.213.213-.213.426-.213.639 0 .213.106.426.213.64l8.41 8.415c.318.32.957.32 1.276 0l2.555-2.557 4.045 4.048c.213.214.426.214.639.214.213 0 .425-.107.638-.214L26 35.05c.212-.213.319-.426.212-.64L26 25.569l11.496-11.506c1.278-1.278 2.662-3.835 3.513-6.392.958-2.343 1.597-5.326.107-6.818zm-1.597 6.18c-.745 2.236-2.129 4.687-3.087 5.752L24.509 24.609c-.213.213-.32.426-.213.639l.213 8.842-1.17 1.172-4.046-4.048C19.08 31 18.868 31 18.655 31c-.213 0-.426.106-.64.213l-2.554 2.556-7.132-7.137 2.555-2.557c.213-.213.213-.426.213-.64 0-.212-.106-.425-.213-.638l-4.151-4.155 1.17-1.172 8.836.213c.212 0 .532-.106.638-.213L29.193 5.646c1.703-1.704 6.493-3.835 9.26-3.835.64 0 1.171.107 1.384.32.532.532.639 2.237-.32 4.9z" fill="#3A8DDE"/><path d="M19.72 20.987l-5.323 5.326c-.32.32-.32.96 0 1.279.32.32.958.32 1.277 0l5.322-5.327c.32-.32.32-.959 0-1.278-.319-.32-.958-.32-1.277 0zm12.347-13.21c-.532.532-.532 1.491 0 2.13.532.533 1.49.533 2.129 0 .532-.532.532-1.491 0-2.13-.533-.64-1.49-.64-2.13 0zm-3.513 3.515c-.532.533-.532 1.492 0 2.131.532.533 1.49.533 2.129 0 .532-.533.532-1.491 0-2.13-.532-.64-1.49-.64-2.129 0zm-3.513 3.516c-.532.533-.532 1.491 0 2.13.532.533 1.49.533 2.13 0 .532-.532.532-1.49 0-2.13-.533-.533-1.491-.533-2.13 0zM8.436 33.558c-.32-.32-.958-.32-1.278 0l-4.044 4.048c-.32.32-.32.959 0 1.278.319.32.958.32 1.277 0l4.045-4.048c.32-.32.32-.959 0-1.278zm1.597 2.876l-4.045 4.048c-.32.32-.32.959 0 1.278.319.32.851.32 1.277 0l4.045-4.048c.32-.32.32-.959 0-1.278-.426-.426-.958-.426-1.277 0zm-4.471-5.753c-.32-.32-.852-.32-1.278 0L.24 34.73c-.32.426-.32.96 0 1.279.319.32.958.32 1.277 0l4.045-4.049c.426-.32.426-.852 0-1.278z" fill="#fff"/></svg>