<svg width="17" height="15" viewBox="0 0 17 15" fill="none" xmlns="http://www.w3.org/2000/svg"><path d="M9.273 7.857l-2.834 2.961V1.261c0-.539-.386-.943-.901-.943s-.902.404-.902.943v9.827l-3.09-3.231c-.387-.404-.902-.404-1.288 0A1.053 1.053 0 000 8.53c0 .27.129.538.258.673l3.863 4.038 1.16 1.212.128.135 5.023-5.25a1.07 1.07 0 00.129-1.347c-.258-.403-.902-.538-1.288-.134zm6.954-4.847L13.523.589a.962.962 0 00-.644-.27c-.258 0-.515 0-.644.27L9.53 3.01c-.128.134-.386.538 0 .942.258.27.644.27.902 0l1.803-1.75v6.73c0 .405.257.674.644.674.386 0 .644-.27.644-.673v-6.73l1.803 1.75c.257.27.644.27.901 0 .387-.404.13-.808 0-.942z" fill="#3A8DDE"/></svg>