<svg width="42" height="42" viewBox="0 0 42 42" fill="none" xmlns="http://www.w3.org/2000/svg">
<path d="M41.1146 0.852253C40.4759 0.213063 39.6244 0 38.4535 0C35.1536 0 29.9378 2.45023 27.9153 4.3678L16.4192 15.8732L7.58424 15.6601C7.37134 15.6601 7.05201 15.7667 6.94556 15.8732L4.81665 18.0038C4.60376 18.2169 4.60376 18.43 4.60376 18.643C4.60376 18.8561 4.71021 19.0692 4.81665 19.2822L8.86158 23.3304L6.30689 25.9937C6.094 26.2068 6.094 26.4198 6.094 26.6329C6.094 26.846 6.20044 27.059 6.30689 27.2721L14.7161 35.6881C15.0354 36.0077 15.6741 36.0077 15.9934 35.6881L18.5481 33.1313L22.5931 37.1795C22.806 37.3926 23.0188 37.3926 23.2317 37.3926C23.4446 37.3926 23.6575 37.2861 23.8704 37.1795L25.9993 35.0489C26.2122 34.8358 26.3187 34.6228 26.2122 34.4097L25.9993 25.5676L37.4954 14.0622C38.7728 12.7838 40.1566 10.227 41.0081 7.67027C41.9662 5.32658 42.6048 2.3437 41.1146 0.852253ZM39.5179 7.03108C38.7728 9.26825 37.389 11.7185 36.431 12.7838L24.5091 24.6088C24.2962 24.8219 24.1897 25.0349 24.2962 25.248L24.5091 34.0901L23.3382 35.262L19.2933 31.2138C19.0804 31.0007 18.8675 31.0007 18.6546 31.0007C18.4417 31.0007 18.2288 31.1072 18.0159 31.2138L15.4612 33.7705L8.32935 26.6329L10.884 24.0761C11.0969 23.8631 11.0969 23.65 11.0969 23.4369C11.0969 23.2239 10.9905 23.0108 10.884 22.7978L6.73267 18.643L7.90357 17.4712L16.7386 17.6842C16.9514 17.6842 17.2708 17.5777 17.3772 17.4712L29.1927 5.64617C30.8958 3.94167 35.6859 1.81104 38.4535 1.81104C39.0921 1.81104 39.6244 1.91757 39.8372 2.13063C40.3695 2.66329 40.4759 4.3678 39.5179 7.03108Z" fill="#3A8DDE"/>
<path d="M19.7191 20.9868L14.3968 26.3133C14.0775 26.6329 14.0775 27.2721 14.3968 27.5917C14.7161 27.9113 15.3548 27.9113 15.6741 27.5917L20.9964 22.2651C21.3158 21.9455 21.3158 21.3064 20.9964 20.9868C20.6771 20.6672 20.0384 20.6672 19.7191 20.9868Z" fill="white"/>
<path d="M32.0667 7.77676C31.5345 8.30941 31.5345 9.2682 32.0667 9.90739C32.5989 10.44 33.557 10.44 34.1956 9.90739C34.7279 9.37473 34.7279 8.41595 34.1956 7.77676C33.6634 7.13757 32.7054 7.13757 32.0667 7.77676Z" fill="white"/>
<path d="M28.554 11.2924C28.0218 11.825 28.0218 12.7838 28.554 13.423C29.0862 13.9557 30.0443 13.9557 30.6829 13.423C31.2152 12.8904 31.2152 11.9316 30.6829 11.2924C30.1507 10.6532 29.1927 10.6532 28.554 11.2924Z" fill="white"/>
<path d="M25.0413 14.8079C24.5091 15.3406 24.5091 16.2994 25.0413 16.9386C25.5735 17.4712 26.5316 17.4712 27.1702 16.9386C27.7025 16.4059 27.7025 15.4471 27.1702 14.8079C26.638 14.2753 25.68 14.2753 25.0413 14.8079Z" fill="white"/>
<path d="M8.4358 33.5576C8.11647 33.238 7.47779 33.238 7.15846 33.5576L3.11353 37.6058C2.79419 37.9254 2.79419 38.5646 3.11353 38.8842C3.43286 39.2037 4.07154 39.2037 4.39087 38.8842L8.4358 34.8359C8.75514 34.5164 8.75514 33.8772 8.4358 33.5576Z" fill="white"/>
<path d="M10.0325 36.4336L5.98755 40.4818C5.66821 40.8014 5.66821 41.4406 5.98755 41.7602C6.30689 42.0798 6.83911 42.0798 7.2649 41.7602L11.3098 37.712C11.6292 37.3924 11.6292 36.7532 11.3098 36.4336C10.884 36.0075 10.3518 36.0075 10.0325 36.4336Z" fill="white"/>
<path d="M5.56178 30.6811C5.24245 30.3615 4.71022 30.3615 4.28443 30.6811L0.239503 34.7293C-0.0798342 35.1554 -0.0798342 35.6881 0.239503 36.0077C0.558839 36.3273 1.19751 36.3273 1.51685 36.0077L5.56178 31.9595C5.98756 31.6399 5.98756 31.1072 5.56178 30.6811Z" fill="white"/>
</svg>
