<svg width="29" height="29" viewBox="0 0 29 29" fill="none" xmlns="http://www.w3.org/2000/svg">
<g filter="url(#filter0_d)">
<path d="M14.5493 17.0861C14.4868 17.0861 14.4242 17.0861 14.3617 17.0233L4.54538 12.3762C4.29529 12.2506 4.23276 11.9994 4.29529 11.7482C4.42034 11.497 4.67043 11.4342 4.92053 11.497L14.4868 16.0814L24.053 11.497C24.3031 11.3714 24.5532 11.497 24.6782 11.7482C24.8033 11.9994 24.6782 12.2506 24.4281 12.3762L14.6743 17.0233C14.6743 17.0233 14.6118 17.0861 14.5493 17.0861Z" fill="#A9B0B0"/>
<path fill-rule="evenodd" clip-rule="evenodd" d="M4.4234 12.6212C4.23648 12.5273 4.10936 12.3789 4.04625 12.2015C3.98509 12.0294 3.98956 11.847 4.03069 11.6818L4.03795 11.6526L4.05134 11.6257C4.1448 11.438 4.29256 11.3103 4.46928 11.2469C4.64053 11.1855 4.82216 11.19 4.98666 11.2313L5.01324 11.238L14.4867 15.7779L23.9335 11.2508C24.1285 11.1537 24.3365 11.1506 24.5199 11.2296C24.6987 11.3065 24.8361 11.4528 24.9221 11.6257C25.02 11.8224 25.0235 12.0322 24.9445 12.2172C24.8679 12.3968 24.7222 12.5348 24.5501 12.6212L24.545 12.6238L14.8241 17.2552C14.8135 17.2636 14.8009 17.2731 14.7865 17.2827C14.7495 17.3075 14.6625 17.3601 14.5493 17.3601C14.5473 17.3601 14.5452 17.3601 14.543 17.3601C14.4795 17.3602 14.3419 17.3605 14.2105 17.2546L4.4234 12.6212ZM14.3617 17.0233C14.4242 17.0861 14.4867 17.0861 14.5493 17.0861C14.6118 17.0861 14.6743 17.0233 14.6743 17.0233L24.4281 12.3762C24.6782 12.2506 24.8033 11.9994 24.6782 11.7482C24.5532 11.497 24.3031 11.3714 24.053 11.497L14.4867 16.0814L4.92052 11.497C4.67042 11.4342 4.42032 11.497 4.29527 11.7482C4.23275 11.9994 4.29527 12.2506 4.54537 12.3762L14.3617 17.0233Z" fill="#A9B0B0"/>
<path d="M14.5493 20.2258C14.4868 20.2258 14.4242 20.2258 14.3617 20.163L4.54538 15.5159C4.29529 15.3903 4.23276 15.1391 4.29529 14.8879C4.42034 14.6367 4.67043 14.5739 4.92053 14.6367L14.4868 19.221L24.053 14.6367C24.3031 14.5111 24.5532 14.6367 24.6782 14.8879C24.8033 15.1391 24.6782 15.3903 24.4281 15.5159L14.6743 20.163C14.6743 20.2258 14.6118 20.2258 14.5493 20.2258Z" fill="#A9B0B0"/>
<path fill-rule="evenodd" clip-rule="evenodd" d="M4.4234 15.7609C4.23648 15.667 4.10936 15.5186 4.04625 15.3411C3.98509 15.1691 3.98956 14.9867 4.03069 14.8214L4.03795 14.7923L4.05134 14.7654C4.1448 14.5776 4.29256 14.4499 4.46928 14.3866C4.64053 14.3251 4.82216 14.3296 4.98666 14.3709L5.01324 14.3776L14.4867 18.9175L23.9335 14.3904C24.1285 14.2933 24.3365 14.2902 24.5199 14.3692C24.6987 14.4461 24.8361 14.5925 24.9221 14.7654C25.02 14.962 25.0235 15.1719 24.9445 15.3569C24.8679 15.5364 24.7222 15.6744 24.5501 15.7609L24.545 15.7634L14.8773 20.3695C14.8278 20.4324 14.7661 20.4629 14.7215 20.4778C14.6526 20.5009 14.5776 20.5 14.554 20.4998C14.5521 20.4997 14.5505 20.4997 14.5493 20.4997C14.5473 20.4997 14.5452 20.4997 14.543 20.4997C14.4795 20.4999 14.3419 20.5002 14.2105 20.3942L4.4234 15.7609ZM14.3617 20.163C14.4242 20.2258 14.4867 20.2258 14.5493 20.2258C14.6118 20.2258 14.6743 20.2258 14.6743 20.163L24.4281 15.5159C24.6782 15.3903 24.8033 15.1391 24.6782 14.8879C24.5532 14.6367 24.3031 14.5111 24.053 14.6367L14.4867 19.221L4.92052 14.6367C4.67042 14.5739 4.42032 14.6367 4.29527 14.8879C4.23275 15.1391 4.29527 15.3903 4.54537 15.5159L14.3617 20.163Z" fill="#A9B0B0"/>
<path d="M14.5493 13.883C14.4868 13.883 14.4242 13.883 14.3617 13.8202L4.54538 9.17309C4.29529 9.04749 4.23276 8.79629 4.29529 8.5451C4.35781 8.2939 4.67043 8.2311 4.92053 8.2939L14.4868 12.8782L24.053 8.2939C24.3031 8.1683 24.5532 8.2939 24.6782 8.5451C24.8033 8.79629 24.6782 9.04749 24.4281 9.17309L14.6743 13.8202C14.6743 13.883 14.6118 13.883 14.5493 13.883Z" fill="#A9B0B0"/>
<path fill-rule="evenodd" clip-rule="evenodd" d="M4.4234 9.4181C4.23648 9.32422 4.10936 9.17581 4.04625 8.99833C3.98509 8.82632 3.98956 8.64389 4.03069 8.47866C4.09047 8.23851 4.27146 8.1021 4.45131 8.04188C4.62584 7.98345 4.82026 7.98637 4.98666 8.02816L5.01324 8.03483L14.4867 12.5747L23.9335 8.04765C24.1285 7.95055 24.3365 7.94747 24.5199 8.02643C24.6987 8.10337 24.8361 8.24968 24.9221 8.4226C25.02 8.61923 25.0235 8.82908 24.9445 9.0141C24.8679 9.19363 24.7222 9.33164 24.5501 9.4181L24.545 9.42064L14.8773 14.0267C14.8278 14.0896 14.7661 14.1201 14.7215 14.135C14.6526 14.1581 14.5776 14.1573 14.554 14.157C14.5521 14.157 14.5505 14.1569 14.5493 14.1569C14.5473 14.1569 14.5452 14.157 14.543 14.157C14.4795 14.1571 14.3419 14.1574 14.2105 14.0515L4.4234 9.4181ZM14.3617 13.8202C14.4242 13.883 14.4867 13.883 14.5493 13.883C14.6118 13.883 14.6743 13.883 14.6743 13.8202L24.4281 9.17309C24.6782 9.04749 24.8033 8.7963 24.6782 8.5451C24.5532 8.2939 24.3031 8.16831 24.053 8.2939L14.4867 12.8782L4.92052 8.2939C4.67042 8.2311 4.3578 8.2939 4.29527 8.5451C4.23275 8.7963 4.29527 9.04749 4.54537 9.17309L14.3617 13.8202Z" fill="#A9B0B0"/>
<path d="M24.2406 5.21696L14.7369 0.821025C14.6118 0.758226 14.4868 0.758226 14.3617 0.821025L4.85801 5.21696C4.67043 5.27976 4.60791 5.46816 4.60791 5.65656C4.60791 5.84495 4.73296 6.03335 4.85801 6.09615L14.3617 10.4921C14.4242 10.4921 14.4868 10.5549 14.5493 10.5549C14.6118 10.5549 14.6743 10.5549 14.7369 10.4921L24.2406 6.09615C24.4281 6.03335 24.4907 5.84495 24.4907 5.65656C24.4907 5.46816 24.4281 5.27976 24.2406 5.21696ZM14.5493 9.5501L6.17102 5.65656L14.5493 1.76301L22.9275 5.65656L14.5493 9.5501Z" fill="#A9B0B0"/>
<path fill-rule="evenodd" clip-rule="evenodd" d="M4.858 6.09615C4.73295 6.03335 4.6079 5.84495 4.6079 5.65656C4.6079 5.46816 4.67043 5.27976 4.858 5.21696L14.3617 0.821025C14.4868 0.758226 14.6118 0.758226 14.7368 0.821025L24.2405 5.21696C24.4281 5.27976 24.4906 5.46816 24.4906 5.65656C24.4906 5.84495 24.4281 6.03335 24.2405 6.09615L14.7368 10.4921C14.6743 10.5549 14.6118 10.5549 14.5493 10.5549C14.518 10.5549 14.4867 10.5392 14.4555 10.5235C14.4242 10.5078 14.393 10.4921 14.3617 10.4921L4.858 6.09615ZM14.8869 10.7243C14.7559 10.8292 14.6189 10.829 14.5555 10.8288C14.5534 10.8288 14.5513 10.8288 14.5493 10.8288C14.489 10.8288 14.4392 10.8138 14.4066 10.8016C14.3771 10.7905 14.3501 10.7768 14.3361 10.7698L14.3335 10.7685C14.3317 10.7676 14.3301 10.7668 14.3286 10.766H14.3019L4.73597 6.34128C4.61491 6.28049 4.5178 6.17421 4.4522 6.06439C4.38499 5.95189 4.33517 5.80953 4.33517 5.65656C4.33517 5.43382 4.41003 5.08796 4.75583 4.96264L14.2441 0.573859C14.4432 0.47538 14.6554 0.47538 14.8545 0.573859L24.3427 4.96264C24.6885 5.08796 24.7634 5.43382 24.7634 5.65656C24.7634 5.8793 24.6885 6.22516 24.3427 6.35047L14.8869 10.7243ZM14.5493 9.24828L6.82049 5.65656L14.5493 2.06484L22.2781 5.65656L14.5493 9.24828ZM14.5493 1.76301L6.17101 5.65656L14.5493 9.5501L22.9275 5.65656L14.5493 1.76301Z" fill="#A9B0B0"/>
</g>
<defs>
<filter id="filter0_d" x="0" y="0.5" width="29" height="28" filterUnits="userSpaceOnUse" color-interpolation-filters="sRGB">
<feFlood flood-opacity="0" result="BackgroundImageFix"/>
<feColorMatrix in="SourceAlpha" type="matrix" values="0 0 0 0 0 0 0 0 0 0 0 0 0 0 0 0 0 0 127 0"/>
<feOffset dy="4"/>
<feGaussianBlur stdDeviation="2"/>
<feColorMatrix type="matrix" values="0 0 0 0 0 0 0 0 0 0 0 0 0 0 0 0 0 0 0.25 0"/>
<feBlend mode="normal" in2="BackgroundImageFix" result="effect1_dropShadow"/>
<feBlend mode="normal" in="SourceGraphic" in2="effect1_dropShadow" result="shape"/>
</filter>
</defs>
</svg>
