<svg width="24" height="22" viewBox="0 0 24 22" fill="none" xmlns="http://www.w3.org/2000/svg">
<path d="M12.0065 18.2445C11.9361 18.2445 11.8658 18.2445 11.7954 18.1754L0.748954 13.0635C0.467516 12.9254 0.397156 12.6491 0.467516 12.3728C0.608235 12.0964 0.889673 12.0274 1.17111 12.0964L11.9361 17.1392L22.7011 12.0964C22.9826 11.9583 23.264 12.0964 23.4047 12.3728C23.5454 12.6491 23.4047 12.9254 23.1233 13.0635L12.1472 18.1754C12.1472 18.1754 12.0768 18.2445 12.0065 18.2445Z" fill="white"/>
<path fill-rule="evenodd" clip-rule="evenodd" d="M0.611717 13.3331C0.401366 13.2298 0.258322 13.0666 0.187301 12.8714C0.118475 12.6821 0.123511 12.4815 0.16979 12.2997L0.177961 12.2676L0.193028 12.238C0.298203 12.0315 0.464479 11.8911 0.663336 11.8214C0.856049 11.7538 1.06044 11.7587 1.24556 11.8042L1.27546 11.8115L11.9361 16.8054L22.5667 11.8256C22.7862 11.7188 23.0202 11.7154 23.2266 11.8023C23.4277 11.8869 23.5824 12.0478 23.6792 12.238C23.7894 12.4543 23.7932 12.6852 23.7044 12.8887C23.6182 13.0862 23.4543 13.238 23.2605 13.3331L23.2549 13.3359L12.3158 18.4304C12.3038 18.4397 12.2896 18.4501 12.2735 18.4607C12.2318 18.488 12.1339 18.5458 12.0065 18.5458C12.0042 18.5458 12.0019 18.5458 11.9995 18.5458C11.928 18.546 11.7731 18.5463 11.6253 18.4298L0.611717 13.3331ZM11.7954 18.1754C11.8658 18.2445 11.9361 18.2445 12.0065 18.2445C12.0768 18.2445 12.1472 18.1754 12.1472 18.1754L23.1233 13.0636C23.4047 12.9254 23.5454 12.6491 23.4047 12.3728C23.264 12.0965 22.9826 11.9583 22.7011 12.0965L11.9361 17.1393L1.17113 12.0965C0.889688 12.0274 0.60825 12.0965 0.467531 12.3728C0.397171 12.6491 0.467531 12.9254 0.748969 13.0636L11.7954 18.1754Z" fill="white"/>
<path d="M12.0065 21.6986C11.9361 21.6986 11.8658 21.6986 11.7954 21.6295L0.748954 16.5176C0.467516 16.3795 0.397156 16.1032 0.467516 15.8269C0.608235 15.5505 0.889673 15.4815 1.17111 15.5505L11.9361 20.5933L22.7011 15.5505C22.9826 15.4124 23.264 15.5505 23.4047 15.8269C23.5454 16.1032 23.4047 16.3795 23.1233 16.5176L12.1472 21.6295C12.1472 21.6986 12.0768 21.6986 12.0065 21.6986Z" fill="white"/>
<path fill-rule="evenodd" clip-rule="evenodd" d="M0.611717 16.7872C0.401366 16.6839 0.258322 16.5207 0.187301 16.3255C0.118475 16.1362 0.123511 15.9356 0.16979 15.7538L0.177961 15.7217L0.193028 15.6922C0.298203 15.4856 0.464479 15.3452 0.663336 15.2755C0.856049 15.2079 1.06044 15.2128 1.24556 15.2583L1.27546 15.2656L11.9361 20.2595L22.5667 15.2797C22.7862 15.1729 23.0202 15.1695 23.2266 15.2564C23.4277 15.341 23.5824 15.5019 23.6792 15.6922C23.7894 15.9084 23.7932 16.1393 23.7044 16.3428C23.6182 16.5403 23.4543 16.6921 23.2605 16.7872L23.2549 16.79L12.3756 21.8567C12.3199 21.9258 12.2505 21.9594 12.2003 21.9758C12.1228 22.0012 12.0383 22.0003 12.0119 22C12.0097 22 12.0079 21.9999 12.0065 21.9999C12.0042 21.9999 12.0019 21.9999 11.9995 21.9999C11.928 22.0001 11.7731 22.0004 11.6253 21.8839L0.611717 16.7872ZM11.7954 21.6295C11.8658 21.6986 11.9361 21.6986 12.0065 21.6986C12.0768 21.6986 12.1472 21.6986 12.1472 21.6295L23.1233 16.5177C23.4047 16.3795 23.5454 16.1032 23.4047 15.8269C23.264 15.5506 22.9826 15.4124 22.7011 15.5506L11.9361 20.5934L1.17113 15.5506C0.889688 15.4815 0.60825 15.5506 0.467531 15.8269C0.397171 16.1032 0.467531 16.3795 0.748969 16.5177L11.7954 21.6295Z" fill="white"/>
<path d="M12.0065 14.7215C11.9361 14.7215 11.8658 14.7215 11.7954 14.6524L0.748954 9.54059C0.467516 9.40244 0.397156 9.12612 0.467516 8.8498C0.537875 8.57349 0.889673 8.50441 1.17111 8.57349L11.9361 13.6163L22.7011 8.57349C22.9826 8.43533 23.264 8.57349 23.4047 8.8498C23.5454 9.12612 23.4047 9.40244 23.1233 9.54059L12.1472 14.6524C12.1472 14.7215 12.0768 14.7215 12.0065 14.7215Z" fill="white"/>
<path fill-rule="evenodd" clip-rule="evenodd" d="M0.611717 9.81015C0.401366 9.70689 0.258322 9.54364 0.187301 9.3484C0.118475 9.1592 0.123511 8.95852 0.16979 8.77677C0.237057 8.5126 0.440736 8.36255 0.643122 8.29632C0.839523 8.23204 1.05831 8.23525 1.24556 8.28122L1.27546 8.28856L11.9361 13.2824L22.5667 8.30266C22.7862 8.19585 23.0202 8.19246 23.2266 8.27931C23.4277 8.36395 23.5824 8.52489 23.6792 8.7151C23.7894 8.93139 23.7932 9.16223 23.7044 9.36575C23.6182 9.56324 23.4543 9.71505 23.2605 9.81015L23.2549 9.81294L12.3756 14.8796C12.3199 14.9488 12.2505 14.9824 12.2003 14.9988C12.1228 15.0242 12.0383 15.0232 12.0119 15.0229C12.0097 15.0229 12.0079 15.0229 12.0065 15.0229C12.0042 15.0229 12.0019 15.0229 11.9995 15.0229C11.928 15.023 11.7731 15.0234 11.6253 14.9069L0.611717 9.81015ZM11.7954 14.6525C11.8658 14.7216 11.9361 14.7216 12.0065 14.7216C12.0768 14.7216 12.1472 14.7216 12.1472 14.6525L23.1233 9.54064C23.4047 9.40249 23.5454 9.12617 23.4047 8.84985C23.264 8.57354 22.9826 8.43538 22.7011 8.57354L11.9361 13.6163L1.17113 8.57354C0.889688 8.50446 0.53789 8.57354 0.467531 8.84985C0.397171 9.12617 0.467531 9.40249 0.748969 9.54064L11.7954 14.6525Z" fill="white"/>
<path d="M22.9122 5.18861L12.2176 0.353079C12.0769 0.284 11.9361 0.284 11.7954 0.353079L1.10077 5.18861C0.889695 5.25769 0.819336 5.46493 0.819336 5.67216C0.819336 5.8794 0.960055 6.08664 1.10077 6.15572L11.7954 10.9912C11.8658 10.9912 11.9361 11.0603 12.0065 11.0603C12.0769 11.0603 12.1472 11.0603 12.2176 10.9912L22.9122 6.15572C23.1233 6.08664 23.1937 5.8794 23.1937 5.67216C23.1937 5.46493 23.1233 5.25769 22.9122 5.18861ZM12.0065 9.95506L2.57832 5.67216L12.0065 1.38926L21.4347 5.67216L12.0065 9.95506Z" fill="white"/>
<path fill-rule="evenodd" clip-rule="evenodd" d="M1.10079 6.15577C0.960074 6.08669 0.819355 5.87945 0.819355 5.67221C0.819355 5.46498 0.889714 5.25774 1.10079 5.18866L11.7954 0.353128C11.9362 0.284049 12.0769 0.284049 12.2176 0.353128L22.9122 5.18866C23.1233 5.25774 23.1937 5.46498 23.1937 5.67221C23.1937 5.87945 23.1233 6.08669 22.9122 6.15577L12.2176 10.9913C12.1472 11.0604 12.0769 11.0604 12.0065 11.0604C11.9713 11.0604 11.9362 11.0431 11.901 11.0258C11.8658 11.0086 11.8306 10.9913 11.7954 10.9913L1.10079 6.15577ZM12.3865 11.2467C12.239 11.3622 12.0848 11.3619 12.0135 11.3617C12.0111 11.3617 12.0088 11.3617 12.0065 11.3617C11.9387 11.3617 11.8826 11.3452 11.846 11.3317C11.8128 11.3195 11.7824 11.3045 11.7666 11.2968L11.7637 11.2953C11.7617 11.2943 11.7598 11.2934 11.7581 11.2926H11.7282L0.963471 6.42541C0.82724 6.35854 0.717966 6.24164 0.644136 6.12083C0.568511 5.99708 0.512451 5.84048 0.512451 5.67221C0.512451 5.4272 0.596686 5.04675 0.985818 4.90891L11.6631 0.0812452C11.8871 -0.0270817 12.1259 -0.0270817 12.35 0.0812452L23.0272 4.90891C23.4163 5.04675 23.5006 5.4272 23.5006 5.67221C23.5006 5.91723 23.4163 6.29767 23.0272 6.43552L12.3865 11.2467ZM12.0065 9.6231L3.30921 5.67221L12.0065 1.72132L20.7038 5.67221L12.0065 9.6231ZM12.0065 1.38931L2.57834 5.67221L12.0065 9.95511L21.4347 5.67221L12.0065 1.38931Z" fill="white"/>
</svg>
