<svg width="96" height="30" viewBox="0 0 96 30" fill="none" xmlns="http://www.w3.org/2000/svg"><path d="M17.71 22.317c.08.095.12.203.12.312 0 .095.028 2.294-1.92 3.244-.55.258-1.221.326-1.825.34l-1.558 1.954c.9.014 2.108 0 2.551-.054a5.813 5.813 0 002.323-.814 7.085 7.085 0 001.37-1.1c.497-.543.9-1.1 1.087-1.588a5.15 5.15 0 00.242-.801c.175-.774.255-2.023.269-3.04H16.38l1.33 1.547zm-.242-4.249l-.872 1.588 5.975-.014c1.946 0 2.94-.692 3.705-1.574h-8.808z" fill="#4196D4"/><path d="M11.252 16.195a.502.502 0 01.55.461c.014.122.296 2.986 2.927 2.986h.323l1.638-2.823h3.679V8.294c0-2.688-1.303-4.045-1.357-4.1l-.04-.04a5.048 5.048 0 00-2.497-1.71c-.82-.258-1.571-.258-2.444-.258h-4.23c.524.556.793 1.303.793 2.226a.498.498 0 01-.497.502.507.507 0 01-.497-.502c0-.706-.201-1.236-.59-1.602-.726-.679-1.92-.61-1.934-.61H2.927c-.027 0-.349-.014-.537.176-.148.135-.215.366-.215.678v10.82c0 .054-.107 2.375 1.423 3.936.027.027 1.786 1.846 3.934 1.846h4.566c-.887-.869-1.263-2.09-1.33-2.905 0-.271.215-.516.484-.556zm5.693-3.557l-3.21-1.493c1.088-2.159 3.868-.828 3.21 1.493z" fill="#4196D4"/><path d="M30.667 19.507c-.08-.082-.107-.177-.107-.299V7.072c0-.135.026-.244.107-.325a.373.373 0 01.295-.123h4.136c1.84 0 3.182.421 4.001 1.25.82.84 1.235 2.103 1.262 3.773a38.465 38.465 0 010 2.905c-.027 1.167-.215 2.131-.564 2.864-.349.733-.9 1.29-1.638 1.643-.752.366-1.732.543-2.967.543h-4.23c-.12.027-.215-.014-.295-.095zm4.444-1.426c.86 0 1.544-.122 2.041-.366.497-.23.873-.625 1.101-1.127.228-.516.35-1.208.376-2.09.027-.747.027-1.208.027-1.385 0-.204-.014-.652-.027-1.37-.027-1.236-.309-2.146-.873-2.716-.564-.57-1.477-.869-2.739-.869h-2.739v9.937l2.833-.014zm7.829.421c-.726-.76-1.115-1.792-1.182-3.108l-.027-.611.027-.584c.067-1.29.47-2.308 1.181-3.081.712-.774 1.692-1.154 2.887-1.154 1.289 0 2.296.42 3.008 1.249.711.841 1.074 1.968 1.074 3.393v.326c0 .122-.027.217-.108.299-.08.081-.174.108-.295.108h-6.136v.163c.027.774.268 1.44.698 1.982.43.557 1.02.828 1.732.828.564 0 1.007-.108 1.356-.326.35-.23.618-.448.792-.692.108-.15.188-.23.242-.258a.76.76 0 01.295-.04h.78c.107 0 .2.027.281.095.08.054.108.135.108.23 0 .258-.161.57-.484.95-.322.367-.765.693-1.356.964-.577.272-1.249.407-2.014.407-1.181 0-2.148-.38-2.86-1.14zm5.357-4.357v-.054c0-.842-.229-1.507-.672-2.037-.443-.53-1.047-.787-1.813-.787-.765 0-1.369.258-1.812.787-.43.53-.658 1.208-.658 2.037v.054h4.955zm4.565 5.063c-.564-.285-.954-.61-1.222-.964-.269-.353-.403-.638-.403-.855 0-.122.04-.217.12-.285a.384.384 0 01.27-.095h.751a.51.51 0 01.161.027c.04.027.094.082.161.163.269.34.551.61.887.815.362.217.63.352 1.289.352.63 0 1.007-.122 1.383-.366.376-.23.577-.584.577-1.032 0-.298-.08-.543-.242-.706-.16-.176-.43-.339-.832-.488-.376-.15-.953-.299-1.705-.462-1.02-.23-1.76-.556-2.175-.977-.43-.435-.632-.978-.632-1.67 0-.434.135-.869.39-1.276.255-.407.644-.746 1.154-1.004.51-.258 1.128-.38 1.827-.38.751 0 1.37.122 1.906.366.524.244.913.543 1.182.882.268.34.402.611.402.842a.35.35 0 01-.107.271.405.405 0 01-.282.11h-.671c-.161 0-.242-.069-.363-.19-.215-.245-.362-.422-.497-.53a2.195 2.195 0 00-.59-.326 2.971 2.971 0 00-.967-.136c-.577 0-1.02.122-1.33.367a1.17 1.17 0 00-.456.963c0 .245.067.462.188.638.121.163.376.34.752.49.363.148.9.298 1.625.447 1.114.23 1.92.57 2.376 1.018.47.435.698 1.005.698 1.71 0 .503-.147.978-.43 1.399-.295.42-.724.746-1.288.977a5.16 5.16 0 01-2.041.367c-.873-.041-1.302-.177-1.866-.462zm7.089.326a.411.411 0 01-.12-.312V7.059c0-.136.04-.245.12-.312.08-.082.175-.109.309-.109h.805a.414.414 0 01.43.434v6.218l3.303-2.729c.188-.136.309-.23.39-.258a1.07 1.07 0 01.362-.054h.927c.107 0 .2.027.268.095.067.068.094.163.094.299 0 .108-.067.23-.201.366l-3.935 3.23 4.82 4.67c.135.136.202.258.202.367a.43.43 0 01-.094.285c-.067.081-.16.109-.268.109h-.913c-.188 0-.323-.028-.403-.055-.08-.027-.202-.122-.35-.257l-4.202-4.032v3.91a.43.43 0 01-.12.311.402.402 0 01-.31.123h-.805c-.134-.014-.242-.055-.309-.136zm25.645-.991c-.698-.747-1.087-1.724-1.127-2.96l-.027-.773.027-.774c.04-1.235.43-2.213 1.14-2.96.712-.746 1.706-1.099 2.982-1.099 1.275 0 2.269.367 2.98 1.1.712.746 1.088 1.724 1.142 2.96.026.257.026.515.026.773 0 .244-.013.502-.026.774-.04 1.235-.43 2.212-1.128 2.959-.698.747-1.706 1.1-3.008 1.1-1.302.013-2.282-.353-2.98-1.1zm4.794-.95c.443-.489.684-1.168.711-2.09a6.66 6.66 0 00.027-.68c0-.339-.013-.57-.027-.678-.026-.91-.282-1.602-.711-2.09-.443-.49-1.034-.72-1.8-.72-.765 0-1.356.23-1.799.72-.443.488-.684 1.167-.711 2.09l-.027.678.027.68c.027.909.282 1.601.711 2.09.443.488 1.034.72 1.8.72.765 0 1.37-.245 1.799-.72zm-6.767-7.561c-.296 0-.591-.014-.927-.014-1.208 0-1.947.42-2.551.977v-.583s.013-.177-.174-.177h-1.222s-.161-.013-.161.177v9.054s-.014.176.174.176h1.235s.161.014.161-.176V14.09c.027-.909.296-1.642.766-2.09.497-.475.953-.502 1.799-.502h.927a.124.124 0 00.134-.122V10.14c-.027.014-.027-.108-.161-.108zm-3.491 4.086v-.027.027zm-2.968-.028c-.04-1.235-.43-2.212-1.141-2.959-.712-.746-1.705-1.1-2.98-1.1-1.223 0-1.948.503-2.552 1.073v-.692s.013-.177-.174-.177h-1.222s-.161-.013-.161.177v12.353s-.014.176.174.176h1.235s.161.014.161-.176v-4.113c.564.57 1.236 1.031 2.552 1.031 1.289 0 2.296-.366 3.007-1.1.698-.746 1.074-1.723 1.128-2.959.027-.258.027-.515.027-.773-.014-.245-.027-.503-.054-.76zm-1.611 1.44c-.027.909-.282 1.601-.712 2.09-.443.489-1.033.72-1.799.72-.765 0-1.356-.231-1.799-.72-.443-.489-.685-1.168-.712-2.09l-.027-.68.027-.678c.027-.91.282-1.602.712-2.09.443-.49 1.034-.72 1.8-.72.764 0 1.355.23 1.798.72.444.488.685 1.167.712 2.09.014.122.027.353.027.679-.013.339-.027.57-.027.678z" fill="#1D3E55"/></svg>