<svg width="31" height="30" viewBox="0 0 31 30" fill="currentColor" xmlns="http://www.w3.org/2000/svg">
<circle cx="15.4861" cy="15" r="15" />
<path d="M18.346 13.2766C17.944 13.5799 17.4801 13.8131 17.0084 13.9453C19.6449 14.684 21.5702 17.2265 21.5702 20.3056V20.8732H22.5985V20.3056C22.6294 17.1565 20.8588 14.4507 18.346 13.2766Z" fill="white"/>
<path d="M8.3728 20.2981V20.8734H9.39339V20.2981C9.39339 17.2657 11.2258 14.7464 13.7077 13.93C13.2129 13.7901 12.7799 13.5568 12.3392 13.2847C10.0197 14.5365 8.3728 17.1957 8.3728 20.2981Z" fill="white"/>
<path d="M15.3615 13.2768C17.3795 13.2768 19.0418 11.6439 19.0418 9.60678C19.0418 7.57741 17.4027 5.94458 15.3615 5.94458C13.3435 5.94458 11.6735 7.57741 11.6735 9.61456C11.6735 11.6517 13.3435 13.2768 15.3615 13.2768ZM15.3615 7.00981C16.8073 7.00981 17.9748 8.16834 17.9748 9.61456C17.9748 11.0608 16.8073 12.2193 15.3615 12.2193C13.9157 12.2193 12.7482 11.0608 12.7482 9.61456C12.7482 8.16834 13.9079 7.00981 15.3615 7.00981Z" fill="white"/>
<path d="M12.3162 20.1113V21.6431H13.213C13.2362 21.7208 13.2672 21.7908 13.3058 21.8686L12.6641 22.5139L13.7465 23.5947L14.3883 22.9493L14.6125 23.0426V23.9446H16.1356V23.0426L16.3599 22.9493L17.0016 23.5947L18.0763 22.5139L17.4346 21.8686C17.4655 21.7986 17.4964 21.7208 17.5196 21.6431H18.4165V20.1113H17.5196C17.4964 20.0336 17.4655 19.9636 17.4268 19.8858L18.0686 19.2405L16.9861 18.1597L16.3444 18.8051L16.1279 18.7118V17.8098H14.597V18.7118L14.3728 18.8051L13.7311 18.1597L12.6564 19.2483L13.2981 19.8936C13.2672 19.9636 13.2362 20.0336 13.2053 20.1113H12.3162ZM14.597 20.8733C14.597 20.4534 14.9372 20.1113 15.3547 20.1113C15.7723 20.1113 16.1124 20.4534 16.1124 20.8733C16.1124 21.2932 15.7723 21.6353 15.3547 21.6353C14.9372 21.6353 14.597 21.2932 14.597 20.8733Z" fill="white"/>
</svg>
