<svg width="32" height="32" viewBox="0 0 32 32" stroke="currentColor" fill="none" xmlns="http://www.w3.org/2000/svg">
  <path d="M21.147 11.2214C21.147 5.72882 16.653 1.23486 11.1604 1.23486C5.66779 1.23486 1.17383 5.72882 1.17383 11.2214C1.17383 13.3852 1.8396 15.3825 3.0047 17.0469L1.42349 20.8751L5.25168 19.2939C6.9161 20.459 8.91342 21.1248 11.0772 21.1248" stroke-width="1.3" stroke-miterlimit="10" stroke-linecap="round" stroke-linejoin="round"/>
  <path d="M6.16711 7.89261H16.1537" stroke-width="1.3" stroke-miterlimit="10" stroke-linecap="round" stroke-linejoin="round"/>
  <path d="M6.16711 11.2214H16.1537" stroke-width="1.3" stroke-miterlimit="10" stroke-linecap="round" stroke-linejoin="round"/>
  <path d="M6.16711 14.5503H13.657" stroke-width="1.3" stroke-miterlimit="10" stroke-linecap="round" stroke-linejoin="round"/>
  <path d="M21.0638 11.1382C26.5564 11.1382 31.0503 15.6322 31.0503 21.1248C31.0503 23.2885 30.3846 25.2859 29.2195 26.9503L30.8007 30.7785L26.9725 29.1973C25.3081 30.3624 23.3107 31.0281 21.147 31.0281C15.6544 31.0281 11.1604 26.5342 11.1604 21.0416C11.1604 15.549 15.5711 11.1382 21.0638 11.1382Z" stroke-width="1.3" stroke-miterlimit="10" stroke-linecap="round" stroke-linejoin="round"/>
  <path d="M16.1537 17.7959H26.1403" stroke-width="1.3" stroke-miterlimit="10" stroke-linecap="round" stroke-linejoin="round"/>
  <path d="M16.1537 21.1248H26.1403" stroke-width="1.3" stroke-miterlimit="10" stroke-linecap="round" stroke-linejoin="round"/>
  <path d="M16.1537 24.4536H26.1403" stroke-width="1.3" stroke-miterlimit="10" stroke-linecap="round" stroke-linejoin="round"/>
</svg>
