<svg width="43" height="32" viewBox="0 0 43 32" fill="none" xmlns="http://www.w3.org/2000/svg">
<path d="M30.3984 29.357C29.9186 29.357 29.5208 28.9591 29.5208 28.4794V26.9934C29.474 25.1681 28.7603 24.2555 27.8593 23.1088C27.4966 22.6525 27.1222 22.1727 26.7595 21.5994C25.6713 19.9964 25.098 18.0892 25.098 16.1235C25.098 13.8302 25.8936 11.724 27.2158 10.0508H0.0117188V27.9061C0.0117188 29.1581 1.06478 30.1643 2.36356 30.1643H30.8664V29.3453H30.3984V29.357ZM21.1431 25.3202H5.93226C5.45253 25.3202 5.05471 24.9224 5.05471 24.4427C5.05471 23.963 5.44083 23.5651 5.93226 23.5651H21.1431C21.6229 23.5651 22.0207 23.963 22.0207 24.4427C22.0207 24.9224 21.6229 25.3202 21.1431 25.3202ZM21.1431 20.64H5.93226C5.45253 20.64 5.05471 20.2421 5.05471 19.7624C5.05471 19.2827 5.44083 18.8849 5.93226 18.8849H21.1431C21.6229 18.8849 22.0207 19.2827 22.0207 19.7624C22.0207 20.2421 21.6229 20.64 21.1431 20.64ZM21.1431 15.9597H5.93226C5.45253 15.9597 5.05471 15.5619 5.05471 15.0821C5.05471 14.6024 5.44083 14.2046 5.93226 14.2046H21.1431C21.6229 14.2046 22.0207 14.6024 22.0207 15.0821C22.0207 15.5619 21.6229 15.9597 21.1431 15.9597Z" fill="#D3D6D7"/>
<path d="M34.9266 8.05011C30.4687 8.05011 26.8531 11.6773 26.8531 16.1236C26.8531 17.7383 27.3329 19.3062 28.2338 20.64C28.5614 21.1549 28.9125 21.5995 29.2401 22.0207C30.2112 23.261 31.2175 24.5364 31.276 26.9701V27.6019H38.5655V26.9935C38.5655 26.9818 38.5655 26.9818 38.5655 26.9701C38.624 24.5364 39.6303 23.261 40.6131 22.0207C40.9525 21.5995 41.2918 21.1549 41.6077 20.6517C42.5204 19.2945 43.0001 17.7383 43.0001 16.1119C43.0001 11.6656 39.3846 8.05011 34.9266 8.05011ZM33.9204 11.572C32.0482 11.9581 30.5623 13.409 30.1293 15.2694C30.0357 15.679 29.673 15.9481 29.2752 15.9481C29.205 15.9481 29.1465 15.9364 29.0763 15.9247C28.6082 15.8194 28.3157 15.3396 28.421 14.8716C29.0061 12.3443 31.0303 10.3785 33.5693 9.85202C34.0374 9.74671 34.5054 10.0626 34.6107 10.5307C34.716 10.9987 34.4001 11.4667 33.9204 11.572Z" fill="#3A8DDE"/>
<path d="M32.6097 31.6503H37.2432V29.3102H38.1207H31.7322H32.6097V31.6503Z" fill="#3A8DDE"/>
<path d="M37.2199 6.57578L37.2081 2.56245C37.2081 1.14667 36.003 0 34.5287 0H2.35184C1.05306 0 0 1.01796 0 2.25823V8.30748H28.6784C28.7603 8.30748 28.8422 8.33088 28.9241 8.35428C30.5856 7.06721 32.6566 6.29496 34.9148 6.29496C35.7222 6.29496 36.4827 6.40027 37.2199 6.57578ZM5.73333 5.72163C5.0898 5.72163 4.56327 5.1951 4.56327 4.55156C4.56327 3.90802 5.0898 3.38149 5.73333 3.38149C6.37687 3.38149 6.9034 3.90802 6.9034 4.55156C6.9034 5.1951 6.37687 5.72163 5.73333 5.72163ZM10.4136 5.72163C9.77007 5.72163 9.24354 5.1951 9.24354 4.55156C9.24354 3.90802 9.77007 3.38149 10.4136 3.38149C11.0571 3.38149 11.5837 3.90802 11.5837 4.55156C11.5837 5.1951 11.0571 5.72163 10.4136 5.72163ZM15.0939 5.72163C14.4503 5.72163 13.9238 5.1951 13.9238 4.55156C13.9238 3.90802 14.4503 3.38149 15.0939 3.38149C15.7374 3.38149 16.2639 3.90802 16.2639 4.55156C16.2639 5.1951 15.7374 5.72163 15.0939 5.72163Z" fill="#3A8DDE"/>
</svg>
