<svg width="27" height="27" viewBox="0 0 27 27" fill="none" xmlns="http://www.w3.org/2000/svg">
  <path d="M17.7132 9.35662C17.7132 4.76048 13.9528 1 9.35662 1C4.76048 1 1 4.76048 1 9.35662C1 11.1672 1.55711 12.8385 2.53205 14.2313L1.20892 17.4347L4.41229 16.1116C5.80506 17.0865 7.47638 17.6436 9.28698 17.6436" stroke="#8B9293" stroke-width="1.1" stroke-miterlimit="10" stroke-linecap="round" stroke-linejoin="round"/>
  <path d="M5.10889 6.57104H13.5351" stroke="#8B9293" stroke-width="1.1" stroke-miterlimit="10" stroke-linecap="round" stroke-linejoin="round"/>
  <path d="M5.10889 9.35669H13.5351" stroke="#8B9293" stroke-width="1.1" stroke-miterlimit="10" stroke-linecap="round" stroke-linejoin="round"/>
  <path d="M5.10889 12.1422H11.446" stroke="#8B9293" stroke-width="1.1" stroke-miterlimit="10" stroke-linecap="round" stroke-linejoin="round"/>
  <path d="M17.6434 9.28699C22.2396 9.28699 26 13.0475 26 17.6436C26 19.4542 25.4429 21.1255 24.468 22.5183L25.7911 25.7217L22.5878 24.3985C21.195 25.3735 19.5237 25.9306 17.7131 25.9306C13.1169 25.9306 9.35645 22.1701 9.35645 17.574C9.35645 12.9778 13.0473 9.28699 17.6434 9.28699Z" stroke="#8B9293" stroke-width="1.1" stroke-miterlimit="10" stroke-linecap="round" stroke-linejoin="round"/>
  <path d="M13.4648 14.858H21.8911" stroke="#8B9293" stroke-width="1.1" stroke-miterlimit="10" stroke-linecap="round" stroke-linejoin="round"/>
  <path d="M13.4648 17.6434H21.8911" stroke="#8B9293" stroke-width="1.1" stroke-miterlimit="10" stroke-linecap="round" stroke-linejoin="round"/>
  <path d="M13.4648 20.4291H21.8911" stroke="#8B9293" stroke-width="1.1" stroke-miterlimit="10" stroke-linecap="round" stroke-linejoin="round"/>
</svg>
