<svg width="39" height="42" viewBox="0 0 39 42"  fill="#3A8DDE" xmlns="http://www.w3.org/2000/svg">
<path d="M30.7983 25.9865C26.3874 25.9865 22.7915 29.5824 22.7915 33.9932C22.7915 38.4041 26.3874 42 30.7983 42C35.2091 42 38.8051 38.4041 38.8051 33.9932C38.8051 29.5824 35.2091 25.9865 30.7983 25.9865ZM35.0151 38.2877C34.8211 38.4817 34.5753 38.5722 34.3295 38.5722C34.0838 38.5722 33.838 38.4817 33.644 38.2877L30.0351 34.6788C29.854 34.4977 29.7505 34.2519 29.7505 33.9932V29.5824C29.7505 29.052 30.1903 28.6123 30.7207 28.6123C31.251 28.6123 31.6908 29.052 31.6908 29.5824V33.5922L35.0151 36.9165C35.3902 37.2917 35.3902 37.8996 35.0151 38.2877Z" />
<path d="M6.46749 15.2374H25.2233C25.676 15.2374 26.0511 14.8623 26.0511 14.4096V6.6486C26.0511 6.19587 25.676 5.82076 25.2233 5.82076H6.46749C6.01476 5.82076 5.63965 6.19587 5.63965 6.6486V14.4096C5.63965 14.8623 6.01476 15.2374 6.46749 15.2374Z" />
<path d="M30.7983 23.891C31.0958 23.891 31.3933 23.9039 31.6908 23.9298V2.91038C31.6908 1.30644 30.3844 0 28.7804 0H2.91038C1.30644 0 0 1.30644 0 2.91038V36.5414C0 38.1454 1.30644 39.4518 2.91038 39.4518H22.3129C21.291 37.8737 20.696 35.9981 20.696 33.9932C20.696 28.4182 25.2233 23.891 30.7983 23.891ZM6.79088 21.3816C6.26055 21.3816 5.82076 20.9418 5.82076 20.4115C5.82076 19.8811 6.26055 19.4413 6.79088 19.4413H24.8999C25.4302 19.4413 25.87 19.8811 25.87 20.4115C25.87 20.9418 25.4302 21.3816 24.8999 21.3816H6.79088ZM5.63967 6.6486C5.63967 6.19587 6.01478 5.82076 6.46751 5.82076H25.2233C25.676 5.82076 26.0511 6.19587 26.0511 6.6486V14.4096C26.0511 14.8623 25.676 15.2374 25.2233 15.2374H6.46751C6.01478 15.2374 5.63967 14.8623 5.63967 14.4096V6.6486ZM17.5658 33.2042H6.79088C6.26055 33.2042 5.82076 32.7644 5.82076 32.2341C5.82076 31.7037 6.26055 31.2639 6.79088 31.2639H17.5658C18.0961 31.2639 18.5359 31.7037 18.5359 32.2341C18.5359 32.7644 18.109 33.2042 17.5658 33.2042ZM17.5658 27.2929H6.79088C6.26055 27.2929 5.82076 26.8531 5.82076 26.3228C5.82076 25.7924 6.26055 25.3526 6.79088 25.3526H17.5658C18.0961 25.3526 18.5359 25.7924 18.5359 26.3228C18.5359 26.8531 18.109 27.2929 17.5658 27.2929Z" fill="#D3D6D7"/>
</svg>
