<svg width="26" height="25" viewBox="0 0 26 25" fill="#3A8DDE" xmlns="http://www.w3.org/2000/svg">
<g clip-path="url(#password-clip0)">
<path d="M12.7013 18.208C13.004 18.5107 13.0089 19.0088 12.7013 19.3115L11.9298 20.083C11.6271 20.3857 11.129 20.3857 10.8263 20.083L9.02454 18.2812L7.51575 19.79L9.27845 21.5527C9.58118 21.8555 9.58606 22.3535 9.27845 22.6563L7.16907 24.7656C6.86634 25.0684 6.36829 25.0684 6.06556 24.7656L4.30286 23.0029L2.5304 24.7705C2.22766 25.0732 1.72962 25.0732 1.42688 24.7705L0.660282 23.999C0.357548 23.6963 0.352665 23.1982 0.660282 22.8955L13.1163 10.4395C13.4337 11.3135 14.1173 11.9971 14.9913 12.3145L10.8995 16.4063L12.7013 18.208Z" fill="#D3D6D7"/>
<path d="M22.3054 0H16.0554C14.3318 0 12.9304 1.40137 12.9304 3.125V9.375C12.9304 11.0986 14.3318 12.5 16.0554 12.5H22.3054C24.0291 12.5 25.4304 11.0986 25.4304 9.375V3.125C25.4304 1.40137 24.0291 0 22.3054 0ZM18.7214 8.91602C18.1111 9.52637 17.1199 9.52637 16.5095 8.91602C15.8992 8.30566 15.8992 7.31445 16.5095 6.7041C17.1199 6.09375 18.1111 6.09375 18.7214 6.7041C19.3318 7.31934 19.3318 8.30566 18.7214 8.91602ZM21.8464 5.79102C21.2361 6.40137 20.2449 6.40137 19.6345 5.79102C19.0242 5.18066 19.0242 4.18945 19.6345 3.5791C20.2449 2.96875 21.2361 2.96875 21.8464 3.5791C22.4568 4.19434 22.4568 5.18066 21.8464 5.79102Z"/>
</g>
<defs>
<clipPath id="password-clip0">
<rect width="25" height="25" fill="white" transform="translate(0.43042)"/>
</clipPath>
</defs>
</svg>
