<svg width="37" height="37" viewBox="0 0 37 37"  fill="#3A8DDE" xmlns="http://www.w3.org/2000/svg">
<path d="M30.4152 2.58373C30.4152 1.1539 29.2488 0 27.8315 0H9.16844C7.73861 0 6.58472 1.1539 6.58472 2.58373V11.5139V16.2675L18.5 26.3264L30.4152 16.2675V11.5264V2.58373ZM13.0315 4.38983C14.0725 4.38983 14.9129 5.23017 14.9129 6.27119C14.9129 7.3122 14.0725 8.15254 13.0315 8.15254C11.9905 8.15254 11.1501 7.3122 11.1501 6.27119C11.1501 5.23017 12.003 4.38983 13.0315 4.38983ZM24.884 18.1864H11.9152C11.401 18.1864 10.9745 17.76 10.9745 17.2458C10.9745 16.7315 11.401 16.3051 11.9152 16.3051H24.884C25.3983 16.3051 25.8247 16.7315 25.8247 17.2458C25.8247 17.76 25.4108 18.1864 24.884 18.1864ZM24.884 12.6929H11.9152C11.401 12.6929 10.9745 12.2664 10.9745 11.7522C10.9745 11.238 11.401 10.8115 11.9152 10.8115H24.884C25.3983 10.8115 25.8247 11.238 25.8247 11.7522C25.8247 12.2664 25.4108 12.6929 24.884 12.6929ZM24.884 7.21186H17.2457C16.7315 7.21186 16.3051 6.78542 16.3051 6.27119C16.3051 5.75695 16.7315 5.33051 17.2457 5.33051H24.884C25.3983 5.33051 25.8247 5.75695 25.8247 6.27119C25.8247 6.78542 25.4108 7.21186 24.884 7.21186Z" />
<path d="M34.4288 11.5264H30.4153V16.2674L35.6831 11.8274C35.3068 11.6393 34.8804 11.5264 34.4288 11.5264Z" fill="#D3D6D7"/>
<path d="M2.24506 11.5264C1.88133 11.5264 1.54269 11.6142 1.22913 11.7522L6.58472 16.2674V11.5139H2.24506V11.5264Z" fill="#D3D6D7"/>
<path d="M0.0376256 13.2071C0.0125408 13.32 0 13.4329 0 13.5583V34.9681C0 35.1061 0.0125408 35.2315 0.0376256 35.357L10.5983 22.1247L0.0376256 13.2071Z" fill="#D3D6D7"/>
<path d="M19.1021 28.2705C18.9265 28.421 18.7133 28.4963 18.5 28.4963C18.2868 28.4963 18.0736 28.421 17.898 28.2705L12.0533 23.3414L1.30444 36.7993C1.59292 36.9247 1.90648 37 2.24512 37H34.7675C35.1939 37 35.5953 36.8871 35.9465 36.6864L25.16 23.1783L19.1021 28.2705Z" fill="#D3D6D7"/>
<path d="M37 35.0058C37 34.9932 37 34.9807 37 34.9681V13.8342C37 13.6335 36.9624 13.4454 36.9122 13.2573L26.5898 21.9742L37 35.0058Z" fill="#D3D6D7"/>
</svg>
