<svg width="22" height="26" viewBox="0 0 22 26" fill="none" xmlns="http://www.w3.org/2000/svg"><path fill-rule="evenodd" clip-rule="evenodd" d="M2.394 0C1.306 0 .424.919.424 2.053v21.894c0 1.134.882 2.053 1.97 2.053h17.062c1.088 0 1.969-.919 1.969-2.053V2.053C21.425.919 20.544 0 19.456 0H2.394zm-.657 2.053a.67.67 0 0 1 .657-.685h10.5v10.264l1.968-1.369 1.97 1.369V1.368h2.624a.67.67 0 0 1 .656.685v21.894a.67.67 0 0 1-.656.685H2.394a.67.67 0 0 1-.657-.685V2.053z" fill="#3A8DDE"/><path fill-rule="evenodd" clip-rule="evenodd" d="M16.634 16.274H3.75v-1.54h12.884v1.54zm0 3.178H3.75v-1.54h12.884v1.54zm0 3.081H3.75v-1.54h12.884v1.54z" fill="#fff"/></svg>