<svg xmlns="http://www.w3.org/2000/svg" viewBox="0 0 508.52 508.52"><g fill="#a9b0b0"><path d="M506.645 89.372c-4.036-12.935-15.637-22.502-29.907-22.502h-31.782v49.326c0 26.284-21.39 47.674-47.674 47.674s-47.674-21.39-47.674-47.674V66.87H158.753v49.326c0 26.284-21.39 47.674-47.674 47.674s-47.674-21.39-47.674-47.674V66.87H31.782c-14.27 0-25.903 9.567-29.907 22.502H0v387.365c0 17.544 14.239 31.782 31.782 31.782h444.955c17.544 0 31.782-14.239 31.782-31.782V89.372h-1.874zm-29.908 387.365H31.782v-254.26h444.955v254.26z"/><path d="M111.08 132.088c8.772 0 15.891-7.119 15.891-15.891V15.891C126.971 7.119 119.852 0 111.08 0S95.189 7.119 95.189 15.891v100.306c0 8.772 7.119 15.891 15.891 15.891zm286.201 0c8.74 0 15.891-7.119 15.891-15.891V15.891C413.172 7.119 406.021 0 397.281 0S381.39 7.119 381.39 15.891v100.306c0 8.772 7.151 15.891 15.891 15.891z"/></g></svg>