<svg width="14" height="14" viewBox="0 0 14 14" fill="none" xmlns="http://www.w3.org/2000/svg"><path d="M1.444 10.412h5.162L10.981 14v-3.588h1.575c.788 0 1.444-.656 1.444-1.487V1.487C14 .657 13.344 0 12.556 0H1.444C.656 0 0 .656 0 1.488v7.48c0 .788.656 1.444 1.444 1.444zM.875 1.487c0-.35.262-.612.569-.612h11.112c.307 0 .569.262.569.613v7.48c0 .35-.262.613-.569.613h-2.45v2.625L6.912 9.581H1.444c-.306 0-.569-.262-.569-.612V1.488z" fill="#A9B0B0"/><path d="M11.813 2.538h-9.67v.875h9.67v-.875zm-1.75 2.187h-7.92V5.6h7.92v-.875zm-1.75 2.144h-6.17v.875h6.17v-.875z" fill="#A9B0B0"/></svg>