<svg width="29" height="29" viewBox="0 0 29 29" fill="none" xmlns="http://www.w3.org/2000/svg"><g filter="url(#filter0_d)" fill="#A9B0B0"><path d="M14.55 17.086c-.063 0-.126 0-.188-.063l-9.817-4.647c-.25-.125-.312-.377-.25-.628.125-.251.375-.314.626-.251l9.566 4.584 9.566-4.584c.25-.126.5 0 .625.251s0 .503-.25.628l-9.754 4.647s-.062.063-.125.063z"/><path fill-rule="evenodd" clip-rule="evenodd" d="M4.423 12.621a.745.745 0 0 1-.377-.42.902.902 0 0 1-.015-.52l.007-.028.013-.027a.744.744 0 0 1 .418-.38.89.89 0 0 1 .518-.015l.026.007 9.474 4.54 9.446-4.527a.686.686 0 0 1 .587-.021.82.82 0 0 1 .402.396.695.695 0 0 1 .023.591.821.821 0 0 1-.395.404l-.005.003-9.72 4.631a.432.432 0 0 1-.275.105h-.007c-.063 0-.201 0-.332-.105L4.422 12.62zm9.939 4.402c.062.063.125.063.187.063.063 0 .125-.063.125-.063l9.754-4.647c.25-.125.375-.377.25-.628s-.375-.377-.625-.251l-9.566 4.584-9.566-4.584c-.25-.063-.5 0-.626.251-.062.251 0 .503.25.628l9.817 4.647z"/><path d="M14.55 20.226c-.063 0-.126 0-.188-.063l-9.817-4.647c-.25-.126-.312-.377-.25-.628.125-.251.375-.314.626-.251l9.566 4.584 9.566-4.584c.25-.126.5 0 .625.25.125.252 0 .503-.25.629l-9.754 4.647c0 .063-.062.063-.125.063z"/><path fill-rule="evenodd" clip-rule="evenodd" d="M4.423 15.76a.745.745 0 0 1-.377-.419.902.902 0 0 1-.015-.52l.007-.029.013-.027a.743.743 0 0 1 .418-.378.89.89 0 0 1 .518-.016l.026.007 9.474 4.54 9.446-4.528a.686.686 0 0 1 .587-.02.82.82 0 0 1 .402.395.695.695 0 0 1 .023.592.822.822 0 0 1-.395.404l-.005.002-9.668 4.606a.33.33 0 0 1-.155.109c-.07.023-.144.022-.168.022h-.011c-.063 0-.201 0-.332-.106l-9.788-4.633zm9.939 4.403c.062.063.125.063.187.063.063 0 .125 0 .125-.063l9.754-4.647c.25-.126.375-.377.25-.628s-.375-.377-.625-.251l-9.566 4.584-9.566-4.584c-.25-.063-.5 0-.626.25-.062.252 0 .503.25.629l9.817 4.647z"/><path d="M14.55 13.883c-.063 0-.126 0-.188-.063L4.545 9.173c-.25-.126-.312-.377-.25-.628.063-.251.375-.314.626-.251l9.566 4.584 9.566-4.584c.25-.126.5 0 .625.251s0 .502-.25.628l-9.754 4.647c0 .063-.062.063-.125.063z"/><path fill-rule="evenodd" clip-rule="evenodd" d="M4.423 9.418a.745.745 0 0 1-.377-.42.902.902 0 0 1-.015-.52c.06-.24.24-.376.42-.436a.975.975 0 0 1 .536-.014l.026.007 9.474 4.54 9.446-4.527a.686.686 0 0 1 .587-.022.82.82 0 0 1 .402.397.695.695 0 0 1 .023.591.822.822 0 0 1-.395.404l-.005.003-9.668 4.606a.33.33 0 0 1-.155.108.528.528 0 0 1-.168.022h-.011c-.063 0-.201 0-.332-.105L4.422 9.418zm9.939 4.402c.062.063.125.063.187.063.063 0 .125 0 .125-.063l9.754-4.647c.25-.126.375-.377.25-.628s-.375-.377-.625-.251l-9.566 4.584L4.92 8.294c-.25-.063-.563 0-.626.251-.062.251 0 .502.25.628l9.817 4.647z"/><path d="M24.24 5.217L14.738.821a.397.397 0 0 0-.375 0L4.858 5.217c-.188.063-.25.251-.25.44a.53.53 0 0 0 .25.44l9.504 4.395c.062 0 .125.063.187.063.063 0 .125 0 .188-.063l9.504-4.396c.187-.063.25-.251.25-.44 0-.188-.063-.376-.25-.439zM14.55 9.55L6.17 5.657l8.378-3.894 8.378 3.894L14.55 9.55z"/><path fill-rule="evenodd" clip-rule="evenodd" d="M4.858 6.096a.53.53 0 0 1-.25-.44c0-.188.062-.376.25-.439L14.362.821a.397.397 0 0 1 .375 0l9.504 4.396c.187.063.25.251.25.44 0 .188-.063.376-.25.44l-9.504 4.395c-.063.063-.125.063-.188.063a.221.221 0 0 1-.093-.031c-.032-.016-.063-.032-.094-.032L4.858 6.096zm10.029 4.628a.498.498 0 0 1-.332.105h-.006a.406.406 0 0 1-.142-.027.56.56 0 0 1-.07-.032l-.003-.002a.213.213 0 0 1-.005-.002h-.027L4.736 6.341a.805.805 0 0 1-.4-.685c0-.222.074-.568.42-.693l9.488-4.39a.668.668 0 0 1 .61 0l9.489 4.39c.346.125.42.47.42.694 0 .222-.075.568-.42.693l-9.456 4.374zm-.338-1.476L6.82 5.657l7.73-3.592 7.728 3.592-7.729 3.591zm0-7.485L6.171 5.657l8.378 3.893 8.378-3.893-8.378-3.894z"/></g><defs><filter id="filter0_d" x="0" y=".5" width="29" height="28" filterUnits="userSpaceOnUse" color-interpolation-filters="sRGB"><feFlood flood-opacity="0" result="BackgroundImageFix"/><feColorMatrix in="SourceAlpha" values="0 0 0 0 0 0 0 0 0 0 0 0 0 0 0 0 0 0 127 0"/><feOffset dy="4"/><feGaussianBlur stdDeviation="2"/><feColorMatrix values="0 0 0 0 0 0 0 0 0 0 0 0 0 0 0 0 0 0 0.25 0"/><feBlend in2="BackgroundImageFix" result="effect1_dropShadow"/><feBlend in="SourceGraphic" in2="effect1_dropShadow" result="shape"/></filter></defs></svg>