<svg width="24" height="22" viewBox="0 0 24 22" fill="none" xmlns="http://www.w3.org/2000/svg"><path d="M12.007 18.244c-.07 0-.141 0-.212-.069L.75 13.063c-.281-.138-.352-.414-.281-.69.14-.277.422-.346.703-.277l10.765 5.043 10.765-5.043c.282-.138.563 0 .704.277.14.276 0 .552-.282.69l-10.976 5.112s-.07.07-.14.07z" fill="#fff"/><path fill-rule="evenodd" clip-rule="evenodd" d="M.612 13.333a.826.826 0 0 1-.425-.462.971.971 0 0 1-.017-.571l.008-.032.015-.03a.83.83 0 0 1 .47-.417c.193-.067.397-.062.583-.017l.03.008 10.66 4.993 10.63-4.98a.788.788 0 0 1 .66-.023.914.914 0 0 1 .453.436.75.75 0 0 1 .025.65.913.913 0 0 1-.444.445l-.005.003-10.94 5.094a.494.494 0 0 1-.31.115H12a.57.57 0 0 1-.375-.115L.612 13.333zm11.183 4.842c.07.07.141.07.212.07.07 0 .14-.07.14-.07l10.976-5.111c.282-.139.422-.415.282-.691-.141-.276-.422-.415-.704-.276l-10.765 5.042-10.765-5.042c-.281-.07-.563 0-.703.276-.07.276 0 .552.281.69l11.046 5.112z" fill="#fff"/><path d="M12.007 21.699c-.07 0-.141 0-.212-.07L.75 16.518c-.281-.139-.352-.415-.281-.691.14-.277.422-.345.703-.277l10.765 5.043 10.765-5.043c.282-.138.563 0 .704.277.14.276 0 .553-.282.69L12.147 21.63c0 .069-.07.069-.14.069z" fill="#fff"/><path fill-rule="evenodd" clip-rule="evenodd" d="M.612 16.787a.826.826 0 0 1-.425-.461.971.971 0 0 1-.017-.572l.008-.032.015-.03a.83.83 0 0 1 .47-.417c.193-.067.397-.062.583-.017l.03.008 10.66 4.993 10.63-4.98a.788.788 0 0 1 .66-.023.914.914 0 0 1 .453.436.75.75 0 0 1 .025.65.913.913 0 0 1-.444.445l-.005.003-10.88 5.067a.372.372 0 0 1-.175.119.609.609 0 0 1-.188.024h-.013a.57.57 0 0 1-.374-.116L.612 16.787zm11.183 4.843c.07.069.141.069.212.069.07 0 .14 0 .14-.07l10.976-5.111c.282-.139.422-.415.282-.691-.141-.276-.422-.415-.704-.276l-10.765 5.042-10.765-5.042c-.281-.07-.563 0-.703.276-.07.276 0 .553.281.69l11.046 5.113z" fill="#fff"/><path d="M12.007 14.722c-.07 0-.141 0-.212-.07L.75 9.541C.468 9.402.397 9.126.468 8.85c.07-.277.422-.346.703-.277l10.765 5.043 10.765-5.043c.282-.138.563 0 .704.277.14.276 0 .552-.282.69l-10.976 5.112c0 .07-.07.07-.14.07z" fill="#fff"/><path fill-rule="evenodd" clip-rule="evenodd" d="M.612 9.81a.826.826 0 0 1-.425-.462.97.97 0 0 1-.017-.571.687.687 0 0 1 .473-.48c.197-.065.415-.062.603-.016l.03.008 10.66 4.993 10.63-4.98a.789.789 0 0 1 .66-.023.915.915 0 0 1 .453.436.75.75 0 0 1 .025.65.914.914 0 0 1-.444.445l-.005.003-10.88 5.067a.372.372 0 0 1-.175.119c-.077.025-.162.024-.188.024h-.013c-.071 0-.226 0-.374-.116L.612 9.81zm11.183 4.842c.07.07.141.07.212.07.07 0 .14 0 .14-.07l10.976-5.111c.282-.139.422-.415.282-.691-.141-.276-.422-.415-.704-.276l-10.765 5.042L1.171 8.574c-.281-.07-.633 0-.703.276-.07.276 0 .552.281.69l11.046 5.113z" fill="#fff"/><path d="M22.912 5.189L12.218.353a.456.456 0 0 0-.423 0L1.101 5.19c-.211.069-.282.276-.282.483 0 .207.141.415.282.484l10.694 4.835c.07 0 .141.07.212.07.07 0 .14 0 .21-.07l10.695-4.835c.211-.07.282-.277.282-.484 0-.207-.07-.414-.282-.483zM12.007 9.955L2.578 5.672l9.429-4.283 9.428 4.283-9.428 4.283z" fill="#fff"/><path fill-rule="evenodd" clip-rule="evenodd" d="M1.1 6.156a.58.58 0 0 1-.28-.484c0-.207.07-.414.28-.483L11.796.353a.458.458 0 0 1 .423 0L22.912 5.19c.211.069.282.276.282.483 0 .207-.07.415-.282.484L12.218 10.99c-.07.07-.141.07-.211.07-.036 0-.07-.018-.106-.035-.035-.017-.07-.035-.106-.035L1.101 6.156zm11.287 5.09a.57.57 0 0 1-.373.116h-.007a.464.464 0 0 1-.161-.03 1.113 1.113 0 0 1-.08-.035l-.002-.002a.258.258 0 0 0-.006-.002h-.03L.963 6.425a.806.806 0 0 1-.319-.304.871.871 0 0 1-.132-.449c0-.245.085-.625.474-.763L11.663.08a.767.767 0 0 1 .687 0l10.677 4.83c.39.138.474.518.474.763s-.085.626-.474.764l-10.64 4.81zm-.38-1.623l-8.698-3.95 8.698-3.952 8.697 3.951-8.697 3.951zm0-8.234L2.578 5.672l9.429 4.283 9.428-4.283-9.428-4.283z" fill="#fff"/></svg>