<svg width="21" height="20" viewBox="0 0 21 20" fill="none" xmlns="http://www.w3.org/2000/svg"><path d="M10.55 16.586c-.063 0-.126 0-.188-.063L.545 11.876c-.25-.126-.312-.377-.25-.628.125-.251.375-.314.625-.251l9.567 4.584 9.566-4.584c.25-.126.5 0 .625.251s0 .502-.25.628l-9.754 4.647s-.062.063-.125.063z" fill="#4C4F50"/><path fill-rule="evenodd" clip-rule="evenodd" d="M.423 12.121a.745.745 0 01-.377-.42.902.902 0 01-.015-.52l.007-.029.013-.026a.743.743 0 01.418-.38.89.89 0 01.518-.015l.026.007 9.474 4.54 9.446-4.527a.686.686 0 01.587-.022.82.82 0 01.402.397.695.695 0 01.023.591.822.822 0 01-.395.404l-.005.002-9.72 4.632a.432.432 0 01-.275.105h-.007c-.063 0-.201 0-.332-.106L.422 12.121zm9.939 4.402c.062.063.125.063.187.063.063 0 .125-.063.125-.063l9.754-4.647c.25-.126.375-.377.25-.628s-.375-.377-.625-.251l-9.566 4.584L.92 10.997c-.25-.063-.5 0-.626.251-.062.251 0 .502.25.628l9.817 4.647z" fill="#4C4F50"/><path d="M10.55 19.726c-.063 0-.126 0-.188-.063L.545 15.016c-.25-.126-.312-.377-.25-.628.125-.251.375-.314.625-.251l9.567 4.584 9.566-4.584c.25-.126.5 0 .625.251s0 .502-.25.628l-9.754 4.647c0 .063-.062.063-.125.063z" fill="#4C4F50"/><path fill-rule="evenodd" clip-rule="evenodd" d="M.423 15.261a.745.745 0 01-.377-.42.902.902 0 01-.015-.52l.007-.028.013-.027a.744.744 0 01.418-.38.89.89 0 01.518-.015l.026.007 9.474 4.54 9.446-4.527a.687.687 0 01.587-.022.821.821 0 01.402.397.695.695 0 01.023.591.822.822 0 01-.395.404l-.005.003-9.668 4.606a.33.33 0 01-.155.108.53.53 0 01-.168.022h-.011c-.063 0-.201 0-.332-.105L.422 15.26zm9.939 4.402c.062.063.125.063.187.063.063 0 .125 0 .125-.063l9.754-4.647c.25-.126.375-.377.25-.628s-.375-.377-.625-.251l-9.566 4.584L.92 14.137c-.25-.063-.5 0-.626.251-.062.251 0 .502.25.628l9.817 4.647z" fill="#4C4F50"/><path d="M10.55 13.383c-.063 0-.126 0-.188-.063L.545 8.673c-.25-.125-.312-.376-.25-.628.063-.25.375-.314.625-.25l9.567 4.584 9.566-4.585c.25-.125.5 0 .625.251.125.252 0 .503-.25.628l-9.754 4.647c0 .063-.062.063-.125.063z" fill="#4C4F50"/><path fill-rule="evenodd" clip-rule="evenodd" d="M.423 8.918a.745.745 0 01-.377-.42.902.902 0 01-.015-.52c.06-.24.24-.376.42-.436a.975.975 0 01.536-.014l.026.007 9.474 4.54 9.446-4.527a.686.686 0 01.587-.021.82.82 0 01.402.396.695.695 0 01.023.591.822.822 0 01-.395.404l-.005.003-9.668 4.606a.33.33 0 01-.155.108.53.53 0 01-.168.022h-.011c-.063 0-.201 0-.332-.105L.422 8.918zm9.939 4.402c.062.063.125.063.187.063.063 0 .125 0 .125-.063l9.754-4.647c.25-.125.375-.376.25-.628-.125-.25-.375-.376-.625-.25l-9.566 4.584L.92 7.794c-.25-.063-.563 0-.626.251-.062.252 0 .503.25.628l9.817 4.647z" fill="#4C4F50"/><path d="M20.24 4.717L10.738.321a.397.397 0 00-.375 0L.858 4.717c-.188.063-.25.251-.25.44a.53.53 0 00.25.44l9.504 4.395c.062 0 .125.063.187.063.063 0 .125 0 .188-.063l9.504-4.396c.187-.063.25-.251.25-.44 0-.188-.063-.376-.25-.439zM10.55 9.05L2.17 5.157l8.378-3.894 8.378 3.894L10.55 9.05z" fill="#4C4F50"/><path fill-rule="evenodd" clip-rule="evenodd" d="M.858 5.596a.53.53 0 01-.25-.44c0-.188.062-.376.25-.439L10.362.321a.397.397 0 01.375 0l9.504 4.396c.187.063.25.251.25.44 0 .188-.063.376-.25.44l-9.504 4.395c-.063.063-.125.063-.188.063-.031 0-.062-.016-.093-.031a.221.221 0 00-.094-.032L.858 5.596zm10.029 4.628a.498.498 0 01-.331.105h-.007a.405.405 0 01-.142-.027.56.56 0 01-.07-.032l-.003-.002-.005-.002h-.027L.736 5.841a.805.805 0 01-.4-.685c0-.222.074-.568.42-.693l9.488-4.39a.668.668 0 01.61 0l9.489 4.39c.346.125.42.47.42.694 0 .222-.074.568-.42.693l-9.456 4.374zm-.338-1.476L2.821 5.157l7.728-3.592 7.73 3.592-7.73 3.591zm0-7.485L2.171 5.157l8.378 3.893 8.379-3.893-8.379-3.894z" fill="#4C4F50"/></svg>