<svg width="21" height="21" viewBox="0 0 21 21" fill="none" xmlns="http://www.w3.org/2000/svg"><path d="M3.14 4.831h3.653a.507.507 0 00.511-.527.507.507 0 00-.51-.527H3.14a.507.507 0 00-.511.527c0 .301.219.527.51.527zm6.356 2.712h4.638a.412.412 0 00.402-.414V4.154c0-.189-.183-.415-.402-.415H9.496a.412.412 0 00-.402.415v2.975c-.037.226.183.414.402.414zm.401-2.975h3.835v2.11H9.897v-2.11zM3.14 7.543h3.653a.507.507 0 00.511-.527.507.507 0 00-.51-.527H3.14a.507.507 0 00-.511.527c0 .301.219.527.51.527z" fill="#A9B0B0"/><path d="M20.452 6.978h-3.14v-5.95C17.311.8 17.055.5 16.8.5H.511C.256.5 0 .764 0 1.027v17.025C0 19.408 1.06 20.5 2.374 20.5h16.252c1.315 0 2.374-1.092 2.374-2.448V7.506c-.037-.226-.256-.528-.548-.528zM2.374 19.408c-.73 0-1.315-.603-1.315-1.356V1.592h15.193V18.09c0 .527.183.941.475 1.355H2.374v-.037zm17.53-1.319c0 .754-.584 1.356-1.314 1.356-.73 0-1.315-.602-1.315-1.355V8.07h2.63v10.02z" fill="#A9B0B0"/><path d="M14.17 9.69H3.14a.507.507 0 00-.51.528c0 .301.219.527.51.527h10.994a.507.507 0 00.511-.527c.037-.302-.219-.528-.474-.528zm0 2.975H3.14a.507.507 0 00-.51.528c0 .301.219.527.51.527h10.994a.507.507 0 00.511-.527c0-.301-.219-.527-.474-.527zm0 2.976H3.14a.507.507 0 00-.51.527c0 .302.219.528.51.528h10.994a.507.507 0 00.511-.528c.037-.3-.219-.527-.474-.527z" fill="#A9B0B0"/></svg>