<svg width="30" height="30" viewBox="0 0 30 30" fill="none" xmlns="http://www.w3.org/2000/svg"><circle cx="15" cy="15" r="15" fill="#fff"/><path d="M15 3C8.387 3 3 8.387 3 15s5.387 12 12 12 12-5.387 12-12S21.613 3 15 3zm0 22.667C9.107 25.667 4.333 20.893 4.333 15S9.107 4.333 15 4.333 25.667 9.107 25.667 15 20.893 25.667 15 25.667z" fill="#54B162"/><path d="M19.747 14.28a1.52 1.52 0 100-3.04 1.52 1.52 0 000 3.04zm-9.494 0a1.52 1.52 0 100-3.04 1.52 1.52 0 000 3.04zm9.04 3.12c-2.4 2.133-6.186 2.133-8.586 0a.67.67 0 00-.934.053.67.67 0 00.054.934c1.44 1.306 3.306 1.946 5.173 1.946s3.733-.64 5.173-1.946a.67.67 0 00.054-.934.67.67 0 00-.934-.053z" fill="#54B162"/></svg>