<svg width="28" height="27" viewBox="0 0 28 27" fill="none" xmlns="http://www.w3.org/2000/svg"><path d="M6.415 7.363H19.25c.323 0 .585-.277.585-.616 0-.34-.262-.615-.585-.615H6.415c-.323 0-.585.276-.585.615 0 .34.262.616.585.616zm7 6.137h-7c-.323 0-.585.276-.585.616 0 .339.262.615.585.615h7c.323 0 .585-.276.585-.615 0-.346-.262-.616-.585-.616z" fill="#3A8DDE"/><path d="M25.769 2.456c-.033 0-.066.012-.099.012v-.012C25.67 1.104 24.626 0 23.335 0h-21C1.045 0 0 1.099 0 2.456v23.928c0 .248.142.472.36.57a.565.565 0 00.634-.132l5.661-5.954H23.33c1.285 0 2.335-1.098 2.335-2.456V8.232l1.679-1.767A2.43 2.43 0 0028 4.803c0-1.294-1-2.347-2.231-2.347zM24.5 18.406c0 .68-.525 1.226-1.165 1.226H6.415c-.153 0-.3.063-.41.178l-4.84 5.09V2.457c0-.679.525-1.225 1.165-1.225h21c.645 0 1.165.552 1.165 1.225v.42c-.11.08-.22.167-.312.27l-6.35 6.673H6.416c-.323 0-.585.276-.585.615 0 .34.262.616.585.616h10.489l-.558 2.945a.632.632 0 00.159.552c.11.115.262.178.41.178.038 0 .076-.006.115-.011l2.915-.616a.566.566 0 00.3-.167L24.5 9.456v8.95zm-4.955-5.475l-1.886.396.377-1.984 5.294-5.568 1.51 1.588-5.295 5.568zm6.978-7.334l-.853.897-1.51-1.588.854-.897c.197-.207.47-.328.755-.328.59 0 1.066.506 1.066 1.122 0 .293-.115.587-.312.794z" fill="#3A8DDE"/></svg>