<svg width="22" height="26" viewBox="0 0 22 26" fill="none" xmlns="http://www.w3.org/2000/svg"><path d="M21.113 4.189L17.39.173A.575.575 0 0 0 17.018 0H2.393a.46.46 0 0 0-.452.462v8.32c0 .116.106.231.213.231h.665c.106 0 .212-.115.212-.23V1.357c0-.087.08-.174.16-.174h12.923c.08 0 .16.087.16.174V4.91c0 .26.186.462.425.462h3.297c.08 0 .16.087.16.174V24.67c0 .087-.08.173-.16.173H3.217c-.08 0-.16-.086-.16-.173v-5.258c0-.115-.105-.23-.212-.23H2.18c-.106 0-.212.115-.212.23v6.125a.424.424 0 0 0 .425.462h18.454c.24 0 .426-.202.426-.462l-.027-20.945c0-.115-.053-.317-.133-.404z" fill="#4C4F50"/><path d="M10.53 12.856h-.638v1.04h.638a.55.55 0 0 0 .372-.145.523.523 0 0 0 .133-.375.576.576 0 0 0-.133-.376.502.502 0 0 0-.372-.144z" fill="#4C4F50"/><path d="M14.332 10.313H.425c-.239 0-.425.203-.425.463v6.644c0 .26.186.462.425.462h13.908c.239 0 .425-.202.425-.462v-6.644a.424.424 0 0 0-.425-.463zm-7.924 5.75c0 .057-.026.086-.053.115-.026.029-.053.029-.106.029H3.297c-.053 0-.08-.03-.106-.058-.027-.029-.053-.058-.053-.116v-.606c0-.058 0-.087.026-.116.027-.029.027-.057.053-.086L5 12.914H3.324c-.027 0-.08-.03-.107-.058-.026-.03-.053-.058-.053-.116v-.607c0-.057 0-.086.027-.115.026-.029.053-.058.106-.058h2.845c.054 0 .08.029.107.058.026.029.053.058.053.115v.607a.274.274 0 0 1-.08.202L4.52 15.254h1.702c.053 0 .08.028.107.057.026.03.053.058.053.116v.635h.026zm1.649 0c0 .028 0 .086-.027.115-.026.029-.053.058-.106.058h-.798c-.026 0-.08-.03-.106-.058-.027-.029-.053-.058-.053-.116v-3.929c0-.057.026-.086.053-.115.027-.029.053-.029.106-.029h.798c.053 0 .08 0 .106.029.027.029.027.058.027.115v3.93zm3.643-1.647c-.266.23-.665.346-1.143.346h-.639v1.3c0 .03 0 .087-.026.116-.027.029-.053.058-.107.058h-.797c-.027 0-.08-.03-.107-.058-.026-.029-.053-.058-.053-.116v-3.929c0-.057 0-.086.027-.115.026-.029.053-.058.106-.058h1.569c.479 0 .85.116 1.143.347.266.23.426.578.426 1.04 0 .49-.133.838-.399 1.069z" fill="#4C4F50"/></svg>