<svg width="96" height="30" viewBox="0 0 96 30" fill="none" xmlns="http://www.w3.org/2000/svg">
<path d="M17.7101 22.3167C17.7906 22.4118 17.8309 22.5204 17.8309 22.629C17.8309 22.724 17.8578 24.9231 15.9109 25.8733C15.3604 26.1312 14.689 26.1991 14.0848 26.2127L12.5273 28.1674C13.4269 28.181 14.6353 28.1674 15.0784 28.1131C15.884 28.0181 16.6896 27.733 17.4012 27.2986C17.898 27 18.3545 26.6199 18.7708 26.1991C19.2676 25.6561 19.6704 25.0995 19.8584 24.6109C19.9523 24.3801 20.0329 24.1086 20.1 23.8099C20.2746 23.0362 20.3552 21.7873 20.3686 20.7692H16.3808L17.7101 22.3167Z" fill="#4196D4"/>
<path d="M17.4684 18.0679L16.5956 19.6561L22.5706 19.6425C24.5175 19.6425 25.5111 18.9502 26.2764 18.0679H17.4684Z" fill="#4196D4"/>
<path d="M11.2517 16.1946C11.5337 16.1674 11.7754 16.371 11.8022 16.6561C11.8157 16.7783 12.0976 19.6425 14.7293 19.6425H15.0515L16.6896 16.819H20.3686V8.29412C20.3686 5.60633 19.0662 4.24887 19.0125 4.19457L18.9722 4.15384C18.3411 3.33936 17.4684 2.75565 16.4748 2.44343C15.6557 2.18552 14.9038 2.18552 14.0311 2.18552H9.80162C10.3253 2.74208 10.5938 3.48868 10.5938 4.41176C10.5938 4.69683 10.3655 4.91402 10.097 4.91402C9.82847 4.91402 9.60021 4.68325 9.60021 4.41176C9.60021 3.70588 9.39881 3.17647 9.00943 2.80995C8.28438 2.13122 7.08939 2.19909 7.07596 2.19909C7.06253 2.19909 7.04911 2.19909 7.04911 2.19909H2.92706C2.9002 2.19909 2.57796 2.18552 2.38998 2.37556C2.24228 2.51131 2.17515 2.74208 2.17515 3.05429V13.8733C2.17515 13.9276 2.06773 16.2489 3.5984 17.81C3.62525 17.8371 5.38417 19.6561 7.53247 19.6561H12.0976C11.2114 18.7873 10.8355 17.5656 10.7684 16.7511C10.7684 16.4796 10.9832 16.2353 11.2517 16.1946ZM16.9447 12.638L13.7357 11.1448C14.8233 8.98642 17.6026 10.3167 16.9447 12.638Z" fill="#4196D4"/>
<path d="M30.667 19.5068C30.5864 19.4253 30.5596 19.3303 30.5596 19.2081V7.07238C30.5596 6.93664 30.5864 6.82804 30.667 6.74659C30.7475 6.66514 30.8281 6.62442 30.9624 6.62442H35.0979C36.9373 6.62442 38.28 7.04523 39.0991 7.87329C39.9181 8.71492 40.3343 9.97736 40.3612 11.647C40.3746 12.0136 40.388 12.4887 40.388 13.086C40.388 13.6968 40.3746 14.1855 40.3612 14.552C40.3343 15.7194 40.1464 16.6832 39.7973 17.4163C39.4482 18.1493 38.8977 18.7059 38.1592 19.0588C37.4073 19.4253 36.4271 19.6018 35.1918 19.6018H30.9624C30.8415 19.6289 30.7475 19.5882 30.667 19.5068ZM35.1113 18.0814C35.9706 18.0814 36.6554 17.9593 37.1522 17.7149C37.649 17.4841 38.0249 17.0905 38.2532 16.5882C38.4814 16.0724 38.6023 15.3801 38.6291 14.4977C38.656 13.7511 38.656 13.2896 38.656 13.1131C38.656 12.9095 38.6425 12.4615 38.6291 11.7421C38.6023 10.5068 38.3203 9.59727 37.7564 9.02714C37.1924 8.457 36.2794 8.15836 35.0173 8.15836H32.2782V18.095L35.1113 18.0814Z" fill="#1D3E55"/>
<path d="M42.9392 18.5023C42.2141 17.7421 41.8247 16.7104 41.7576 15.3937L41.7307 14.7828L41.7576 14.1991C41.8247 12.9095 42.2275 11.8914 42.9392 11.1176C43.6508 10.3439 44.631 9.96379 45.8259 9.96379C47.1149 9.96379 48.1219 10.3846 48.8336 11.2127C49.5452 12.0543 49.9077 13.181 49.9077 14.6063V14.9321C49.9077 15.0543 49.8809 15.1493 49.8003 15.2308C49.7197 15.3122 49.6258 15.3394 49.5049 15.3394H43.3688V15.5023C43.3957 16.276 43.6374 16.9412 44.067 17.4842C44.4967 18.0407 45.0875 18.3122 45.7991 18.3122C46.363 18.3122 46.8061 18.2036 47.1552 17.9864C47.5043 17.7556 47.7728 17.5385 47.9474 17.2941C48.0548 17.1448 48.1354 17.0633 48.1891 17.0362C48.2428 17.009 48.3502 16.9955 48.4845 16.9955H49.2632C49.3706 16.9955 49.4646 17.0226 49.5452 17.0905C49.6258 17.1448 49.6526 17.2262 49.6526 17.3213C49.6526 17.5792 49.4915 17.8914 49.1692 18.2715C48.847 18.638 48.4039 18.9638 47.8131 19.2353C47.2358 19.5068 46.5644 19.6425 45.7991 19.6425C44.6175 19.6425 43.6508 19.2624 42.9392 18.5023ZM48.2965 14.1448V14.0905C48.2965 13.2489 48.0682 12.5837 47.6251 12.0543C47.1821 11.5249 46.5779 11.267 45.8125 11.267C45.0472 11.267 44.443 11.5249 43.9999 12.0543C43.5702 12.5837 43.342 13.2624 43.342 14.0905V14.1448H48.2965Z" fill="#1D3E55"/>
<path d="M52.8616 19.2081C52.2977 18.9231 51.9083 18.5973 51.6398 18.2443C51.3712 17.8914 51.237 17.6063 51.237 17.3891C51.237 17.267 51.2772 17.1719 51.3578 17.1041C51.4384 17.0362 51.5189 17.009 51.6263 17.009H52.3783C52.4454 17.009 52.4991 17.0226 52.5394 17.0362C52.5797 17.0633 52.6334 17.1176 52.7005 17.1991C52.969 17.5385 53.251 17.8099 53.5867 18.0136C53.9492 18.2308 54.2177 18.3665 54.8757 18.3665C55.5067 18.3665 55.8827 18.2443 56.2586 18C56.6346 17.7692 56.836 17.4163 56.836 16.9683C56.836 16.6697 56.7554 16.4253 56.5943 16.2624C56.4332 16.086 56.1646 15.9231 55.7618 15.7737C55.3859 15.6244 54.8085 15.4751 54.0566 15.3122C53.0362 15.0814 52.2977 14.7556 51.8815 14.3348C51.4518 13.9004 51.2504 13.3575 51.2504 12.6651C51.2504 12.2308 51.3847 11.7964 51.6398 11.3891C51.8949 10.9819 52.2843 10.6425 52.7945 10.3846C53.3047 10.1267 53.9223 10.0045 54.6205 10.0045C55.3724 10.0045 55.9901 10.1267 56.5272 10.371C57.0508 10.6154 57.4402 10.914 57.7087 11.2534C57.9773 11.5928 58.1115 11.8642 58.1115 12.095C58.1115 12.2036 58.0847 12.2851 58.0041 12.3665C57.9236 12.4344 57.843 12.4751 57.7221 12.4751H57.0508C56.8897 12.4751 56.8091 12.4072 56.6883 12.2851C56.4735 12.0407 56.3258 11.8642 56.1915 11.7556C56.0304 11.6335 55.8558 11.5249 55.6007 11.4299C55.3053 11.3348 55.0233 11.2941 54.634 11.2941C54.0566 11.2941 53.6135 11.4163 53.3047 11.6606C52.9959 11.905 52.8482 12.2308 52.8482 12.6244C52.8482 12.8688 52.9153 13.086 53.0362 13.2624C53.157 13.4253 53.4121 13.6018 53.7881 13.7511C54.1506 13.9004 54.6877 14.0498 55.4127 14.1991C56.5272 14.4299 57.3328 14.7692 57.7893 15.2172C58.2592 15.6516 58.4875 16.2217 58.4875 16.9276C58.4875 17.4299 58.3398 17.905 58.0578 18.3258C57.7624 18.7466 57.3328 19.0724 56.7688 19.3032C56.2049 19.5339 55.5201 19.6832 54.728 19.6697C53.8552 19.6289 53.4256 19.4932 52.8616 19.2081Z" fill="#1D3E55"/>
<path d="M59.951 19.5339C59.8704 19.4525 59.8302 19.3575 59.8302 19.2217V7.05881C59.8302 6.92307 59.8704 6.81447 59.951 6.7466C60.0316 6.66515 60.1256 6.638 60.2598 6.638H61.0654C61.1863 6.638 61.2937 6.67872 61.3743 6.76017C61.4548 6.84162 61.4951 6.93664 61.4951 7.07239V13.2896L64.7981 10.5611C64.9861 10.4253 65.1069 10.3303 65.1875 10.3032C65.2681 10.276 65.3755 10.2489 65.55 10.2489H66.4765C66.5839 10.2489 66.6779 10.276 66.745 10.3439C66.8122 10.4118 66.839 10.5068 66.839 10.6425C66.839 10.7511 66.7719 10.8733 66.6376 11.009L62.7035 14.2398L67.5238 18.9095C67.6581 19.0452 67.7252 19.1674 67.7252 19.276C67.7252 19.3846 67.6983 19.4796 67.6312 19.5611C67.5641 19.6425 67.4701 19.6697 67.3627 19.6697H66.4496C66.2617 19.6697 66.1274 19.6425 66.0468 19.6154C65.9663 19.5882 65.8454 19.4932 65.6977 19.3575L61.4951 15.3258V19.2353C61.4951 19.3575 61.4548 19.4661 61.3743 19.5475C61.2937 19.629 61.1997 19.6697 61.0654 19.6697H60.2598C60.1256 19.6561 60.0181 19.6154 59.951 19.5339Z" fill="#1D3E55"/>
<path d="M85.5964 18.543C84.8982 17.7964 84.5088 16.819 84.4685 15.5837L84.4417 14.81L84.4685 14.0362C84.5088 12.8009 84.8982 11.8235 85.6098 11.0769C86.3214 10.3303 87.315 9.97737 88.5905 9.97737C89.8661 9.97737 90.8597 10.3439 91.5713 11.0769C92.2829 11.8235 92.6589 12.8009 92.7126 14.0362C92.7394 14.2941 92.7394 14.552 92.7394 14.81C92.7394 15.0543 92.726 15.3122 92.7126 15.5837C92.6723 16.819 92.2829 17.7964 91.5847 18.543C90.8865 19.2896 89.8795 19.6425 88.5771 19.6425C87.2747 19.6561 86.2946 19.2896 85.5964 18.543ZM90.3897 17.5928C90.8328 17.1041 91.0745 16.4253 91.1014 15.5023C91.1148 15.3801 91.1282 15.1493 91.1282 14.8235C91.1282 14.4842 91.1148 14.2534 91.1014 14.1448C91.0745 13.2353 90.8194 12.543 90.3897 12.0543C89.9467 11.5656 89.3559 11.3348 88.5905 11.3348C87.8252 11.3348 87.2344 11.5656 86.7914 12.0543C86.3483 12.543 86.1066 13.2217 86.0797 14.1448L86.0529 14.8235L86.0797 15.5023C86.1066 16.4118 86.3617 17.1041 86.7914 17.5928C87.2344 18.0814 87.8252 18.3122 88.5905 18.3122C89.3559 18.3122 89.9601 18.0679 90.3897 17.5928Z" fill="#1D3E55"/>
<path d="M83.6226 10.0317C83.3272 10.0317 83.0318 10.0181 82.6961 10.0181C81.4877 10.0181 80.7492 10.4389 80.145 10.9955V10.4118C80.145 10.4118 80.1584 10.2353 79.9705 10.2353H78.7486C78.7486 10.2353 78.5875 10.2217 78.5875 10.4118V19.4661C78.5875 19.4661 78.5741 19.6425 78.762 19.6425H79.1917H79.9973C79.9973 19.6425 80.1584 19.6561 80.1584 19.4661V14.0905C80.1853 13.181 80.4538 12.448 80.9238 12C81.4206 11.5249 81.8771 11.4977 82.723 11.4977C83.0721 11.4977 83.3541 11.4977 83.6495 11.4977C83.7837 11.4977 83.7837 11.3756 83.7837 11.3756V10.1403C83.7569 10.1538 83.7569 10.0317 83.6226 10.0317ZM80.1316 14.1176V14.0905V14.1176Z" fill="#1D3E55"/>
<path d="M77.1643 14.0905C77.124 12.8552 76.7346 11.8778 76.023 11.1312C75.3114 10.3846 74.3178 10.0317 73.0422 10.0317C71.8204 10.0317 71.0953 10.5339 70.4911 11.1041V10.4118C70.4911 10.4118 70.5045 10.2353 70.3166 10.2353H69.0947C69.0947 10.2353 68.9336 10.2217 68.9336 10.4118V22.7647C68.9336 22.7647 68.9202 22.9412 69.1081 22.9412H69.5378H70.3434C70.3434 22.9412 70.5045 22.9547 70.5045 22.7647V18.6516C71.0685 19.2217 71.7398 19.6832 73.0556 19.6832C74.3446 19.6832 75.3516 19.3167 76.0633 18.5837C76.7615 17.8371 77.1374 16.8597 77.1911 15.6244C77.218 15.3665 77.218 15.1086 77.218 14.8507C77.2045 14.6063 77.1911 14.3484 77.1643 14.0905ZM75.553 15.5294C75.5262 16.4389 75.2711 17.1312 74.8414 17.6199C74.3983 18.1086 73.8075 18.3394 73.0422 18.3394C72.2769 18.3394 71.6861 18.1086 71.243 17.6199C70.7999 17.1312 70.5582 16.4525 70.5314 15.5294L70.5045 14.8507L70.5314 14.1719C70.5582 13.2624 70.8133 12.5701 71.243 12.0814C71.6861 11.5927 72.2769 11.362 73.0422 11.362C73.8075 11.362 74.3983 11.5927 74.8414 12.0814C75.2845 12.5701 75.5262 13.2489 75.553 14.1719C75.5665 14.2941 75.5799 14.5249 75.5799 14.8507C75.5665 15.19 75.553 15.4208 75.553 15.5294Z" fill="#1D3E55"/>
</svg>
