<svg width="35" height="45" viewBox="0 0 35 45" fill="none" xmlns="http://www.w3.org/2000/svg">
<path d="M24.38 0H1.17C0.519998 0 0 0.520001 0 1.54V44C0 44.28 0.519998 44.8 1.17 44.8H33.23C33.87 44.8 34.4 44.28 34.4 44V10.38C34.4 9.82 34.33 9.64 34.2 9.51L24.89 0.199997C24.75 0.079997 24.57 0 24.38 0Z" fill="#EFF0F0"/>
<path d="M24.79 0.119995V9.59999H34.27L24.79 0.119995Z" fill="#D3D6D7"/>
<path d="M33.22 44.8H1.17C0.519998 44.8 0 44.28 0 43.63V31.2H34.4V43.63C34.39 44.28 33.87 44.8 33.22 44.8Z" fill="#F9CC67"/>
<path d="M15.6099 34.18V40.46C15.6099 40.84 15.5399 41.16 15.3999 41.42C15.2599 41.68 15.0799 41.88 14.8399 42.04C14.6099 42.2 14.3399 42.31 14.0399 42.37C13.7399 42.43 13.4299 42.46 13.1099 42.46C12.9499 42.46 12.7599 42.44 12.5399 42.41C12.3299 42.37 12.0999 42.32 11.8799 42.26C11.6499 42.19 11.4299 42.11 11.2199 42.02C11.0099 41.93 10.8299 41.84 10.6799 41.73L11.2399 40.84C11.3099 40.89 11.4199 40.94 11.5499 41C11.6799 41.05 11.8299 41.11 11.9899 41.15C12.1499 41.2 12.3199 41.24 12.4899 41.27C12.6699 41.31 12.8299 41.32 12.9799 41.32C13.3699 41.32 13.6799 41.25 13.8999 41.09C14.1299 40.94 14.2499 40.69 14.2699 40.33V34.16H15.6099V34.18Z" fill="white"/>
<path d="M22.14 40.19C22.14 40.48 22.08 40.77 21.96 41.04C21.84 41.31 21.67 41.56 21.45 41.76C21.23 41.97 20.96 42.13 20.64 42.26C20.32 42.39 19.95 42.44 19.55 42.44C19.37 42.44 19.19 42.43 19.01 42.41C18.83 42.39 18.63 42.36 18.45 42.32C18.26 42.27 18.08 42.21 17.91 42.14C17.74 42.06 17.59 41.97 17.47 41.86L17.7 40.92C17.8 40.98 17.93 41.04 18.09 41.09C18.25 41.14 18.41 41.2 18.58 41.24C18.74 41.29 18.91 41.33 19.08 41.35C19.25 41.38 19.4 41.39 19.55 41.39C19.99 41.39 20.33 41.29 20.57 41.08C20.8 40.87 20.93 40.56 20.93 40.15C20.93 39.9 20.84 39.69 20.68 39.52C20.51 39.34 20.3 39.18 20.05 39.04C19.8 38.89 19.53 38.75 19.24 38.61C18.95 38.46 18.67 38.3 18.42 38.11C18.16 37.91 17.95 37.69 17.78 37.43C17.61 37.17 17.53 36.84 17.53 36.45C17.53 36.09 17.6 35.77 17.73 35.5C17.86 35.23 18.04 34.99 18.26 34.8C18.48 34.6 18.74 34.46 19.04 34.35C19.34 34.25 19.65 34.2 19.97 34.2C20.31 34.2 20.65 34.23 20.99 34.29C21.33 34.35 21.61 34.45 21.82 34.59C21.78 34.68 21.73 34.79 21.67 34.9C21.61 35.01 21.56 35.12 21.51 35.22C21.46 35.32 21.42 35.4 21.38 35.47C21.34 35.54 21.32 35.57 21.31 35.58C21.27 35.56 21.22 35.53 21.16 35.49C21.11 35.45 21.03 35.42 20.93 35.38C20.83 35.34 20.69 35.32 20.52 35.3C20.35 35.28 20.14 35.29 19.87 35.31C19.72 35.33 19.59 35.36 19.45 35.43C19.32 35.5 19.2 35.59 19.1 35.69C19 35.79 18.92 35.9 18.86 36.03C18.8 36.16 18.77 36.28 18.77 36.4C18.77 36.69 18.85 36.93 19.02 37.11C19.19 37.29 19.4 37.44 19.65 37.58C19.9 37.72 20.16 37.85 20.46 37.97C20.75 38.09 21.02 38.25 21.28 38.43C21.53 38.61 21.74 38.84 21.91 39.11C22.06 39.41 22.14 39.76 22.14 40.19Z" fill="white"/>
<path d="M10.39 15.2V12C10.39 11.56 10.75 11.2 11.19 11.2C11.63 11.2 11.99 10.84 11.99 10.4C11.99 9.96001 11.63 9.60001 11.19 9.60001C9.87001 9.60001 8.79002 10.67 8.79002 12V15.2C8.79002 16.08 8.07001 16.8 7.19001 16.8C6.75001 16.8 6.39001 17.16 6.39001 17.6C6.39001 18.04 6.75001 18.4 7.19001 18.4C8.07001 18.4 8.79002 19.12 8.79002 20V23.2C8.79002 24.52 9.86001 25.6 11.19 25.6C11.63 25.6 11.99 25.24 11.99 24.8C11.99 24.36 11.63 24 11.19 24C10.75 24 10.39 23.64 10.39 23.2V20C10.39 19.04 9.96002 18.19 9.29002 17.6C9.96002 17.01 10.39 16.16 10.39 15.2Z" fill="#F9CC67"/>
<path d="M17.99 14.8C17.99 15.46 17.45 16 16.79 16C16.13 16 15.59 15.46 15.59 14.8C15.59 14.14 16.13 13.6 16.79 13.6C17.45 13.6 17.99 14.14 17.99 14.8Z" fill="#F9CC67"/>
<path d="M26.39 16.8C25.51 16.8 24.79 16.08 24.79 15.2V12C24.79 10.68 23.71 9.60001 22.39 9.60001C21.95 9.60001 21.59 9.96001 21.59 10.4C21.59 10.84 21.95 11.2 22.39 11.2C22.83 11.2 23.19 11.56 23.19 12V15.2C23.19 16.16 23.62 17.01 24.3 17.6C23.63 18.19 23.19 19.04 23.19 20V23.2C23.19 23.64 22.83 24 22.39 24C21.95 24 21.59 24.36 21.59 24.8C21.59 25.24 21.95 25.6 22.39 25.6C23.72 25.6 24.79 24.52 24.79 23.2V20C24.79 19.12 25.51 18.4 26.39 18.4C26.84 18.4 27.19 18.04 27.19 17.6C27.19 17.16 26.84 16.8 26.39 16.8Z" fill="#F9CC67"/>
<path d="M16.79 19.2C16.35 19.2 15.99 19.56 15.99 20V22.4C15.99 22.84 16.35 23.2 16.79 23.2C17.23 23.2 17.59 22.84 17.59 22.4V20C17.6 19.56 17.24 19.2 16.79 19.2Z" fill="#F9CC67"/>
</svg>
