<svg width="35" height="45" viewBox="0 0 35 45" fill="none" xmlns="http://www.w3.org/2000/svg">
<path d="M24.38 0H1.17C0.519998 0 0 0.520001 0 1.54V44C0 44.28 0.519998 44.8 1.17 44.8H33.23C33.87 44.8 34.4 44.28 34.4 44V10.38C34.4 9.82 34.33 9.64 34.2 9.51L24.89 0.200001C24.75 0.0800008 24.57 0 24.38 0Z" fill="#EFF0F0"/>
<path d="M24.79 0.119995V9.59999H34.27L24.79 0.119995Z" fill="#D3D6D7"/>
<path d="M33.22 44.8H1.17C0.519998 44.8 0 44.28 0 43.63V31.2H34.4V43.63C34.39 44.28 33.87 44.8 33.22 44.8Z" fill="#BEB5D7"/>
<path d="M8.40998 34.18V40.46C8.40998 40.84 8.33998 41.16 8.19998 41.42C8.05998 41.68 7.87998 41.88 7.64998 42.04C7.41998 42.2 7.14998 42.31 6.84998 42.37C6.53998 42.43 6.23998 42.46 5.90998 42.46C5.74998 42.46 5.55998 42.44 5.34998 42.41C5.12998 42.37 4.90998 42.32 4.67998 42.26C4.44998 42.19 4.22998 42.11 4.01998 42.02C3.80998 41.93 3.62998 41.84 3.47998 41.73L4.03998 40.84C4.10998 40.89 4.21998 40.94 4.34998 41C4.47998 41.05 4.62998 41.11 4.78998 41.15C4.94998 41.2 5.11998 41.24 5.28998 41.27C5.46998 41.31 5.62998 41.32 5.77998 41.32C6.16998 41.32 6.47998 41.25 6.69998 41.09C6.92998 40.94 7.04998 40.69 7.06998 40.33V34.16H8.40998V34.18Z" fill="white"/>
<path d="M14.94 40.19C14.94 40.48 14.88 40.77 14.76 41.04C14.64 41.31 14.47 41.56 14.25 41.76C14.03 41.97 13.76 42.13 13.44 42.26C13.12 42.39 12.75 42.44 12.35 42.44C12.18 42.44 12 42.43 11.81 42.41C11.62 42.39 11.44 42.36 11.25 42.32C11.06 42.27 10.88 42.21 10.71 42.14C10.54 42.06 10.39 41.97 10.27 41.86L10.5 40.92C10.6 40.98 10.73 41.04 10.89 41.09C11.05 41.14 11.21 41.2 11.37 41.24C11.54 41.29 11.71 41.33 11.87 41.35C12.04 41.38 12.19 41.39 12.34 41.39C12.78 41.39 13.12 41.29 13.36 41.08C13.6 40.87 13.72 40.56 13.72 40.15C13.72 39.9 13.64 39.69 13.47 39.52C13.3 39.34 13.09 39.18 12.84 39.04C12.59 38.89 12.32 38.75 12.02 38.61C11.73 38.46 11.46 38.3 11.2 38.11C10.95 37.91 10.74 37.69 10.57 37.43C10.4 37.17 10.32 36.84 10.32 36.45C10.32 36.09 10.39 35.77 10.52 35.5C10.65 35.23 10.83 34.99 11.05 34.8C11.27 34.6 11.53 34.46 11.83 34.35C12.12 34.25 12.44 34.2 12.76 34.2C13.1 34.2 13.44 34.23 13.77 34.29C14.11 34.35 14.39 34.45 14.6 34.59C14.56 34.68 14.51 34.79 14.45 34.9C14.39 35.01 14.34 35.12 14.29 35.22C14.24 35.32 14.2 35.4 14.16 35.47C14.12 35.54 14.1 35.57 14.09 35.58C14.04 35.56 14 35.53 13.94 35.49C13.89 35.45 13.81 35.42 13.71 35.38C13.6 35.34 13.47 35.32 13.3 35.3C13.13 35.28 12.92 35.29 12.65 35.31C12.5 35.33 12.37 35.36 12.23 35.43C12.1 35.5 11.98 35.59 11.88 35.69C11.77 35.79 11.7 35.9 11.64 36.03C11.58 36.16 11.55 36.28 11.55 36.4C11.55 36.69 11.63 36.93 11.8 37.11C11.97 37.29 12.18 37.44 12.42 37.58C12.67 37.72 12.94 37.85 13.23 37.97C13.52 38.09 13.79 38.25 14.04 38.43C14.29 38.61 14.5 38.84 14.67 39.11C14.85 39.41 14.94 39.76 14.94 40.19Z" fill="white"/>
<path d="M22.86 38.33C22.86 39.01 22.77 39.6 22.6 40.12C22.43 40.64 22.19 41.07 21.89 41.41C21.59 41.75 21.23 42.01 20.83 42.19C20.43 42.37 19.98 42.45 19.5 42.45C19.02 42.45 18.58 42.36 18.17 42.19C17.76 42.02 17.41 41.76 17.11 41.41C16.81 41.07 16.57 40.64 16.4 40.12C16.23 39.6 16.15 39 16.15 38.33C16.15 37.65 16.23 37.06 16.4 36.54C16.57 36.03 16.81 35.6 17.11 35.26C17.42 34.92 17.77 34.66 18.17 34.48C18.58 34.3 19.02 34.21 19.5 34.21C19.98 34.21 20.43 34.3 20.83 34.48C21.24 34.66 21.59 34.92 21.89 35.26C22.19 35.6 22.43 36.03 22.6 36.54C22.77 37.06 22.86 37.65 22.86 38.33ZM19.47 41.38C19.74 41.38 19.99 41.33 20.24 41.22C20.49 41.11 20.7 40.94 20.9 40.7C21.09 40.46 21.24 40.14 21.35 39.75C21.46 39.36 21.52 38.89 21.53 38.32C21.52 37.77 21.47 37.31 21.36 36.93C21.25 36.55 21.11 36.23 20.92 35.98C20.73 35.73 20.52 35.55 20.28 35.44C20.05 35.33 19.8 35.28 19.53 35.28C19.26 35.28 19 35.33 18.76 35.43C18.51 35.53 18.3 35.7 18.1 35.95C17.91 36.19 17.76 36.51 17.65 36.9C17.54 37.29 17.48 37.76 17.47 38.32C17.48 38.87 17.53 39.33 17.64 39.72C17.75 40.11 17.89 40.42 18.08 40.67C18.27 40.92 18.48 41.1 18.72 41.21C18.95 41.33 19.2 41.38 19.47 41.38Z" fill="white"/>
<path d="M30.54 34.34V42.4H29.21L26.05 36.85V42.4H24.72V34.34H26.05L29.21 39.89V34.34H30.54Z" fill="white"/>
<path d="M10.39 15.2V12C10.39 11.56 10.75 11.2 11.19 11.2C11.63 11.2 11.99 10.84 11.99 10.4C11.99 9.95998 11.63 9.59998 11.19 9.59998C9.87001 9.59998 8.79002 10.67 8.79002 12V15.2C8.79002 16.08 8.07001 16.8 7.19001 16.8C6.75001 16.8 6.39001 17.16 6.39001 17.6C6.39001 18.04 6.75001 18.4 7.19001 18.4C8.07001 18.4 8.79002 19.12 8.79002 20V23.2C8.79002 24.52 9.86001 25.6 11.19 25.6C11.63 25.6 11.99 25.24 11.99 24.8C11.99 24.36 11.63 24 11.19 24C10.75 24 10.39 23.64 10.39 23.2V20C10.39 19.04 9.96002 18.19 9.29002 17.6C9.96002 17.01 10.39 16.16 10.39 15.2Z" fill="#BEB5D7"/>
<path d="M17.99 14.8C17.99 15.46 17.45 16 16.79 16C16.13 16 15.59 15.46 15.59 14.8C15.59 14.14 16.13 13.6 16.79 13.6C17.45 13.6 17.99 14.14 17.99 14.8Z" fill="#BEB5D7"/>
<path d="M26.39 16.8C25.51 16.8 24.79 16.08 24.79 15.2V12C24.79 10.68 23.71 9.59998 22.39 9.59998C21.95 9.59998 21.59 9.95998 21.59 10.4C21.59 10.84 21.95 11.2 22.39 11.2C22.83 11.2 23.19 11.56 23.19 12V15.2C23.19 16.16 23.62 17.01 24.3 17.6C23.63 18.19 23.19 19.04 23.19 20V23.2C23.19 23.64 22.83 24 22.39 24C21.95 24 21.59 24.36 21.59 24.8C21.59 25.24 21.95 25.6 22.39 25.6C23.72 25.6 24.79 24.52 24.79 23.2V20C24.79 19.12 25.51 18.4 26.39 18.4C26.84 18.4 27.19 18.04 27.19 17.6C27.19 17.16 26.84 16.8 26.39 16.8Z" fill="#BEB5D7"/>
<path d="M16.79 19.2C16.35 19.2 15.99 19.56 15.99 20V22.4C15.99 22.84 16.35 23.2 16.79 23.2C17.23 23.2 17.59 22.84 17.59 22.4V20C17.6 19.56 17.24 19.2 16.79 19.2Z" fill="#BEB5D7"/>
</svg>
