<svg width="35" height="45" viewBox="0 0 35 45" fill="none" xmlns="http://www.w3.org/2000/svg">
<path d="M24.38 0H1.17C0.519998 0 0 0.52 0 1.54V44C0 44.28 0.519998 44.8 1.17 44.8H33.23C33.87 44.8 34.4 44.28 34.4 44V10.38C34.4 9.82 34.33 9.64 34.2 9.51L24.89 0.2C24.75 0.07 24.57 0 24.38 0Z" fill="#EFF0F0"/>
<path d="M24.79 0.119995V9.6H34.27L24.79 0.119995Z" fill="#D3D6D7"/>
<path d="M33.22 44.8H1.17C0.519998 44.8 0 44.28 0 43.63V31.2H34.4V43.63C34.39 44.28 33.87 44.8 33.22 44.8Z" fill="#1375B7"/>
<path d="M11.46 42.4L9.94 39.48C9.92 39.48 9.89 39.48 9.85 39.48C9.81 39.48 9.76 39.49 9.68 39.49H8.69V42.4H7.38V34.34H9.7C10.04 34.34 10.38 34.4 10.72 34.5C11.06 34.61 11.36 34.77 11.62 34.99C11.89 35.21 12.1 35.47 12.26 35.78C12.42 36.09 12.51 36.44 12.51 36.82C12.51 37.4 12.38 37.9 12.11 38.31C11.84 38.72 11.47 39.02 11.02 39.22L12.86 42.39H11.46V42.4ZM8.69 38.53H9.89C10.05 38.53 10.21 38.5 10.37 38.45C10.53 38.4 10.67 38.31 10.81 38.18C10.94 38.06 11.04 37.88 11.13 37.66C11.21 37.44 11.25 37.16 11.25 36.83C11.25 36.7 11.23 36.55 11.2 36.38C11.16 36.21 11.09 36.04 10.97 35.89C10.86 35.73 10.7 35.6 10.5 35.49C10.29 35.38 10.02 35.33 9.69 35.33H8.7V38.53H8.69Z" fill="white"/>
<path d="M20.31 34.34V35.23H17.9V42.39H16.58V35.23H14.17V34.34H20.31Z" fill="white"/>
<path d="M23.24 35.34V37.88H26.61V38.78H23.24V42.41H21.91V34.35H26.95V35.35H23.24V35.34Z" fill="white"/>
<path d="M4.78999 10.4H9.58999C10.03 10.4 10.39 10.04 10.39 9.59999C10.39 9.15999 10.04 8.79999 9.58999 8.79999H4.78999C4.34999 8.79999 3.98999 9.15999 3.98999 9.59999C3.98999 10.04 4.34999 10.4 4.78999 10.4Z" fill="#A9B0B0"/>
<path d="M4.78999 14.4H11.99C12.43 14.4 12.79 14.05 12.79 13.6C12.79 13.16 12.43 12.8 11.99 12.8H4.78999C4.34999 12.8 3.98999 13.16 3.98999 13.6C3.98999 14.04 4.34999 14.4 4.78999 14.4Z" fill="#A9B0B0"/>
<path d="M15.19 14.4C15.4 14.4 15.61 14.32 15.76 14.17C15.9 14.02 15.99 13.81 15.99 13.6C15.99 13.39 15.9 13.18 15.76 13.03C15.46 12.73 14.93 12.73 14.62 13.03C14.48 13.18 14.39 13.38 14.39 13.6C14.39 13.81 14.48 14.01 14.62 14.17C14.77 14.31 14.99 14.4 15.19 14.4Z" fill="#A9B0B0"/>
<path d="M18.39 14.4H24.79C25.23 14.4 25.59 14.05 25.59 13.6C25.59 13.16 25.23 12.8 24.79 12.8H18.39C17.95 12.8 17.59 13.16 17.59 13.6C17.6 14.04 17.95 14.4 18.39 14.4Z" fill="#A9B0B0"/>
<path d="M4.21999 25.03C4.07999 25.18 3.98999 25.38 3.98999 25.6C3.98999 25.81 4.07999 26.01 4.21999 26.17C4.36999 26.31 4.56999 26.4 4.78999 26.4C4.99999 26.4 5.19999 26.32 5.35999 26.17C5.49999 26.02 5.58999 25.81 5.58999 25.6C5.58999 25.39 5.49999 25.18 5.35999 25.03C5.05999 24.73 4.51999 24.73 4.21999 25.03Z" fill="#A9B0B0"/>
<path d="M14.3899 24.8H7.98994C7.54994 24.8 7.18994 25.16 7.18994 25.6C7.18994 26.04 7.54994 26.4 7.98994 26.4H14.3899C14.8399 26.4 15.1899 26.05 15.1899 25.6C15.1899 25.16 14.8399 24.8 14.3899 24.8Z" fill="#A9B0B0"/>
<path d="M27.9899 14.4H29.5899C30.0299 14.4 30.3899 14.05 30.3899 13.6C30.3899 13.16 30.0399 12.8 29.5899 12.8H27.9899C27.5499 12.8 27.1899 13.16 27.1899 13.6C27.1899 14.04 27.5499 14.4 27.9899 14.4Z" fill="#A9B0B0"/>
<path d="M4.78999 18.4H22.39C22.84 18.4 23.19 18.04 23.19 17.6C23.19 17.16 22.84 16.8 22.39 16.8H4.78999C4.34999 16.8 3.98999 17.16 3.98999 17.6C3.98999 18.04 4.34999 18.4 4.78999 18.4Z" fill="#A9B0B0"/>
<path d="M29.6 16.8H24.8C24.36 16.8 24 17.16 24 17.6C24 18.04 24.36 18.4 24.8 18.4H29.6C30.04 18.4 30.4 18.04 30.4 17.6C30.39 17.16 30.04 16.8 29.6 16.8Z" fill="#A9B0B0"/>
<path d="M4.78999 22.4H7.98999C8.42999 22.4 8.78999 22.04 8.78999 21.6C8.78999 21.16 8.42999 20.8 7.98999 20.8H4.78999C4.34999 20.8 3.98999 21.16 3.98999 21.6C3.98999 22.04 4.34999 22.4 4.78999 22.4Z" fill="#A9B0B0"/>
<path d="M19.19 20.8H11.19C10.75 20.8 10.39 21.16 10.39 21.6C10.39 22.04 10.75 22.4 11.19 22.4H19.19C19.63 22.4 19.99 22.04 19.99 21.6C19.99 21.16 19.63 20.8 19.19 20.8Z" fill="#A9B0B0"/>
<path d="M29.6 20.8H22.4C21.96 20.8 21.6 21.16 21.6 21.6C21.6 22.04 21.96 22.4 22.4 22.4H29.6C30.04 22.4 30.4 22.04 30.4 21.6C30.39 21.16 30.04 20.8 29.6 20.8Z" fill="#A9B0B0"/>
</svg>
