<svg width="35" height="45" viewBox="0 0 35 45" fill="none" xmlns="http://www.w3.org/2000/svg">
<path d="M24.38 0H1.17C0.519998 0 0 0.520001 0 1.54V44C0 44.28 0.519998 44.8 1.17 44.8H33.23C33.87 44.8 34.4 44.28 34.4 44V10.38C34.4 9.82 34.33 9.64 34.2 9.51L24.89 0.199997C24.75 0.079997 24.57 0 24.38 0Z" fill="#EFF0F0"/>
<path d="M24.8 0.119995V9.59999H34.28L24.8 0.119995Z" fill="#D3D6D7"/>
<path d="M33.23 44.8H1.17C0.519998 44.8 0 44.28 0 43.63V31.2H34.4V43.63C34.39 44.28 33.87 44.8 33.23 44.8Z" fill="#ED8D1B"/>
<path d="M11.97 40.19C11.97 40.48 11.91 40.77 11.79 41.04C11.67 41.31 11.5 41.56 11.28 41.76C11.06 41.97 10.79 42.13 10.47 42.26C10.15 42.39 9.78005 42.44 9.38005 42.44C9.20005 42.44 9.02005 42.43 8.84005 42.41C8.65005 42.39 8.47004 42.36 8.28004 42.32C8.09004 42.28 7.91005 42.21 7.74005 42.14C7.57005 42.06 7.42005 41.97 7.30005 41.86L7.53004 40.92C7.63004 40.98 7.76004 41.04 7.92004 41.09C8.08004 41.14 8.24005 41.2 8.41005 41.24C8.58005 41.29 8.74005 41.33 8.91005 41.35C9.08005 41.38 9.23005 41.39 9.38005 41.39C9.83005 41.39 10.17 41.29 10.4 41.08C10.63 40.87 10.75 40.56 10.75 40.15C10.75 39.9 10.67 39.69 10.5 39.52C10.33 39.34 10.12 39.18 9.87005 39.04C9.62005 38.89 9.35005 38.75 9.05005 38.61C8.76005 38.46 8.49005 38.3 8.23005 38.11C7.97005 37.91 7.76005 37.69 7.59005 37.43C7.42005 37.17 7.34005 36.84 7.34005 36.45C7.34005 36.09 7.41005 35.77 7.54005 35.5C7.67005 35.23 7.85005 34.99 8.07005 34.8C8.29005 34.6 8.55004 34.46 8.85004 34.35C9.14004 34.25 9.46004 34.2 9.78004 34.2C10.12 34.2 10.46 34.23 10.8 34.29C11.14 34.35 11.4201 34.45 11.6301 34.59C11.5901 34.68 11.54 34.79 11.48 34.9C11.42 35.01 11.37 35.12 11.32 35.22C11.27 35.32 11.23 35.4 11.19 35.47C11.15 35.54 11.13 35.57 11.12 35.58C11.08 35.56 11.03 35.53 10.97 35.49C10.92 35.45 10.8401 35.42 10.7401 35.38C10.6401 35.34 10.5 35.32 10.33 35.3C10.16 35.28 9.95005 35.29 9.69005 35.31C9.54005 35.33 9.40005 35.36 9.27005 35.43C9.14005 35.5 9.02004 35.59 8.92004 35.69C8.82004 35.79 8.74005 35.9 8.68005 36.03C8.62005 36.16 8.59005 36.28 8.59005 36.4C8.59005 36.69 8.67005 36.93 8.84005 37.11C9.01005 37.29 9.22004 37.44 9.46004 37.58C9.71004 37.72 9.98005 37.85 10.2701 37.97C10.5601 38.09 10.83 38.25 11.09 38.43C11.34 38.61 11.55 38.84 11.71 39.11C11.88 39.41 11.97 39.76 11.97 40.19Z" fill="white"/>
<path d="M15.48 42.45L12.98 34.34H14.48L16.35 41.3L18.33 34.34H19.82L17.2 42.45H15.48Z" fill="white"/>
<path d="M27.33 38.24V41.36C27.16 41.57 26.97 41.75 26.76 41.88C26.55 42.02 26.33 42.13 26.1 42.22C25.87 42.31 25.64 42.37 25.39 42.4C25.15 42.44 24.91 42.45 24.66 42.45C24.18 42.45 23.74 42.36 23.33 42.19C22.92 42.02 22.5701 41.76 22.2701 41.41C21.9601 41.07 21.73 40.64 21.55 40.12C21.38 39.6 21.3 39 21.3 38.33C21.3 37.65 21.39 37.06 21.55 36.54C21.72 36.03 21.9601 35.6 22.2701 35.26C22.5701 34.92 22.93 34.66 23.34 34.48C23.75 34.3 24.19 34.21 24.66 34.21C25.1 34.21 25.51 34.28 25.89 34.43C26.27 34.57 26.61 34.8 26.91 35.09L26 35.9C25.82 35.69 25.62 35.54 25.4 35.44C25.17 35.35 24.9401 35.3 24.7001 35.3C24.4301 35.3 24.18 35.35 23.93 35.45C23.68 35.56 23.4701 35.73 23.2701 35.97C23.08 36.22 22.93 36.53 22.82 36.92C22.71 37.31 22.65 37.78 22.64 38.34C22.65 38.89 22.7101 39.36 22.8101 39.76C22.9201 40.16 23.06 40.49 23.25 40.74C23.43 41 23.6401 41.19 23.8801 41.31C24.1201 41.44 24.3601 41.5 24.6301 41.5C24.7101 41.5 24.8201 41.49 24.9501 41.48C25.0901 41.47 25.22 41.45 25.36 41.43C25.5 41.41 25.63 41.37 25.75 41.33C25.88 41.28 25.97 41.23 26.0201 41.14V39.15H24.65V38.25H27.33V38.24Z" fill="white"/>
<path d="M31.2 17.6V12.8H26.4V14.4H21.6V11.2H13.6V14.4H8.8V12.8H4V17.6H8.8V16H11.64C7.99 18.11 5.6 22.07 5.6 26.4C5.6 26.84 5.95 27.2 6.4 27.2C6.85 27.2 7.2 26.84 7.2 26.4C7.2 22.21 9.78 18.4 13.6 16.81V19.2H21.6V16.81C25.42 18.41 28 22.21 28 26.4C28 26.84 28.36 27.2 28.8 27.2C29.24 27.2 29.6 26.84 29.6 26.4C29.6 22.07 27.21 18.11 23.56 16H26.4V17.6H31.2ZM7.2 16H5.6V14.4H7.2V16ZM20 17.6H15.2V12.8H20V17.6ZM28 14.4H29.6V16H28V14.4Z" fill="#A9B0B0"/>
</svg>
