<svg width="35" height="45" viewBox="0 0 35 45" fill="none" xmlns="http://www.w3.org/2000/svg">
<path d="M24.38 0H1.17C0.519998 0 0 0.520009 0 1.54001V44C0 44.28 0.519998 44.8 1.17 44.8H33.23C33.87 44.8 34.4 44.28 34.4 44V10.38C34.4 9.82 34.33 9.64001 34.2 9.51001L24.89 0.200012C24.75 0.0700122 24.57 0 24.38 0Z" fill="#EFF0F0"/>
<path d="M24.79 0.119995V9.60001H34.27L24.79 0.119995Z" fill="#D3D6D7"/>
<path d="M33.22 44.8H1.17C0.519998 44.8 0 44.28 0 43.63V31.2H34.4V43.63C34.39 44.28 33.87 44.8 33.22 44.8Z" fill="#42894B"/>
<path d="M11.1 38.48L13.15 42.39H11.63L10.35 39.35H10.24L8.85996 42.39H7.33996L9.38996 38.48L7.20996 34.34H8.70996L10.13 37.62H10.24L11.78 34.34H13.28L11.1 38.48Z" fill="white"/>
<path d="M16.42 34.34V41.41H20.13V42.4H15.09V34.34H16.42Z" fill="white"/>
<path d="M26.02 40.19C26.02 40.48 25.96 40.77 25.84 41.04C25.72 41.31 25.55 41.55 25.33 41.76C25.11 41.97 24.84 42.13 24.52 42.26C24.2 42.39 23.83 42.44 23.43 42.44C23.26 42.44 23.08 42.43 22.89 42.41C22.7 42.39 22.52 42.36 22.33 42.32C22.14 42.27 21.96 42.21 21.79 42.14C21.62 42.06 21.47 41.97 21.35 41.86L21.58 40.92C21.68 40.98 21.81 41.04 21.97 41.09C22.13 41.14 22.29 41.2 22.46 41.24C22.62 41.29 22.79 41.33 22.96 41.35C23.13 41.38 23.28 41.39 23.43 41.39C23.87 41.39 24.22 41.29 24.45 41.08C24.69 40.87 24.8 40.56 24.8 40.15C24.8 39.9 24.72 39.69 24.55 39.52C24.38 39.34 24.17 39.18 23.92 39.04C23.67 38.89 23.4 38.75 23.1 38.61C22.81 38.46 22.54 38.3 22.28 38.11C22.02 37.91 21.81 37.69 21.64 37.43C21.47 37.17 21.39 36.84 21.39 36.45C21.39 36.09 21.46 35.77 21.59 35.5C21.72 35.23 21.9 34.99 22.12 34.8C22.34 34.6 22.6 34.46 22.9 34.35C23.19 34.25 23.51 34.2 23.83 34.2C24.17 34.2 24.51 34.23 24.85 34.29C25.19 34.35 25.47 34.45 25.68 34.59C25.64 34.68 25.59 34.79 25.53 34.9C25.47 35.01 25.42 35.12 25.37 35.22C25.32 35.32 25.28 35.4 25.24 35.47C25.2 35.54 25.18 35.57 25.17 35.58C25.13 35.56 25.08 35.53 25.02 35.49C24.97 35.45 24.89 35.42 24.79 35.38C24.69 35.34 24.55 35.32 24.38 35.3C24.21 35.28 24 35.29 23.73 35.31C23.58 35.33 23.45 35.36 23.31 35.43C23.18 35.5 23.06 35.59 22.96 35.69C22.86 35.79 22.78 35.9 22.72 36.03C22.66 36.16 22.63 36.28 22.63 36.4C22.63 36.69 22.71 36.93 22.88 37.11C23.05 37.29 23.26 37.44 23.5 37.58C23.75 37.72 24.02 37.85 24.31 37.97C24.6 38.09 24.87 38.25 25.13 38.43C25.38 38.61 25.59 38.84 25.75 39.11C25.94 39.41 26.02 39.76 26.02 40.19Z" fill="white"/>
<path d="M13.6 12.8V9.59998H4V27.2H30.4V12.8H13.6ZM5.6 11.2H12V12.8H5.6V11.2ZM5.6 14.4H12V16H5.6V14.4ZM5.6 17.6H12V19.2H5.6V17.6ZM5.6 20.8H12V22.4H5.6V20.8ZM11.99 25.6H5.59V24H11.99V25.6ZM28.79 25.6H13.59V24H28.79V25.6ZM28.79 22.4H13.59V20.8H28.79V22.4ZM28.79 19.2H13.59V17.6H28.79V19.2ZM13.6 16V14.4H28.8V16H13.6Z" fill="#A9B0B0"/>
</svg>
