<svg width="31" height="31" viewBox="0 0 31 31" fill="none" xmlns="http://www.w3.org/2000/svg">
    <circle cx="15.2241" cy="15.5" r="14" stroke="#E84954" stroke-width="2"/>
    <path fill-rule="evenodd" clip-rule="evenodd" d="M20.7205 11.7094C20.9157 11.5141 20.9157 11.1976 20.7204 11.0023C20.5251 10.8071 20.2085 10.8071 20.0133 11.0024L15.7241 15.2928L11.4349 11.0024C11.2397 10.8071 10.9231 10.8071 10.7278 11.0023C10.5325 11.1976 10.5325 11.5141 10.7277 11.7094L15.0171 16L10.7277 20.2906C10.5325 20.4859 10.5325 20.8024 10.7278 20.9977C10.9231 21.1929 11.2397 21.1929 11.4349 20.9976L15.7241 16.7072L20.0133 20.9976C20.2085 21.1929 20.5251 21.1929 20.7204 20.9977C20.9157 20.8024 20.9157 20.4859 20.7205 20.2906L16.4311 16L20.7205 11.7094Z" fill="#E84954"/>
    <path d="M20.7204 11.0023L21.0739 10.6487L21.0739 10.6487L20.7204 11.0023ZM20.7205 11.7094L20.3669 11.3559V11.3559L20.7205 11.7094ZM20.0133 11.0024L19.6597 10.6489V10.6489L20.0133 11.0024ZM15.7241 15.2928L15.3705 15.6463L15.7241 16L16.0777 15.6463L15.7241 15.2928ZM11.4349 11.0024L11.7885 10.6489L11.7885 10.6489L11.4349 11.0024ZM10.7278 11.0023L10.3743 10.6487H10.3743L10.7278 11.0023ZM10.7277 11.7094L11.0813 11.3559L11.0813 11.3559L10.7277 11.7094ZM15.0171 16L15.3707 16.3535L15.7241 16L15.3707 15.6465L15.0171 16ZM10.7277 20.2906L10.3741 19.9371H10.3741L10.7277 20.2906ZM10.7278 20.9977L11.0813 20.6441L10.7278 20.9977ZM11.4349 20.9976L11.7885 21.3511H11.7885L11.4349 20.9976ZM15.7241 16.7072L16.0777 16.3537L15.7241 16L15.3705 16.3537L15.7241 16.7072ZM20.0133 20.9976L19.6597 21.3511L20.0133 20.9976ZM20.7204 20.9977L21.0739 21.3513V21.3513L20.7204 20.9977ZM20.7205 20.2906L21.0741 19.9371H21.0741L20.7205 20.2906ZM16.4311 16L16.0775 15.6465L15.7241 16L16.0775 16.3535L16.4311 16ZM20.3669 11.3559V11.3559L21.0741 12.0629C21.4646 11.6724 21.4645 11.0392 21.0739 10.6487L20.3669 11.3559ZM20.3669 11.3559L20.3669 11.3559L21.0739 10.6487C20.6833 10.2583 20.0501 10.2583 19.6597 10.6489L20.3669 11.3559ZM16.0777 15.6463L20.3669 11.3559L19.6597 10.6489L15.3705 14.9393L16.0777 15.6463ZM11.0813 11.3559L15.3705 15.6463L16.0777 14.9393L11.7885 10.6489L11.0813 11.3559ZM11.0813 11.3559L11.7885 10.6489C11.398 10.2583 10.7649 10.2583 10.3743 10.6487L11.0813 11.3559ZM11.0813 11.3559H11.0813L10.3743 10.6487C9.98371 11.0392 9.98362 11.6724 10.3741 12.0629L11.0813 11.3559ZM15.3707 15.6465L11.0813 11.3559L10.3741 12.0629L14.6635 16.3535L15.3707 15.6465ZM11.0813 20.6441L15.3707 16.3535L14.6635 15.6465L10.3741 19.9371L11.0813 20.6441ZM11.0813 20.6441L11.0813 20.6441L10.3741 19.9371C9.98362 20.3276 9.98371 20.9608 10.3743 21.3513L11.0813 20.6441ZM11.0813 20.6441H11.0813L10.3743 21.3513C10.7649 21.7417 11.398 21.7417 11.7885 21.3511L11.0813 20.6441ZM15.3705 16.3537L11.0813 20.6441L11.7885 21.3511L16.0777 17.0607L15.3705 16.3537ZM20.3669 20.6441L16.0777 16.3537L15.3705 17.0607L19.6597 21.3511L20.3669 20.6441ZM20.3669 20.6441H20.3669L19.6597 21.3511C20.0501 21.7417 20.6833 21.7417 21.0739 21.3513L20.3669 20.6441ZM20.3669 20.6441L20.3669 20.6441L21.0739 21.3513C21.4645 20.9608 21.4646 20.3276 21.0741 19.9371L20.3669 20.6441ZM16.0775 16.3535L20.3669 20.6441L21.0741 19.9371L16.7847 15.6465L16.0775 16.3535ZM20.3669 11.3559L16.0775 15.6465L16.7847 16.3535L21.0741 12.0629L20.3669 11.3559Z" fill="#E84954"/>
</svg>
