<?xml version="1.0" encoding="utf-8"?>
<svg version="1.1" id="Layer_1" xmlns="http://www.w3.org/2000/svg" xmlns:xlink="http://www.w3.org/1999/xlink" x="0px" y="0px"
	 viewBox="0 0 32 32" style="enable-background:new 0 0 32 32;" xml:space="preserve" fill="currentColor">
<g>
	<path d="M29.5,25.6c1.3-1.9,1.9-4.2,1.9-6.5c0-5.4-3.6-9.9-8.6-11.2c-1.8-4.2-5.9-7.1-10.7-7.1C5.7,0.8,0.5,6.1,0.5,12.5
		c0,2.3,0.7,4.5,1.9,6.5l-1.6,3.8c-0.1,0.3,0,0.6,0.2,0.8c0.2,0.2,0.5,0.3,0.8,0.2l3.8-1.6c1.1,0.7,2.3,1.2,3.6,1.5
		c1.8,4.1,5.9,7,10.7,7c2.3,0,4.5-0.7,6.5-1.9l3.8,1.6c0.3,0.1,0.6,0,0.8-0.2c0.2-0.2,0.3-0.5,0.2-0.8L29.5,25.6z M6.1,20.8
		c-0.2-0.1-0.5-0.2-0.7-0.1l-2.6,1.1l1.1-2.6c0.1-0.2,0.1-0.5-0.1-0.7c-1.2-1.8-1.9-3.8-1.9-6c0-5.6,4.6-10.2,10.2-10.2
		c3.9,0,7.2,2.2,9,5.3c-0.4-0.1-0.9-0.1-1.3-0.1c-1.3,0-2.6,0.2-3.8,0.6H6.7c-0.4,0-0.7,0.3-0.7,0.7s0.3,0.7,0.7,0.7h6.5
		c-0.9,0.6-1.7,1.4-2.4,2.2H6.7c-0.4,0-0.7,0.3-0.7,0.7s0.3,0.7,0.7,0.7h3.1c-0.4,0.7-0.8,1.4-1,2.2H6.7c-0.4,0-0.7,0.3-0.7,0.7
		c0,0.4,0.3,0.7,0.7,0.7h1.7c-0.1,0.7-0.2,1.4-0.2,2.2c0,1,0.1,2,0.4,3C7.7,21.7,6.9,21.3,6.1,20.8z M26.5,27.3
		c-0.2-0.1-0.5-0.1-0.7,0.1c-1.8,1.2-3.8,1.9-6,1.9c-5.6,0-10.2-4.6-10.2-10.2c0-5.6,4.6-10.1,10.1-10.1c5.6,0,10.2,4.6,10.2,10.2
		c0,2.2-0.6,4.2-1.9,6c-0.1,0.2-0.2,0.5-0.1,0.7l1.1,2.6L26.5,27.3z"/>
	<path d="M25.3,14.8h-11c-0.4,0-0.7,0.3-0.7,0.7s0.3,0.7,0.7,0.7h11c0.4,0,0.7-0.3,0.7-0.7S25.7,14.8,25.3,14.8z"/>
	<path d="M25.3,18.4h-11c-0.4,0-0.7,0.3-0.7,0.7c0,0.4,0.3,0.7,0.7,0.7h11c0.4,0,0.7-0.3,0.7-0.7C26.1,18.7,25.7,18.4,25.3,18.4z"/>
	<path d="M25.3,22.1h-11c-0.4,0-0.7,0.3-0.7,0.7s0.3,0.7,0.7,0.7h11c0.4,0,0.7-0.3,0.7-0.7S25.7,22.1,25.3,22.1z"/>
</g>
</svg>
