<svg width="26" height="19" viewBox="0 0 26 19" fill="#3A8DDE" xmlns="http://www.w3.org/2000/svg">
<g clip-path="url(#email-clip0)">
<path d="M0.692871 3.47182V2.55554C0.692871 1.27757 1.74268 0.240723 3.03662 0.240723H23.3491C24.6431 0.240723 25.6929 1.27757 25.6929 2.55554V3.47182C25.6929 3.82869 25.5269 4.16626 25.2437 4.38328C23.7495 5.54068 23.2563 5.94578 16.7769 10.5899C15.9565 11.1782 14.3257 12.6057 13.1929 12.5864C12.0601 12.6057 10.4292 11.1782 9.60889 10.5899C3.1294 5.94578 2.63623 5.53586 1.14209 4.38328C0.858887 4.16144 0.692871 3.82869 0.692871 3.47182Z" />
<path d="M0.692871 16.4444V6.58716C0.692871 6.42801 0.824707 6.29781 0.98584 6.29781C1.04932 6.29781 1.11279 6.32192 1.1665 6.3605C2.26025 7.19962 3.71045 8.2654 8.69092 11.8389C9.72119 12.5816 11.4595 14.1441 13.1929 14.1344C14.936 14.1489 16.7085 12.5526 17.6997 11.8389C22.6802 8.2654 24.1255 7.1948 25.2192 6.35568C25.3462 6.25923 25.5317 6.27852 25.6294 6.4039C25.6685 6.45213 25.6929 6.51482 25.6929 6.58233V16.4444C25.6929 17.7224 24.6431 18.7592 23.3491 18.7592H3.03662C1.74268 18.7592 0.692871 17.7224 0.692871 16.4444Z" fill="#D3D6D7"/>
</g>
<defs>
<clipPath id="email-clip0">
<rect width="25" height="18.5185" fill="white" transform="translate(0.692871 0.240723)"/>
</clipPath>
</defs>
</svg>
