<svg width="21" height="20" viewBox="0 0 21 20" fill="currentColor" xmlns="http://www.w3.org/2000/svg">
  <path d="M10.3148 16.1464C10.2537 16.1464 10.1926 16.1464 10.1314 16.0853L0.533252 11.5613C0.288713 11.4391 0.227578 11.1945 0.288713 10.95C0.410983 10.7054 0.655522 10.6443 0.900062 10.7054L10.2537 15.1683L19.6073 10.7054C19.8519 10.5832 20.0964 10.7054 20.2187 10.95C20.341 11.1945 20.2187 11.4391 19.9742 11.5613L10.4371 16.0853C10.4371 16.0853 10.376 16.1464 10.3148 16.1464Z"/>
  <path fill-rule="evenodd" clip-rule="evenodd" d="M0.413996 11.7998C0.231223 11.7085 0.106933 11.564 0.0452238 11.3912C-0.0145787 11.2238 -0.0102034 11.0462 0.0300084 10.8853L0.0371081 10.8569L0.0501992 10.8307C0.141585 10.648 0.286062 10.5237 0.458847 10.462C0.626294 10.4022 0.803891 10.4065 0.964738 10.4467L0.990722 10.4532L10.2537 14.8728L19.4905 10.4657C19.6812 10.3712 19.8846 10.3682 20.0639 10.4451C20.2387 10.52 20.373 10.6624 20.4572 10.8307C20.5529 11.0221 20.5563 11.2264 20.4791 11.4066C20.4042 11.5813 20.2617 11.7157 20.0934 11.7998L20.0885 11.8023L10.5836 16.311C10.5732 16.3192 10.5608 16.3284 10.5468 16.3378C10.5106 16.3619 10.4256 16.4131 10.3148 16.4131C10.3129 16.4131 10.3109 16.4131 10.3087 16.4131C10.2466 16.4133 10.1121 16.4135 9.98359 16.3104L0.413996 11.7998ZM10.1314 16.0853C10.1926 16.1465 10.2537 16.1465 10.3148 16.1465C10.376 16.1465 10.4371 16.0853 10.4371 16.0853L19.9742 11.5613C20.2187 11.4391 20.341 11.1945 20.2187 10.95C20.0964 10.7054 19.8519 10.5832 19.6073 10.7054L10.2537 15.1683L0.900062 10.7054C0.655523 10.6443 0.410983 10.7054 0.288713 10.95C0.227578 11.1945 0.288713 11.4391 0.533253 11.5613L10.1314 16.0853Z"/>
  <path d="M10.3148 19.2032C10.2537 19.2032 10.1926 19.2032 10.1314 19.1421L0.533252 14.6181C0.288713 14.4958 0.227578 14.2513 0.288713 14.0067C0.410983 13.7622 0.655522 13.7011 0.900062 13.7622L10.2537 18.225L19.6073 13.7622C19.8519 13.6399 20.0964 13.7622 20.2187 14.0067C20.341 14.2513 20.2187 14.4958 19.9742 14.6181L10.4371 19.1421C10.4371 19.2032 10.376 19.2032 10.3148 19.2032Z"/>
  <path fill-rule="evenodd" clip-rule="evenodd" d="M0.413996 14.8566C0.231223 14.7652 0.106933 14.6207 0.0452238 14.448C-0.0145787 14.2805 -0.0102034 14.1029 0.0300084 13.9421L0.0371081 13.9137L0.0501992 13.8875C0.141585 13.7047 0.286062 13.5804 0.458847 13.5187C0.626294 13.4589 0.803891 13.4633 0.964738 13.5035L0.990722 13.51L10.2537 17.9296L19.4905 13.5225C19.6812 13.428 19.8846 13.425 20.0639 13.5018C20.2387 13.5767 20.373 13.7192 20.4572 13.8875C20.5529 14.0789 20.5563 14.2832 20.4791 14.4633C20.4042 14.6381 20.2617 14.7724 20.0934 14.8566L20.0885 14.8591L10.6356 19.3431C10.5872 19.4043 10.5269 19.434 10.4832 19.4486C10.4159 19.471 10.3425 19.4702 10.3195 19.4699C10.3176 19.4699 10.316 19.4699 10.3148 19.4699C10.3129 19.4699 10.3109 19.4699 10.3087 19.4699C10.2466 19.47 10.1121 19.4703 9.98359 19.3672L0.413996 14.8566ZM10.1314 19.1421C10.1926 19.2032 10.2537 19.2032 10.3148 19.2032C10.376 19.2032 10.4371 19.2032 10.4371 19.1421L19.9742 14.6181C20.2187 14.4958 20.341 14.2513 20.2187 14.0067C20.0964 13.7622 19.8519 13.6399 19.6073 13.7622L10.2537 18.2251L0.900062 13.7622C0.655523 13.7011 0.410983 13.7622 0.288713 14.0067C0.227578 14.2513 0.288713 14.4958 0.533253 14.6181L10.1314 19.1421Z"/>
  <path d="M10.3148 13.0286C10.2537 13.0286 10.1926 13.0286 10.1314 12.9675L0.533252 8.44347C0.288713 8.3212 0.227578 8.07666 0.288713 7.83212C0.349848 7.58758 0.655522 7.52644 0.900062 7.58758L10.2537 12.0504L19.6073 7.58758C19.8519 7.46531 20.0964 7.58758 20.2187 7.83212C20.341 8.07666 20.2187 8.3212 19.9742 8.44347L10.4371 12.9675C10.4371 13.0286 10.376 13.0286 10.3148 13.0286Z"/>
  <path fill-rule="evenodd" clip-rule="evenodd" d="M0.413996 8.68199C0.231223 8.5906 0.106933 8.44612 0.0452238 8.27334C-0.0145787 8.10589 -0.0102034 7.9283 0.0300084 7.76745C0.0884562 7.53366 0.265431 7.40086 0.441284 7.34224C0.611934 7.28536 0.802035 7.2882 0.964738 7.32888L0.990722 7.33538L10.2537 11.755L19.4905 7.34786C19.6812 7.25333 19.8846 7.25033 20.0639 7.3272C20.2387 7.4021 20.373 7.54453 20.4572 7.71287C20.5529 7.90429 20.5563 8.10858 20.4791 8.28869C20.4042 8.46347 20.2617 8.59782 20.0934 8.68199L20.0885 8.68446L10.6356 13.1685C10.5872 13.2297 10.5269 13.2594 10.4832 13.2739C10.4159 13.2964 10.3425 13.2956 10.3195 13.2953C10.3176 13.2953 10.316 13.2953 10.3148 13.2953C10.3129 13.2953 10.3109 13.2953 10.3087 13.2953C10.2466 13.2954 10.1121 13.2957 9.98359 13.1926L0.413996 8.68199ZM10.1314 12.9675C10.1926 13.0286 10.2537 13.0286 10.3148 13.0286C10.376 13.0286 10.4371 13.0286 10.4371 12.9675L19.9742 8.44347C20.2187 8.3212 20.341 8.07666 20.2187 7.83212C20.0964 7.58758 19.8519 7.46531 19.6073 7.58758L10.2537 12.0504L0.900062 7.58758C0.655523 7.52645 0.349848 7.58758 0.288713 7.83212C0.227578 8.07666 0.288713 8.3212 0.533253 8.44347L10.1314 12.9675Z"/>
  <path d="M19.7908 4.59196L10.4982 0.312514C10.376 0.251379 10.2537 0.251379 10.1314 0.312514L0.838931 4.59196C0.655526 4.65309 0.594391 4.8365 0.594391 5.0199C0.594391 5.20331 0.716661 5.38671 0.838931 5.44785L10.1314 9.72729C10.1926 9.72729 10.2537 9.78843 10.3148 9.78843C10.376 9.78843 10.4371 9.78843 10.4982 9.72729L19.7908 5.44785C19.9742 5.38671 20.0353 5.20331 20.0353 5.0199C20.0353 4.8365 19.9742 4.65309 19.7908 4.59196ZM10.3148 8.81027L2.12276 5.0199L10.3148 1.22954L18.5069 5.0199L10.3148 8.81027Z"/>
  <path fill-rule="evenodd" clip-rule="evenodd" d="M0.838935 5.44785C0.716665 5.38672 0.594395 5.20331 0.594395 5.01991C0.594395 4.8365 0.65553 4.6531 0.838935 4.59196L10.1314 0.312518C10.2537 0.251383 10.376 0.251383 10.4983 0.312518L19.7908 4.59196C19.9742 4.6531 20.0353 4.8365 20.0353 5.01991C20.0353 5.20331 19.9742 5.38672 19.7908 5.44785L10.4983 9.7273C10.4371 9.78843 10.376 9.78843 10.3148 9.78843C10.2843 9.78843 10.2537 9.77315 10.2231 9.75786C10.1926 9.74258 10.162 9.7273 10.1314 9.7273L0.838935 5.44785ZM10.645 9.95331C10.5168 10.0555 10.3829 10.0552 10.321 10.0551C10.3188 10.0551 10.3168 10.0551 10.3148 10.0551C10.2559 10.0551 10.2072 10.0405 10.1754 10.0286C10.1465 10.0178 10.1201 10.0045 10.1064 9.99764L10.1039 9.99638C10.1021 9.9955 10.1005 9.99469 10.099 9.99396H10.073L0.719616 5.68649C0.601246 5.6273 0.506299 5.52385 0.442149 5.41693C0.376438 5.30741 0.327728 5.16883 0.327728 5.01991C0.327728 4.80307 0.400919 4.46637 0.739033 4.34438L10.0164 0.071902C10.2111 -0.0239673 10.4186 -0.0239673 10.6133 0.071902L19.8907 4.34438C20.2288 4.46637 20.302 4.80307 20.302 5.01991C20.302 5.23675 20.2288 5.57344 19.8907 5.69543L10.645 9.95331ZM10.3148 8.51645L2.75781 5.01991L10.3148 1.52337L17.8719 5.01991L10.3148 8.51645ZM10.3148 1.22954L2.12277 5.01991L10.3148 8.81027L18.5069 5.01991L10.3148 1.22954Z"/>
</svg>
