<svg width="23" height="23" viewBox="0 0 23 23" fill="none" xmlns="http://www.w3.org/2000/svg">
  <path d="M18.086 7.64961H21.0215C21.5484 7.64961 22 8.02595 22 8.47757V21.1227C22 21.4991 21.6237 21.8001 21.2473 21.8001H1.75269C1.30108 21.8001 1 21.4991 1 21.1227V8.25176C1 7.87542 1.37634 7.57434 1.75269 7.57434H4.91398" stroke="#3A8DDE" stroke-width="1.1" stroke-miterlimit="10" stroke-linejoin="round"/>
  <path d="M1 7.87537L11.5376 16.7571L22 7.87537" stroke="#3A8DDE" stroke-width="1.1" stroke-miterlimit="10" stroke-linejoin="round"/>
  <path d="M15.3013 12.9935L22.0002 21.5742" stroke="#3A8DDE" stroke-width="1.1" stroke-miterlimit="10" stroke-linejoin="round"/>
  <path d="M1 21.8001L7.69892 13.2195" stroke="#3A8DDE" stroke-width="1.1" stroke-miterlimit="10" stroke-linejoin="round"/>
  <path d="M4.91406 11.0366V1.77854C4.91406 1.25166 5.36568 0.800049 5.89256 0.800049H17.1076C17.6345 0.800049 18.0861 1.25166 18.0861 1.77854V11.0366" stroke="#3A8DDE" stroke-width="1.1" stroke-miterlimit="10" stroke-linejoin="round"/>
  <path d="M10.7847 4.71399H15.3008" stroke="#3A8DDE" stroke-width="1.1" stroke-miterlimit="10" stroke-linecap="round" stroke-linejoin="round"/>
  <path d="M7.54834 8.02588H15.301" stroke="#3A8DDE" stroke-width="1.1" stroke-miterlimit="10" stroke-linecap="round" stroke-linejoin="round"/>
  <path d="M7.54834 11.2623H15.301" stroke="#3A8DDE" stroke-width="1.1" stroke-miterlimit="10" stroke-linecap="round" stroke-linejoin="round"/>
  <path d="M8.2262 5.84302C8.84975 5.84302 9.35523 5.33754 9.35523 4.71399C9.35523 4.09045 8.84975 3.58496 8.2262 3.58496C7.60265 3.58496 7.09717 4.09045 7.09717 4.71399C7.09717 5.33754 7.60265 5.84302 8.2262 5.84302Z" fill="#3A8DDE"/>
</svg>
