<svg width="73" height="72" viewBox="0 0 73 72" fill="#3A8DDE" xmlns="http://www.w3.org/2000/svg">
<circle cx="36.5" cy="36" r="36" fill="#F7F7F7"/>
<path opacity="0.4" d="M46.6183 42.1164V50.5011C46.6183 51.9408 45.8113 53.2539 44.5216 53.8946L36.7124 57.8022C35.7708 58.2689 34.6315 57.8813 34.1647 56.94C34.0381 56.679 33.9669 56.3942 33.9669 56.1015V47.8908L44.4979 43.1922C45.2258 42.8678 45.93 42.504 46.6183 42.1164ZM31.0631 29.7291C31.3796 29.0093 31.7357 28.3132 32.1234 27.625H23.7523C22.3203 27.625 21.0068 28.4397 20.366 29.7212L16.4495 37.5364C15.9827 38.4777 16.3624 39.6168 17.304 40.0835C17.5651 40.2179 17.8578 40.2812 18.1506 40.2812H26.3633L31.0631 29.7291Z"/>
<path d="M56.2077 19.0108C56.1049 18.5283 55.7251 18.1486 55.2425 18.0458C52.6948 17.5 50.7009 17.5 48.715 17.5C42.7334 17.5 38.5084 19.8414 35.2407 23.3535C33.5079 25.2361 32.0917 27.3877 31.0631 29.7291L26.3633 40.2812L24.5831 42.061C23.5941 43.0497 23.5941 44.6555 24.5831 45.6364L28.6103 49.6626C29.5993 50.6514 31.2055 50.6514 32.1866 49.6626L33.9668 47.8828L44.4978 43.1842C46.8398 42.148 48.9919 40.7321 50.875 38.9918C54.3959 35.717 56.7458 31.4851 56.7458 25.5367C56.7616 23.5513 56.7616 21.5579 56.2077 19.0108ZM46.6341 30.789C44.8855 30.789 43.4693 29.3731 43.4693 27.625C43.4693 25.8768 44.8855 24.4609 46.6341 24.4609C48.3827 24.4609 49.7989 25.8768 49.7989 27.625C49.7989 29.3731 48.3827 30.789 46.6341 30.789Z"/>
</svg>
