<svg width="41" height="38" viewBox="0 0 41 38"  fill="#3A8DDE" xmlns="http://www.w3.org/2000/svg">
<path d="M23.9219 19.181C18.1314 19.181 13.4267 14.4762 13.4267 8.68571C13.4267 6.33333 14.2229 4.1619 15.5378 2.40063H2.73841C1.23047 2.40063 0 3.63111 0 5.13905V35.2616C0 36.7695 1.23047 38 2.73841 38H24.4165C25.9244 38 27.1549 36.7695 27.1549 35.2616V18.6622C26.1175 19 25.0438 19.181 23.9219 19.181ZM6.26095 10.8451H10.3746C10.8692 10.8451 11.2794 11.2552 11.2794 11.7498C11.2794 12.2444 10.8692 12.6546 10.3746 12.6546H6.26095C5.76634 12.6546 5.35618 12.2444 5.35618 11.7498C5.35618 11.2552 5.75428 10.8451 6.26095 10.8451ZM6.26095 16.4787H12.7149C13.2095 16.4787 13.6197 16.8889 13.6197 17.3835C13.6197 17.8781 13.2095 18.2883 12.7149 18.2883H6.26095C5.76634 18.2883 5.35618 17.8781 5.35618 17.3835C5.35618 16.8889 5.75428 16.4787 6.26095 16.4787ZM20.8698 29.5435H6.26095C5.76634 29.5435 5.35618 29.1333 5.35618 28.6387C5.35618 28.1441 5.76634 27.734 6.26095 27.734H20.8698C21.3644 27.734 21.7746 28.1441 21.7746 28.6387C21.7746 29.1333 21.3765 29.5435 20.8698 29.5435ZM20.8698 23.9219H6.26095C5.76634 23.9219 5.35618 23.5117 5.35618 23.0171C5.35618 22.5225 5.76634 22.1124 6.26095 22.1124H20.8698C21.3644 22.1124 21.7746 22.5225 21.7746 23.0171C21.7746 23.5117 21.3765 23.9219 20.8698 23.9219Z" fill="#D3D6D7"/>
<path d="M40.2438 21.7987L34.1397 15.6946C33.4762 15.0311 32.5111 14.8743 31.7029 15.1879L30.6654 14.1505C31.8718 12.6546 32.6076 10.7606 32.6076 8.68571C32.6076 3.89651 28.7111 0 23.9219 0C19.1327 0 15.2362 3.89651 15.2362 8.68571C15.2362 13.4749 19.1327 17.3714 23.9219 17.3714C25.9968 17.3714 27.8908 16.6476 29.3867 15.4292L30.4241 16.4667C30.3156 16.7321 30.2673 17.0095 30.2673 17.299C30.2673 17.9022 30.5086 18.4813 30.9308 18.9035L37.0349 25.0076C37.2038 25.1765 37.433 25.273 37.6743 25.273C37.9156 25.273 38.1448 25.1765 38.3137 25.0076L40.2559 23.0654C40.5937 22.7276 40.5937 22.1486 40.2438 21.7987ZM23.6807 3.94476C21.1956 3.94476 19.1689 5.97143 19.1689 8.45651C19.1689 8.95111 18.7587 9.36127 18.2641 9.36127C17.7695 9.36127 17.3594 8.95111 17.3594 8.45651C17.3594 4.97016 20.1943 2.13524 23.6807 2.13524C24.1753 2.13524 24.5854 2.5454 24.5854 3.04C24.5854 3.5346 24.1873 3.94476 23.6807 3.94476Z" />
</svg>
