<svg width="40" height="40" viewBox="0 0 40 40" fill="none" xmlns="http://www.w3.org/2000/svg">
<circle cx="20" cy="20" r="20" fill="#F7F7F7"/>
<path opacity="0.4" d="M20.125 17.2496C18.1582 17.2496 16.5625 15.6539 16.5625 13.6871C16.5625 11.7203 18.1582 10.1246 20.125 10.1246C22.0918 10.1246 23.6875 11.7203 23.6875 13.6871C23.6875 15.6539 22.0918 17.2496 20.125 17.2496Z" fill="#3A8DDE"/>
<path d="M19.2938 19.0717C17.0932 17.7246 13.527 17.3535 11.7309 17.2533C11.126 17.2162 10.625 17.6764 10.625 18.2553V26.5232C10.625 27.0539 11.0555 27.4992 11.6084 27.5289C13.2301 27.6143 16.5068 27.926 18.7705 29.0652C19.1193 29.2396 19.5312 29.0021 19.5312 28.6236V19.4947C19.5312 19.324 19.4422 19.1607 19.2938 19.0717ZM28.5191 17.2533C26.723 17.3535 23.1568 17.7246 20.9562 19.0717C20.8078 19.1645 20.715 19.3277 20.7188 19.5021V28.6236C20.7188 29.0021 21.1307 29.2396 21.4795 29.0652C23.7432 27.926 27.0199 27.6143 28.6416 27.5289C29.1945 27.4992 29.625 27.0576 29.625 26.527V18.2553C29.625 17.6764 29.124 17.2162 28.5191 17.2533Z" fill="#3A8DDE"/>
</svg>
