<svg width="22" height="26" viewBox="0 0 22 26" fill="none" xmlns="http://www.w3.org/2000/svg">
<path fill-rule="evenodd" clip-rule="evenodd" d="M2.39368 0C1.30637 0 0.424927 0.918995 0.424927 2.05263V23.9474C0.424927 25.081 1.30637 26 2.39368 26H19.4562C20.5435 26 21.4249 25.081 21.4249 23.9474V2.05263C21.4249 0.918995 20.5435 0 19.4562 0H2.39368ZM1.73743 2.05263C1.73743 1.67475 2.03124 1.36842 2.39368 1.36842H12.8937V11.6316L14.8624 10.2632L16.8312 11.6316V1.36842H19.4562C19.8186 1.36842 20.1124 1.67475 20.1124 2.05263V23.9474C20.1124 24.3252 19.8186 24.6316 19.4562 24.6316H2.39368C2.03124 24.6316 1.73743 24.3252 1.73743 23.9474V2.05263Z" fill="#3A8DDE"/>
<path fill-rule="evenodd" clip-rule="evenodd" d="M16.6343 16.2741H3.74994V14.7334H16.6343V16.2741Z" fill="white"/>
<path fill-rule="evenodd" clip-rule="evenodd" d="M16.6343 19.4519H3.74994V17.9111H16.6343V19.4519Z" fill="white"/>
<path fill-rule="evenodd" clip-rule="evenodd" d="M16.6343 22.5334H3.74994V20.9927H16.6343V22.5334Z" fill="white"/>
</svg>
