<svg width="21" height="21" viewBox="0 0 21 21" fill="none" xmlns="http://www.w3.org/2000/svg">
<path fill-rule="evenodd" clip-rule="evenodd" d="M4.32447 16.2937H19.3455C19.7321 16.2937 20.0455 15.9223 20.0455 15.4641V2.46102C20.0455 2.00281 19.7321 1.63136 19.3455 1.63136H1.65455C1.26795 1.63136 0.954545 2.00281 0.954545 2.46102V19.0291L4.32447 16.2937ZM4.62 17.4251H19.3455C20.2592 17.4251 21 16.5471 21 15.4641V2.46102C21 1.37798 20.2592 0.5 19.3455 0.5H1.65455C0.740765 0.5 0 1.37798 0 2.46102V19.7445C0 20.3511 0.573615 20.7096 0.995935 20.3668L4.62 17.4251Z" fill="#A9B0B0"/>
</svg>
