<svg width="28" height="27" viewBox="0 0 28 27" fill="none" xmlns="http://www.w3.org/2000/svg">
<path d="M6.41487 7.36258H19.25C19.5727 7.36258 19.8352 7.08648 19.8352 6.74711C19.8352 6.40775 19.5727 6.13165 19.25 6.13165H6.41487C6.09221 6.13165 5.82971 6.40775 5.82971 6.74711C5.82971 7.08648 6.09221 7.36258 6.41487 7.36258Z" fill="#3A8DDE"/>
<path d="M13.4149 13.5H6.41487C6.09221 13.5 5.82971 13.7761 5.82971 14.1155C5.82971 14.4549 6.09221 14.731 6.41487 14.731H13.4149C13.7375 14.731 14 14.4549 14 14.1155C14 13.7704 13.7375 13.5 13.4149 13.5Z" fill="#3A8DDE"/>
<path d="M25.7688 2.45611C25.7359 2.45611 25.7031 2.46762 25.6703 2.46762V2.45611C25.6703 1.10439 24.6258 0 23.3352 0H2.33516C1.04453 0 0 1.09864 0 2.45611V26.3845C0 26.6319 0.142187 26.8562 0.360937 26.954C0.432031 26.9885 0.508594 27 0.585156 27C0.738281 27 0.885938 26.9367 0.995313 26.8217L6.65547 20.8683H23.3297C24.6148 20.8683 25.6648 19.7697 25.6648 18.4122V8.23115L27.3438 6.46528C27.7594 6.02812 28 5.42416 28 4.80294C28 3.50873 26.9992 2.45611 25.7688 2.45611ZM24.5 18.4065C24.5 19.0852 23.975 19.6317 23.3352 19.6317H6.41484C6.26172 19.6317 6.11406 19.6949 6.00469 19.81L1.16484 24.9005V2.45611C1.16484 1.77738 1.68984 1.23093 2.32969 1.23093H23.3297C23.975 1.23093 24.4945 1.78313 24.4945 2.45611V2.87601C24.3852 2.95654 24.2758 3.04282 24.1828 3.14636L17.8336 9.8187H6.41484C6.09219 9.8187 5.82969 10.0948 5.82969 10.4342C5.82969 10.7735 6.09219 11.0496 6.41484 11.0496H16.9039L16.3461 13.9947C16.3078 14.196 16.368 14.4031 16.5047 14.5469C16.6141 14.6619 16.7672 14.7252 16.9148 14.7252C16.9531 14.7252 16.9914 14.7194 17.0297 14.7137L19.9445 14.0982C20.0594 14.0752 20.1633 14.0177 20.2453 13.9314L24.5 9.45633V18.4065V18.4065ZM19.5453 12.9306L17.6586 13.3274L18.0359 11.343L23.3297 5.77503L24.8391 7.36259L19.5453 12.9306ZM26.5234 5.59672L25.6703 6.49404L24.1609 4.90648L25.0141 4.00916C25.2109 3.80209 25.4844 3.6813 25.7688 3.6813C26.3594 3.6813 26.8352 4.18747 26.8352 4.80294C26.8352 5.09629 26.7203 5.38965 26.5234 5.59672Z" fill="#3A8DDE"/>
</svg>
